<?xml version="1.0" encoding="UTF-8" standalone="no"?>
<svg xmlns:dc="http://purl.org/dc/elements/1.1/" xmlns:cc="http://creativecommons.org/ns#" xmlns:rdf="http://www.w3.org/1999/02/22-rdf-syntax-ns#" xmlns:svg="http://www.w3.org/2000/svg" xmlns="http://www.w3.org/2000/svg" xmlns:sodipodi="http://sodipodi.sourceforge.net/DTD/sodipodi-0.dtd" xmlns:inkscape="http://www.inkscape.org/namespaces/inkscape" viewBox="0 0 512 512" version="1.1" id="svg4" sodipodi:docname="appbarv3.svg" inkscape:version="0.92.5 (2060ec1f9f, 2020-04-08)">
<metadata id="metadata10">
<rdf:RDF>
<cc:Work rdf:about="">
<dc:format>image/svg+xml</dc:format>
<dc:type rdf:resource="http://purl.org/dc/dcmitype/StillImage" />
</cc:Work>
</rdf:RDF>
</metadata>
<defs id="defs8" />
<sodipodi:namedview pagecolor="#ffffff" bordercolor="#666666" borderopacity="1" objecttolerance="10" gridtolerance="10" guidetolerance="10" inkscape:pageopacity="0" inkscape:pageshadow="2" inkscape:window-width="1366" inkscape:window-height="712" id="namedview6" showgrid="false" inkscape:zoom="0.4609375" inkscape:cx="-200.67797" inkscape:cy="82.440678" inkscape:window-x="0" inkscape:window-y="0" inkscape:window-maximized="1" inkscape:current-layer="svg4" />
<path d="M 215.50056,501.3858 V 490.77161 H 203.75028 192 l 0.2337,-10.41764 0.23371,-10.41764 11.51658,-0.21876 11.51657,-0.21874 v -10.61481 -10.61484 l 11.09779,0.21937 11.09778,0.21937 0.23303,10.81078 0.23303,10.81074 h 11.28356 11.28354 V 459.32212 448.31481 H 249.42211 238.11493 V 437.7006 427.08641 h -11.30719 -11.30718 v -10.6142 -10.6142 h 11.30718 11.30719 v 10.6142 10.6142 h 11.30718 11.30718 v -10.6142 -10.6142 h 11.30719 11.30716 v -10.61419 -10.6142 H 272.03648 260.72929 V 373.6223 362.61497 h 11.30719 11.30716 v -10.61419 -10.6142 h 11.3072 11.30718 v -10.6142 -10.6142 h 11.28287 11.28288 l 0.23369,-10.41764 0.2337,-10.41764 11.07401,-0.21923 11.07398,-0.21922 0.2332,10.83343 0.23319,10.83342 11.51657,0.21875 11.51657,0.21874 v -11.02951 -11.0295 h -11.30719 -11.30718 v -10.6142 -10.6142 h 11.30718 11.30719 v -10.6142 -10.6142 h 11.30718 11.30717 v -10.57857 -10.57858 l 2.94994,-0.51949 c 1.62248,-0.28572 6.72083,-0.37731 11.32966,-0.20355 l 8.37973,0.31595 -0.23188,-10.64284 -0.23186,-10.64284 -11.09778,-0.21937 -11.09781,-0.21939 v 11.03014 11.03014 h -11.30717 -11.30718 v -11.00732 -11.00732 h 11.30718 11.30717 v -10.61419 -10.6142 h 11.30719 11.30719 v 11.00732 11.00732 h 11.30717 11.30718 v 10.61419 10.6142 h 11.74961 11.74962 l -0.23304,-10.81075 -0.23302,-10.81077 -11.30719,-0.39312 -11.30719,-0.39311 V 202.41842 192 l 22.82376,7.8e-4 22.82376,7.6e-4 v 11.00732 11.00732 h 11.28418 11.28419 l 0.25729,-11.20388 c 0.14152,-6.16214 0.34032,60.88423 0.44179,148.99191 L 512,512 H 409.42211 306.8442 l -0.23369,-10.41764 -0.23371,-10.41764 -11.51658,-0.21874 -11.51658,-0.21875 V 501.36361 512 h -33.92153 -33.92155 z m 91.29502,-63.29207 v -11.00732 h -11.72597 -11.72597 v 11.00732 11.00732 h 11.72597 11.72597 z m 45.22873,-21.62152 v -10.6142 h -11.30718 -11.30718 v 10.6142 10.6142 h 11.30718 11.30718 z m -45.4138,-42.65335 0.23369,-10.41764 h 11.28288 11.28287 v 10.61419 10.61421 h 11.30718 11.30718 V 374.01541 363.40122 H 340.71713 329.40995 V 352.3939 341.38658 H 318.1264 306.84285 l -0.23303,10.81075 -0.23302,10.81076 -11.51658,0.21874 -11.51658,0.21875 v 10.6142 10.61421 l 11.51658,-0.21875 11.51658,-0.21875 z m 113.25759,-85.30673 -6.3e-4,-10.81075 H 408.5603 397.25312 l 0.002,10.81075 0.002,10.81077 h 11.30588 11.30588 l -6.3e-4,-10.81077 z m 46.0656,-21.42495 v -10.6142 h -11.72596 -11.72598 v 10.6142 10.6142 h 11.72598 11.72596 z m -136.77976,10.11181 c -0.31987,-0.30026 -0.58156,-5.08645 -0.58156,-10.63597 v -10.09004 h 11.75029 11.75026 l -0.2337,10.41765 -0.23369,10.41764 -10.93504,0.21831 c -6.01425,0.12007 -11.19671,-0.0272 -11.51656,-0.32759 z" id="path2" inkscape:connector-curvature="0" style="stroke-width:0.64410299" />
</svg>
