<svg viewBox="0 0 512 242" xmlns="http://www.w3.org/2000/svg">
  <path d="m 59.057948,228.68228 v -15.24407 h 15.244071 15.244088 v 15.24407 15.24408 H 74.302019 59.057948 Z m 60.976282,0 v -15.24407 h 14.9392 14.93918 v 15.24407 15.24408 h -14.93918 -14.9392 z m 60.97629,-0.29441 v -15.53848 l -15.39651,-0.16292 -15.39652,-0.1629 -0.16326,-14.77625 -0.16325,-14.77626 15.28661,-0.16294 15.28662,-0.16294 0.12072,-14.93918 0.1207,-14.9392 h 14.9392 14.93919 l 0.16308,15.09164 0.16311,15.09163 h 15.23342 15.23342 v -15.23342 -15.23343 l -15.09163,-0.16309 -15.09163,-0.16309 -0.16311,-15.09163 -0.16308,-15.09164 H 195.93906 181.01053 V 106.7297 91.485631 h 14.9392 14.93918 v 15.244069 15.24407 h 15.23342 15.23342 l 0.1631,-15.06056 0.16309,-15.060563 1.82928,-0.06471 c 1.00611,-0.0356 7.79735,-0.118183 15.09163,-0.183508 L 271.8652,91.485646 V 76.241574 60.997497 H 256.62112 241.37706 V 45.742775 30.488054 l 15.09163,0.16309 15.09163,0.163091 0.16309,15.091631 0.16309,15.091631 h 15.24406 15.24409 l -0.1631,-15.091631 -0.1631,-15.091631 -15.07127,-0.16305 -15.07126,-0.163049 -0.1728,-15.244068 L 271.56032,0 l 15.24407,0.16304902 15.24406,0.16304077 0.10174,15.24407621 0.10172,15.244069 14.9793,0.163075 14.97925,0.163064 0.16309,15.081004 0.16306,15.081001 15.39652,0.162908 15.39651,0.162916 V 46.068781 30.509352 H 348.08556 332.84149 V 15.265284 0.02120703 h 30.18325 30.18327 V 15.580627 31.140057 l 15.30533,-0.162907 15.30535,-0.162915 -0.0891,-15.03843 c -0.0586,-9.8998488 0.12875,-15.1730808 0.5485,-15.43249599 0.44283,-0.27368945 0.63761,36.87131899 0.63761,121.59447099 v 121.98858 h -61.28117 -61.28117 v -15.55943 -15.55942 l -15.39651,0.16291 -15.3965,0.16291 -0.16292,15.3965 -0.16291,15.39653 h -45.11199 -45.11197 z m 121.20067,-90.95196 -0.16274,-15.63578 -15.24406,0.0885 -15.24407,0.0885 -0.16362,14.77355 c -0.09,8.12545 -0.03,15.12172 0.13331,15.54727 0.22895,0.59662 3.79285,0.77372 15.5704,0.77372 h 15.27351 z m 60.97646,-30.55376 0.1629,-15.396519 h -15.55941 -15.55943 v 15.142449 c 0,8.32835 0.18761,15.33006 0.41693,15.55936 0.2293,0.22931 7.15773,0.34363 15.3965,0.25407 l 14.9796,-0.16285 z M -1.9183401,198.19414 V 182.95007 H 13.325731 28.569804 v 15.24407 15.24407 H 13.325731 -1.9183401 Z M 89.546107,167.706 v -15.24408 h 14.939173 14.93918 V 167.706 182.95007 H 104.48528 89.546099 Z" />

  <rect style="fill:#000000;"
    id="rect1"
    x="420.00439"
    y="0.091158867"
    width="95.310982"
    height="244.6779" />
</svg>
