<svg viewBox="0 0 512 512" xmlns="http://www.w3.org/2000/svg">
  <path d="M 69.99988,495.37985 V 478.37137 H 52.324889 34.649896 l 0.351541,-16.69351 0.35154,-16.69351 17.323451,-0.35053 17.323452,-0.35052 v -17.00948 -17.0095 l 16.693508,0.35152 16.693512,0.35155 0.35052,17.32346 0.35053,17.32345 h 16.97292 16.97292 V 427.97587 410.33745 H 121.02532 104.01684 V 393.32896 376.32049 H 87.008359 69.99988 v -17.00848 -17.00848 h 17.008479 17.008481 v 17.00848 17.00848 h 17.00848 17.00847 v -17.00848 -17.00848 h 17.00849 17.00847 v -17.00848 -17.00848 h -17.00847 -17.00849 v -17.63843 -17.63842 h 17.00849 17.00847 v -17.00848 -17.00848 h 17.00848 17.00848 V 221.98428 204.9758 h 16.97191 16.97192 l 0.35152,-16.6935 0.35155,-16.69351 16.65772,-0.3513 16.65772,-0.35129 0.35076,17.35977 0.35076,17.35977 17.32346,0.35053 17.32344,0.35053 v -17.67398 -17.67398 h -17.00848 -17.00847 v -17.00848 -17.00848 h 17.00847 17.00848 V 119.9334 102.92492 h 17.00848 17.00848 V 85.973534 69.022137 l 4.43735,-0.832452 c 2.44055,-0.457849 10.10958,-0.604623 17.04228,-0.326175 L 377.48,68.369795 377.13122,51.315421 376.78244,34.261057 360.08894,33.90952 343.39543,33.557974 V 51.232968 68.907962 H 326.38695 309.37847 V 51.269536 33.63111 h 17.00848 17.00848 V 16.622631 -0.38584975 h 17.00848 17.00848 V 17.252578 34.891004 h 17.00848 17.00848 v 17.008479 17.008479 h 17.67398 17.67398 L 446.42678,51.584505 446.07626,34.261057 429.06778,33.63111 412.0593,33.001173 V 16.306424 -0.38831976 l 34.33192,0.001228 34.33194,0.001228 V 17.252564 34.890991 h 16.97388 16.97389 l 0.38703,-17.953405 c 0.21287,-9.8743681 0.51191,97.562544 0.66454,238.748664 L 516,512.38832 H 361.70037 207.40073 l -0.35153,-16.69351 -0.35155,-16.69351 -17.32345,-0.35052 -17.32345,-0.35053 v 17.04403 17.04404 H 121.02532 69.99988 Z M 207.3276,393.95891 v -17.63842 h -17.63843 -17.63842 v 17.63842 17.63843 h 17.63842 17.63843 z m 68.03392,-34.6469 v -17.00848 h -17.00848 -17.00848 v 17.00848 17.00848 h 17.00848 17.00848 z m -68.31232,-68.34889 0.35153,-16.69351 h 16.97192 16.97191 v 17.00848 17.00848 h 17.00848 17.00848 V 291.27809 274.26961 H 258.35304 241.34456 V 256.63118 238.99276 H 224.37163 207.3987 l -0.35052,17.32345 -0.35053,17.32345 -17.32345,0.35053 -17.32345,0.35052 v 17.00848 17.00848 l 17.32345,-0.35052 17.32345,-0.35053 z m 170.36424,-136.69779 -9.4e-4,-17.32345 h -17.00848 -17.00848 l 0.003,17.32345 0.003,17.32346 h 17.00653 17.00652 l -9.4e-4,-17.32346 z M 446.7062,119.9334 v -17.00848 h -17.63842 -17.63843 v 17.00848 17.00848 h 17.63843 17.63842 z m -205.74674,16.20342 c -0.48114,-0.48113 -0.87479,-8.15063 -0.87479,-17.04334 v -16.16856 h 17.675 17.67498 l -0.35154,16.69352 -0.35154,16.69349 -16.44866,0.34984 c -9.04677,0.19241 -16.84232,-0.0438 -17.32345,-0.52495 z" />
</svg>
