<svg xmlns="http://www.w3.org/2000/svg" viewBox="0 0 512 512">
  <path d="M 242.95755,505.64552 C 183.90038,502.43056 128.71977,478.97245 85.67571,438.78268 28.071879,384.99861 -0.62754341,308.69584 7.2955243,230.39429 16.511438,139.3159 75.791347,59.975184 160.93578,24.760917 206.07067,6.093896 256.04946,1.2228799 304.69243,10.750146 382.75541,26.039637 449.8972,79.126952 483.3404,152.00257 c 22.29185,48.57589 28.35389,103.48156 17.21902,155.95829 -14.95206,70.46639 -60.08082,131.35999 -123.58559,166.75781 -40.36611,22.50021 -87.787,33.4435 -134.01628,30.92685 z M 208.65888,358.91569 c 0.98168,-0.53466 34.46372,-21.97181 74.40452,-47.63817 49.66974,-31.91826 73.10272,-47.15696 74.14815,-48.21934 3.87517,-3.93791 3.87517,-10.22893 0,-14.16683 -1.04543,-1.06238 -24.47841,-16.30109 -74.14815,-48.21934 -39.9408,-25.66635 -73.43662,-47.11685 -74.43514,-47.66777 -1.62348,-0.89575 -2.11223,-1.00133 -4.62126,-0.99845 -2.15868,0.003 -3.15762,0.16517 -4.33155,0.70546 -2.18714,1.00663 -4.09099,2.86087 -5.14867,5.01455 l -0.91759,1.86839 -0.087,95.39036 c -0.0616,67.46954 0.0175,95.89663 0.27028,97.11994 0.41519,2.00976 1.93682,4.40829 3.68041,5.80145 3.03531,2.42522 7.79756,2.8551 11.18601,1.00975 z" />
</svg>
