<svg xmlns="http://www.w3.org/2000/svg" viewBox="0 0 512 512">
  <path d="M 245.19992,511.80869 C 224.93433,511.04938 202.26868,507.19105 181.98877,501.04832 115.60155,480.9399 59.97796,434.49714 28.16222,372.61131 2.9091475,323.49073 -5.6793603,267.33938 3.6889406,212.60587 17.771878,130.32751 71.930947,59.497129 147.95202,23.935533 170.53248,13.372712 194.61669,6.1846269 219.23908,2.6594487 c 35.59805,-5.0965526 71.13618,-2.85772023 105.22829,6.6291593 92.63851,25.778705 163.55128,101.937902 182.49891,196.001012 9.24525,45.89681 5.69347,94.07841 -10.14583,137.63318 -22.16321,60.94417 -66.51689,111.27602 -124.18415,140.92227 -39.24354,20.17481 -82.42451,29.65009 -127.43638,27.96362 z M 315.7363,360.40095 c 2.98128,-0.94799 5.92822,-4.28905 6.67171,-7.56403 0.25171,-1.10871 -0.37934,-27.45498 -2.32771,-97.18178 -1.47017,-52.61338 -2.75489,-96.64201 -2.85492,-97.84141 -0.23774,-2.85032 -1.46607,-5.32376 -3.59387,-7.23681 -2.06591,-1.85741 -4.10425,-2.58231 -7.26119,-2.58231 -1.98958,0 -2.75601,0.16908 -4.24964,0.93746 -2.35528,1.21166 -148.16852,100.86916 -149.63923,102.27242 -0.61216,0.58408 -1.52484,1.90048 -2.02818,2.92532 -0.76331,1.55418 -0.91515,2.31203 -0.91515,4.56754 0,2.25551 0.15184,3.01336 0.91515,4.56754 0.50334,1.02485 1.41602,2.34759 2.02818,2.93942 0.94375,0.91244 151.12368,91.86136 154.86271,93.78482 2.58331,1.32895 5.11689,1.45327 8.39214,0.41182 z" />
</svg>
