<svg xmlns="http://www.w3.org/2000/svg" viewBox="0 0 512 512">
  <path d="M 245.45305,505.81317 C 225.66243,505.07166 203.52802,501.30375 183.72341,495.305 118.89214,475.66787 64.572225,430.31362 33.502166,369.87824 8.8409627,321.90891 0.45374809,267.07362 9.6024795,213.62293 23.355348,133.27296 76.245064,64.102666 150.48439,29.374546 c 22.05124,-10.315255 45.57097,-17.33487 69.61628,-20.7774263 34.76371,-4.9771021 69.46892,-2.790743 102.762,6.4737883 90.4673,25.174517 159.71805,99.548732 178.22158,191.407242 9.02858,44.82109 5.56004,91.87343 -9.90803,134.4074 -21.64376,59.51578 -64.95789,108.66799 -121.27358,137.6194 -38.32378,19.70196 -80.49269,28.95516 -124.44959,27.30822 z m 68.88318,-147.85912 c 2.91141,-0.92576 5.78928,-4.18852 6.51534,-7.38674 0.24581,-1.08273 -0.37044,-26.81151 -2.27315,-94.90408 -1.43571,-51.38025 -2.69032,-94.37696 -2.78801,-95.54825 -0.23217,-2.78353 -1.43171,-5.19899 -3.50963,-7.0672 -2.01749,-1.81388 -4.00806,-2.52179 -7.09102,-2.52179 -1.94294,0 -2.69141,0.16512 -4.15004,0.91548 -2.30007,1.18327 -144.69582,98.50504 -146.13205,99.87541 -0.59782,0.57039 -1.4891,1.85594 -1.98065,2.85677 -0.74542,1.51774 -0.89369,2.25783 -0.89369,4.46048 0,2.20265 0.14827,2.94273 0.89369,4.46049 0.49155,1.00083 1.38283,2.29256 1.98065,2.87053 0.92162,0.89105 147.58171,89.70836 151.23312,91.58673 2.52276,1.2978 4.99696,1.41922 8.19544,0.40217 z" />
</svg>
