<svg xmlns="http://www.w3.org/2000/svg" viewBox="0 0 512 512">
  <path d="M 242.64453,511.63701 C 182.16998,508.34489 125.66505,484.32379 81.587926,443.16946 22.601603,388.09458 -6.7866051,309.96054 1.3266161,229.77976 10.763712,136.51549 71.466338,55.270591 158.65424,19.211181 204.87237,0.0961506 256.05064,-4.8917694 305.86105,4.8641506 385.79754,20.520591 454.55073,74.882001 488.79657,149.50663 c 22.82686,49.74172 29.03438,105.96512 17.63227,159.70129 -15.31091,72.15758 -61.52276,134.51263 -126.55164,170.75999 -41.33489,23.04023 -89.89389,34.24615 -137.23267,31.6691 z M 207.52269,361.38566 c 1.00524,-0.54748 35.29085,-22.49912 76.19023,-48.78148 50.86182,-32.68429 74.85718,-48.28873 75.9277,-49.37661 3.96818,-4.03241 3.96818,-10.47441 0,-14.50682 -1.07052,-1.08788 -25.06588,-16.69232 -75.9277,-49.37661 -40.89938,-26.28235 -75.1991,-48.24766 -76.22159,-48.8118 -1.66244,-0.91724 -2.16291,-1.02536 -4.73215,-1.0224 -2.21051,0.003 -3.23342,0.16913 -4.43552,0.72239 -2.23964,1.03078 -4.18917,2.92952 -5.27224,5.1349 l -0.93961,1.91322 -0.0891,97.67973 c -0.063,69.08881 0.018,98.19815 0.27677,99.45082 0.42515,2.058 1.9833,4.51409 3.76875,5.94068 3.10815,2.48343 7.9847,2.92363 11.45446,1.03398 z" />
</svg>
