<svg xmlns="http://www.w3.org/2000/svg" viewBox="0 0 512 512">
  <path d="m 228.96677,505.66433 c -23.1413,-2.83253 -43.72659,-7.95076 -64.04532,-15.9239 C 100.12782,464.31517 48.798623,413.03504 23.349031,348.30336 15.034174,327.15429 9.4413507,304.15722 7.2253753,282.0046 c -1.6338356,-16.33309 -1.6338356,-34.58964 0,-50.92274 C 13.595064,167.40551 45.131964,107.30902 93.926271,65.865306 129.97854,35.244112 174.02796,15.309687 220.52668,8.5726808 c 19.96743,-2.892998 41.46607,-3.357909 61.72844,-1.334894 74.13299,7.4015042 141.81691,48.1355052 183.20869,110.2599332 20.69379,31.05903 33.5989,64.62217 39.60479,103.0028 L 506,226.45253 v 30.0907 30.09071 l -0.9314,5.95201 c -2.5017,15.98717 -6.02459,30.54162 -10.765,44.47473 -25.17577,73.99685 -82.87206,131.63797 -156.93972,156.78968 -16.25255,5.519 -33.14513,9.36038 -50.62151,11.51138 -5.06035,0.6228 -7.19728,0.66688 -30.45049,0.628 -13.75453,-0.0232 -26.05083,-0.16944 -27.32511,-0.32541 z m 42.86237,-23.10771 c 14.79668,-1.03135 34.22279,-4.83796 50.3095,-9.85831 22.31733,-6.96478 44.40825,-17.65297 63.54884,-30.74663 24.46028,-16.73274 45.90675,-38.40579 61.74795,-62.40028 13.37349,-20.25667 23.68667,-43.84519 28.76972,-65.80276 3.59369,-15.52396 4.56234,-23.60469 6.1041,-50.92274 1.00781,-17.85683 1.11452,-20.66669 0.78486,-20.66669 -0.86975,0 -16.81774,4.44339 -53.55131,14.92034 -38.11366,10.87057 -39.56505,11.39567 -44.64992,16.15359 -2.99398,2.80149 -4.81548,5.88028 -7.48847,12.65754 -1.30891,3.31867 -3.49717,8.86024 -4.86281,12.31463 -4.3003,10.87766 -7.64442,17.32591 -13.46276,25.95935 -10.02475,14.87516 -23.65606,27.93488 -38.64207,37.02172 -15.07687,9.14195 -30.35256,14.39007 -48.77312,16.75652 -6.43282,0.8264 -21.65892,0.83639 -27.80262,0.0182 -21.20776,-2.82432 -37.307,-8.81862 -57.26015,-21.31985 -12.02074,-7.53137 -15.87405,-10.93044 -25.08064,-22.12396 -1.96168,-2.38506 -3.79762,-4.425 -4.07987,-4.5332 -0.28225,-0.1082 -6.42224,1.42857 -13.64445,3.41506 -45.575574,12.53569 -60.954412,16.45264 -69.377418,17.67032 l -1.302889,0.18835 1.96486,-1.9968 c 3.833077,-3.89539 13.948031,-12.27572 39.991007,-33.13284 9.08173,-7.27332 17.55053,-14.20276 18.81957,-15.39876 l 2.30735,-2.17456 -0.22258,-2.65378 c -0.12243,-1.45958 -0.65309,-7.26659 -1.17926,-12.90446 -1.5995,-17.13859 -1.7931,-20.45065 -1.79756,-30.75204 -0.005,-10.77901 0.27158,-13.76287 2.12759,-22.98136 1.99766,-9.92201 4.8631,-18.2134 9.4849,-27.44537 5.61916,-11.22419 11.80149,-20.0435 21.24608,-30.30824 18.5209,-20.12927 40.44312,-32.97493 64.98893,-38.08126 8.44701,-1.75725 9.85287,-1.87498 22.11657,-1.85202 14.81791,0.0278 20.02415,0.68488 32.49883,4.10204 4.16482,1.14086 24.55158,7.63703 33.18075,10.57294 1.627,0.55355 3.07087,1.00646 3.20858,1.00646 0.81599,0 39.03069,-31.07576 55.8465,-45.41376 6.21408,-5.298441 20.1524,-18.813874 21.27655,-20.631032 l 0.67306,-1.088029 -0.83839,-1.429244 C 396.05994,74.00931 382.3789,64.493954 364.00805,54.49112 337.36662,39.984994 319.45747,34.091794 294.2765,31.545214 282.51599,30.35586 275.15023,30.063332 257.26586,30.075316 c -21.84404,0.01467 -29.48622,0.497094 -46.50319,2.935727 -17.32214,2.482359 -28.89441,5.500746 -41.2631,10.76263 -48.29765,20.546754 -93.037924,62.536137 -116.89512,109.707707 -9.934749,19.64344 -15.895697,37.96726 -19.401598,59.64006 -2.202277,13.61406 -2.982079,24.01754 -2.982079,39.78445 0,11.61553 0.362024,19.15448 1.333811,27.77605 5.084345,45.10735 19.195994,82.95825 41.284974,110.73644 8.952222,11.25796 22.95962,25.37698 35.466382,35.74908 29.56195,24.51623 66.97967,44.10141 97.22132,50.88755 8.79501,1.97359 20.64645,3.78515 31.5486,4.82242 3.8374,0.36512 28.12961,0.14086 34.75328,-0.32081 z" />
</svg>
