<svg viewBox="0 0 512 512" xmlns="http://www.w3.org/2000/svg">
  <path d="M 0,256 V 0 H 256 512 V 256 512 H 256 0 Z m 276.12979,230.78683 c 68.2514,-7.51788 129.39238,-42.54282 169.16104,-96.9048 12.74759,-17.42538 23.96115,-39.361 30.61188,-59.88203 3.95895,-12.21543 7.23804,-27.33461 8.56688,-39.5 1.07284,-9.82171 3.34209,-48.85499 2.86782,-49.32926 -0.17485,-0.17485 -9.49104,2.29477 -20.70265,5.48803 -11.21162,3.19326 -30.62618,8.71589 -43.14347,12.27251 -12.51729,3.55662 -24.58729,7.17176 -26.82222,8.03364 -7.7441,2.98644 -12.03132,6.70852 -15.30225,13.28508 -0.68387,1.375 -2.76409,6.55 -4.62271,11.5 -4.29828,11.44746 -7.06953,17.7205 -10.60252,24 -16.81569,29.888 -43.6351,51.26893 -75.89159,60.50218 -12.42366,3.5562 -28.23349,5.2061 -41.00383,4.27909 -22.94621,-1.66568 -42.2775,-8.23016 -63.80632,-21.66724 -12.75943,-7.96372 -17.95697,-12.42393 -25.22371,-21.64542 -3.82838,-4.85822 -5.55197,-6.68333 -6.14369,-6.50557 -2.6696,0.80198 -46.05328,12.65489 -54.82245,14.97811 -12.11749,3.2103 -24.39106,6.07982 -28,6.54629 l -2.5,0.32314 2.89332,-2.77564 c 4.503895,-4.32072 18.74917,-16.05011 40.98578,-33.74722 17.40705,-13.85348 20.36977,-16.39963 20.36312,-17.5 -0.005,-0.70824 -0.69077,-8.26272 -1.52552,-16.78772 -1.84983,-18.89145 -2.32754,-31.73883 -1.50743,-40.54016 2.79588,-30.00522 15.66401,-55.37593 39.97519,-78.81481 16.68989,-16.09105 36.45504,-27.0095 57.17151,-31.58208 10.07584,-2.22395 13.17873,-2.53735 25.14403,-2.53962 18.15073,-0.003 26.5303,1.67702 53.41134,10.71117 9.02624,3.03353 16.63054,5.5155 16.89845,5.5155 0.8858,0 49.88917,-40.09957 60.69021,-49.66293 6.71963,-5.94964 17.44063,-16.57475 18.24966,-18.08642 0.58147,-1.0865 0.50612,-1.44273 -0.6864,-3.24473 C 396.03188,66.28075 365.02968,47.55456 340.75,37.226028 318.7915,27.884926 295.39285,24.244502 257.5,24.273781 c -21.32164,0.01647 -31.37303,0.648015 -48,3.015896 -22.40044,3.190092 -34.62473,6.860798 -53.25,15.989895 C 110.08487,65.90721 68.572735,107.31232 45.995313,153.25 c -11.985209,24.38598 -18.666036,49.82433 -20.996499,79.94761 -0.642872,8.30968 -0.641941,29.81322 0.0017,38.10478 3.65681,47.11167 17.920888,89.33862 40.179976,118.94761 10.49049,13.95443 26.744785,30.39964 42.56956,43.06959 28.75103,23.0192 62.75035,40.8425 92.32754,48.40041 10.69969,2.7341 26.84689,5.1657 39.67246,5.97424 6.35179,0.40042 29.82107,-0.18496 36.37979,-0.90741 z" />
</svg>
