<svg xmlns="http://www.w3.org/2000/svg" viewBox="0 0 512 512">
  <path d="M 51.2,511.72766 C 43.0809,510.89432 33.9078,507.75561 26.98866,503.44339 19.89425,499.02194 12.98239,492.10268 8.5510291,484.98604 4.1196791,477.8694 1.1031591,468.89038 0.26918915,460.33424 0.09371915,458.53403 -8.4745759e-7,424.4611 -8.4745759e-7,362.46412 V 267.35569 L 42.66671,310.02341 l 42.6667,42.66772 56.86686,-56.86857 56.86687,-56.86859 56.79953,56.80219 c 31.23973,31.2412 56.91952,56.80219 57.06618,56.80219 0.14667,0 25.79678,-25.53085 57.00022,-56.73525 L 426.66659,239.08786 469.33331,281.7556 512,324.42332 v 66.57462 c 0,43.97657 -0.0938,67.51204 -0.27629,69.3363 -1.35288,13.52196 -6.94014,25.33199 -16.51387,34.90611 -9.54915,9.54952 -21.52309,15.2172 -34.90477,16.52163 -3.4788,0.3391 -405.79561,0.30534 -409.10507,-0.0343 z M 256.13333,216.28644 c -31.23974,-31.2412 -56.91953,-56.80219 -57.06619,-56.80219 -0.14667,0 -25.79676,25.53085 -57.0002,56.73525 L 85.33341,272.95472 42.66671,230.28702 -8.4745749e-7,187.61928 V 121.04467 C -8.4745749e-7,78.24815 0.09609915,53.483666 0.26918915,51.708347 1.0922491,43.264172 3.8299791,34.944922 8.1548591,27.745844 12.65986,20.246935 19.58515,13.206104 26.98866,8.5978076 34.12305,4.1570366 43.09549,1.1382403 51.69492,0.28533747 c 3.80412,-0.37729453 404.74052,-0.38190471 408.61015,-0.005 8.45717,0.82438173 16.7976,3.56804743 23.9616,7.88237363 7.55728,4.5511639 14.52496,11.4139589 19.18229,18.8935569 4.4156,7.091343 7.42429,16.052138 8.27715,24.651779 C 511.90784,53.540498 512,86.471606 512,149.57817 v 95.10843 l -42.66669,-42.66772 -42.66672,-42.66772 -56.86686,56.86858 -56.86688,56.86859 z" />
</svg>
