<svg viewBox="0 0 512 512" xmlns="http://www.w3.org/2000/svg">
  <path d="m 242.91463,450.88243 c -45.5934,-1.32888 -87.40082,-8.83227 -122.72776,-22.02791 -5.01159,-1.87282 -10.52154,-4.04561 -12.24425,-4.83034 -1.72282,-0.78494 -5.69509,-2.58075 -8.827323,-3.99067 C 82.990207,412.77412 62.026196,399.48044 49.680938,388.68584 44.842766,384.45546 35.447168,375.1758 32.084288,371.30646 5.8959707,341.17376 -4.8231681,305.13513 2.0114825,270.20009 c 3.8562467,-19.71086 12.2895265,-37.71119 26.5129105,-56.59 3.092349,-4.10459 3.561394,-5.01817 2.970355,-5.78648 -0.386227,-0.50129 -1.76127,-2.19494 -3.056154,-3.76325 C 20.976683,195.02509 14.464303,180.96684 11.583995,167.677 9.872327,159.77925 9.726067,141.22119 11.314009,133.38009 18.02648,100.22898 41.565474,74.030766 73.213324,64.48747 c 8.895502,-2.682094 14.352871,-3.441899 25.048005,-3.486046 11.576551,-0.04271 17.603201,0.863879 27.905641,4.224939 7.69239,2.509114 12.84535,4.855902 18.97152,8.640583 11.42455,7.058085 20.78633,16.110776 28.01235,27.087744 2.27289,3.45248 2.28513,3.46097 5.51196,3.76306 7.13483,0.66761 12.70981,5.78139 24.74393,22.69574 4.11173,5.77906 9.23727,12.54248 11.39008,15.02966 8.30489,9.59516 18.57875,16.19433 28.94653,18.59284 4.84614,1.12205 6.49985,1.23088 14.42454,0.95356 6.98931,-0.24543 9.82444,-0.58874 12.93734,-1.56792 8.05201,-2.53297 14.68376,-6.61215 21.39881,-13.16235 5.61055,-5.47254 7.83881,-8.24126 17.32819,-21.52915 11.53521,-16.15297 16.33615,-20.46399 23.44705,-21.05438 2.8973,-0.241 3.01849,-0.32415 5.39924,-3.74182 3.03134,-4.351193 12.1702,-13.871666 16.6923,-17.389081 11.7907,-9.171299 24.35022,-14.891941 39.22935,-17.868194 8.35638,-1.672319 24.23852,-1.789634 31.69436,-0.236772 19.12195,3.986478 34.53207,12.167165 47.54954,25.242182 9.68366,9.726535 16.23037,20.352955 20.77422,33.720035 3.32322,9.77665 4.57321,17.58473 4.57028,28.5518 -0.007,10.00244 -0.85734,16.3965 -3.32525,24.87596 -3.25573,11.18617 -7.17246,19.08523 -13.9198,28.07358 l -2.24148,2.98621 4.77403,6.42162 c 14.9343,20.0887 22.71081,37.53617 26.49663,59.4474 1.48777,8.61014 1.33671,25.75127 -0.30467,34.74899 -5.7653,31.5787 -23.05188,58.80863 -52.58963,82.83918 -35.58898,28.95361 -88.49327,48.73275 -149.06041,55.72806 -17.82464,2.05845 -47.9047,3.33512 -66.10175,2.80498 z m 180.2474,-235.51621 c 19.49303,-3.79952 36.65987,-17.09743 45.14196,-34.96775 16.39547,-34.54233 -0.86797,-75.69705 -36.91509,-88.003144 -16.11887,-5.502867 -35.78367,-3.843983 -50.59662,4.26782 -26.76822,14.658974 -39.44622,44.853784 -31.03468,73.914314 9.24916,31.95418 40.72406,51.15922 73.40443,44.78876 z m -19.38482,-28.96577 c -15.23452,-3.32064 -26.51632,-17.08929 -26.642,-32.51481 -0.0831,-10.12126 2.94124,-17.47208 10.08524,-24.51744 6.97384,-6.87753 14.30127,-9.98674 23.49474,-9.96939 9.38435,0.0165 17.18067,3.26603 23.87099,9.94622 6.85354,6.84322 9.93216,14.10219 9.93216,23.41836 0,6.52946 -1.05313,11.08862 -3.75239,16.24392 -6.99627,13.36203 -22.35266,20.58282 -36.98874,17.39314 z m 3.20729,-37.63392 c 5.72734,-3.73901 5.2602,-13.00871 -0.80046,-15.88817 -8.2989,-3.94273 -16.70874,4.85602 -12.24378,12.80972 2.77173,4.9373 8.22565,6.22439 13.04422,3.07866 z m -296.74706,63.58532 c 16.27335,-3.1582 30.0919,-11.71844 39.71219,-24.60037 18.75756,-25.11717 16.30996,-60.39381 -5.73961,-82.72527 C 127.46938,88.071406 104.10696,81.966804 81.210674,88.563925 52.690734,96.781529 33.643386,123.34858 35.227561,152.70038 c 1.215059,22.5116 13.960917,42.83344 33.419326,53.28308 5.174805,2.77911 14.882704,6.0994 19.932586,6.8175 6.575425,0.93429 15.476157,0.751 21.657967,-0.44994 z M 89.433733,182.75354 c -8.456704,-2.58712 -14.889681,-7.64487 -19.720957,-15.50549 -3.797524,-6.17853 -5.358946,-13.70608 -4.417723,-21.29666 0.633735,-5.10972 1.575443,-7.91336 4.316811,-12.84964 4.520132,-8.13981 13.477928,-14.43288 23.238901,-16.3265 14.274805,-2.76915 29.277185,4.6583 35.971635,17.80918 3.08149,6.05335 3.81007,9.74745 3.46629,17.57558 -0.23168,5.27313 -0.54568,6.93337 -1.94746,10.29668 -3.9501,9.47633 -11.0797,16.33964 -20.50769,19.74188 -4.76316,1.71922 -15.628733,2.01347 -20.39979,0.55454 z m 4.885845,-36.5883 c 5.802812,-2.96388 6.490122,-10.8018 1.343787,-15.32581 -5.125137,-4.50512 -13.784918,-1.40143 -14.876394,5.33376 -1.292802,7.97561 6.383307,13.6436 13.532607,9.99205 z m 150.797352,2.36096 c -10.53243,-2.30029 -20.67696,-8.38308 -30.22536,-18.12335 -1.78725,-1.82382 -7.041,-7.78575 -11.67483,-13.24955 -9.49734,-11.19852 -12.30882,-13.80409 -16.92074,-15.68074 l -3.21974,-1.30973 2.72526,-1.160361 c 18.9809,-8.08663 59.3731,-12.269557 91.94514,-9.521322 11.75042,0.991865 22.80602,2.520847 31.05266,4.29576 9.09144,1.956011 22.68843,6.713193 19.37917,6.779013 -1.76644,0.0425 -6.33152,2.67469 -9.39562,5.43302 -1.62583,1.46315 -6.64161,7.06634 -11.14586,12.4508 -12.47245,14.90916 -19.45187,21.11611 -29.28442,26.04341 -6.72472,3.36971 -12.13031,4.63554 -20.91586,4.89736 -5.76859,0.1708 -8.48918,-0.0165 -12.31993,-0.85325 z" />
</svg>
