<?xml version="1.0" encoding="UTF-8" standalone="no"?>
<!-- Created with Inkscape (http://www.inkscape.org/) -->

<svg
   xmlns:dc="http://purl.org/dc/elements/1.1/"
   xmlns:cc="http://creativecommons.org/ns#"
   xmlns:rdf="http://www.w3.org/1999/02/22-rdf-syntax-ns#"
   xmlns:svg="http://www.w3.org/2000/svg"
   xmlns="http://www.w3.org/2000/svg"
   xmlns:sodipodi="http://sodipodi.sourceforge.net/DTD/sodipodi-0.dtd"
   xmlns:inkscape="http://www.inkscape.org/namespaces/inkscape"
   version="1.1"
   id="svg2"
   width="512"
   height="512"
   viewBox="0 0 511.99998 512"
   sodipodi:docname="gab.svg"
   inkscape:version="0.92.4 5da689c313, 2019-01-14">
  <metadata
     id="metadata8">
    <rdf:RDF>
      <cc:Work
         rdf:about="">
        <dc:format>image/svg+xml</dc:format>
        <dc:type
           rdf:resource="http://purl.org/dc/dcmitype/StillImage" />
        <dc:title></dc:title>
      </cc:Work>
    </rdf:RDF>
  </metadata>
  <defs
     id="defs6" />
  <sodipodi:namedview
     pagecolor="#ffffff"
     bordercolor="#666666"
     borderopacity="1"
     objecttolerance="10"
     gridtolerance="10"
     guidetolerance="10"
     inkscape:pageopacity="0"
     inkscape:pageshadow="2"
     inkscape:window-width="1366"
     inkscape:window-height="712"
     id="namedview4"
     showgrid="false"
     inkscape:zoom="1.0033333"
     inkscape:cx="145.70071"
     inkscape:cy="278.08117"
     inkscape:window-x="0"
     inkscape:window-y="0"
     inkscape:window-maximized="1"
     inkscape:current-layer="svg2"
     fit-margin-top="0"
     fit-margin-left="0"
     fit-margin-right="0"
     fit-margin-bottom="0" />
  <path
     style="fill:#000000;stroke-width:0.56703681"
     d="m 242.97128,449.81162 c -45.39601,-1.32159 -87.02243,-8.78382 -122.19643,-21.90682 -4.98989,-1.86254 -10.47598,-4.02333 -12.19124,-4.80377 -1.71536,-0.78065 -5.67043,-2.56661 -8.789096,-3.96882 C 83.739233,411.91268 62.865983,398.69208 50.574173,387.95685 45.756947,383.7496 36.402026,374.52094 33.053705,370.67284 6.9787677,340.70578 -3.6939637,304.86516 3.111097,270.12213 c 3.8395515,-19.60264 12.23632,-37.50396 26.398126,-56.27906 3.078961,-4.08209 3.545975,-4.99065 2.957495,-5.75476 -0.384555,-0.49851 -1.753645,-2.18286 -3.042923,-3.74246 -7.429605,-8.98577 -13.913791,-22.96666 -16.781629,-36.18343 -1.704257,-7.85446 -1.849884,-26.31051 -0.268817,-34.10854 6.68341,-32.96896 30.120495,-59.023219 61.631329,-68.514079 8.856989,-2.66736 14.290731,-3.42299 24.939562,-3.46689 11.52643,-0.0425 17.52699,0.85913 27.78482,4.20172 7.65909,2.49533 12.78974,4.82922 18.88939,8.59311 11.37509,7.0193 20.69634,16.02225 27.89107,26.938859 2.26305,3.43359 2.27524,3.44208 5.4881,3.74246 7.10394,0.66397 12.65478,5.74967 24.6368,22.57101 4.09393,5.74735 9.19728,12.47347 11.34077,14.94716 8.26893,9.5424 18.49831,16.10518 28.82121,18.49062 4.82516,1.11583 6.47171,1.22401 14.36209,0.94824 6.95905,-0.24396 9.78191,-0.58549 12.88133,-1.55918 8.01715,-2.51909 14.62019,-6.57593 21.30616,-13.09013 5.58626,-5.4425 7.80488,-8.196 17.25317,-21.41086 11.48527,-16.06425 16.26543,-20.35147 23.34554,-20.93865 2.88476,-0.23972 3.00542,-0.32244 5.37587,-3.72125 3.01821,-4.327309 12.11751,-13.795469 16.62003,-17.293559 11.73965,-9.1209 24.2448,-14.81011 39.05951,-17.77001 8.3202,-1.66313 24.13358,-1.7798 31.55714,-0.23547 19.03917,3.96457 34.38257,12.10031 47.34368,25.10348 9.64174,9.673069 16.1601,20.241149 20.68428,33.534719 3.30883,9.72293 4.55341,17.48808 4.55049,28.39493 -0.007,9.94758 -0.85362,16.3065 -3.31085,24.73924 -3.24163,11.12471 -7.14141,18.98044 -13.85953,27.91933 l -2.23178,2.96988 4.75336,6.38627 c 14.86964,19.97833 22.61249,37.33001 26.38192,59.1208 1.48133,8.56278 1.33092,25.60984 -0.30335,34.55806 -5.74034,31.40511 -22.95208,58.48546 -52.36195,82.38401 -35.4349,28.79459 -88.11015,48.46489 -148.41507,55.42182 -17.74747,2.04709 -47.6973,3.31671 -65.81557,2.78955 z M 422.43831,215.58956 c 19.40864,-3.77873 36.50116,-17.00357 44.94653,-34.7757 16.32448,-34.3525 -0.86422,-75.28114 -36.75527,-87.519549 -16.04909,-5.47263 -35.62875,-3.82286 -50.37757,4.24437 -26.65233,14.578459 -39.27544,44.607249 -30.90032,73.508129 9.20912,31.77867 40.54775,50.87812 73.08663,44.54275 z m -19.30089,-28.80668 c -15.16857,-3.30229 -26.40152,-16.9953 -26.52666,-32.33617 -0.0827,-10.06553 2.92851,-17.37608 10.04158,-24.38264 6.94365,-6.83982 14.23935,-9.93188 23.39302,-9.9147 9.34372,0.0165 17.10629,3.24819 23.76764,9.89157 6.82387,6.80568 9.88916,14.02479 9.88916,23.28974 0,6.49361 -1.04857,11.02776 -3.73614,16.15461 -6.96598,13.28869 -22.25589,20.46984 -36.8286,17.29759 z m 3.1934,-37.42716 c 5.70255,-3.71849 5.23743,-12.93718 -0.79699,-15.80078 -8.26297,-3.92108 -16.6364,4.82922 -12.19077,12.73926 2.75973,4.91026 8.19003,6.19028 12.98774,3.06173 z M 110.8685,212.59169 c 16.20289,-3.14085 29.96162,-11.65398 39.54026,-24.46515 C 169.08511,163.14738 166.64811,128.0645 144.694,105.8558 128.02583,88.994151 104.76456,82.923091 81.967404,89.483961 53.570938,97.656411 34.606053,124.07744 36.18337,153.2681 c 1.209798,22.38773 13.900475,42.59792 33.27464,52.99013 5.152402,2.76389 14.818271,6.06597 19.84629,6.78021 6.546958,0.92915 15.40915,0.74672 21.5642,-0.44759 z M 90.154862,183.15603 c -8.420092,-2.57297 -14.825218,-7.60287 -19.635577,-15.42021 -3.781083,-6.14466 -5.335745,-13.63085 -4.398597,-21.17964 0.630991,-5.08165 1.568622,-7.86994 4.298122,-12.77914 4.500562,-8.09501 13.419576,-14.35359 23.13829,-16.2367 14.213,-2.75393 29.15043,4.63257 35.8159,17.71124 3.06815,6.02014 3.79357,9.69387 3.45128,17.47897 -0.23068,5.24416 -0.54332,6.8954 -1.93903,10.24011 -3.933,9.42426 -11.03173,16.24987 -20.4189,19.6334 -4.74254,1.70979 -15.56107,2.00254 -20.311471,0.55154 z m 4.864692,-36.38729 c 5.777686,-2.94759 6.462016,-10.74244 1.337969,-15.24159 -5.102948,-4.48026 -13.725237,-1.39371 -14.811988,5.3044 -1.287205,7.9319 6.355671,13.56871 13.474019,9.93719 z m 150.144486,2.34811 c -10.48683,-2.28765 -20.58744,-8.33706 -30.0945,-18.02393 -1.77951,-1.81374 -7.01052,-7.74288 -11.62429,-13.17668 -9.45622,-11.13702 -12.25553,-13.72823 -16.84748,-15.59459 l -3.2058,-1.30249 2.71346,-1.154009 c 18.89873,-8.0422 59.11605,-12.20214 91.54707,-9.46901 11.69955,0.98642 22.70729,2.507 30.91823,4.27216 9.05207,1.94526 22.5902,6.676269 19.29527,6.741819 -1.7588,0.0424 -6.30411,2.65994 -9.35495,5.40304 -1.61879,1.45524 -6.61285,7.02756 -11.0976,12.38245 -12.41845,14.8273 -19.36766,21.00017 -29.15764,25.90025 -6.6956,3.35129 -12.07779,4.61009 -20.82531,4.87059 -5.74361,0.16971 -8.45242,-0.0165 -12.26659,-0.84854 z"
     id="path12"
     inkscape:connector-curvature="0" />
</svg>
