<?xml version="1.0" encoding="UTF-8" standalone="no"?>
<!-- Created with Inkscape (http://www.inkscape.org/) -->

<svg
   xmlns:dc="http://purl.org/dc/elements/1.1/"
   xmlns:cc="http://creativecommons.org/ns#"
   xmlns:rdf="http://www.w3.org/1999/02/22-rdf-syntax-ns#"
   xmlns:svg="http://www.w3.org/2000/svg"
   xmlns="http://www.w3.org/2000/svg"
   xmlns:sodipodi="http://sodipodi.sourceforge.net/DTD/sodipodi-0.dtd"
   xmlns:inkscape="http://www.inkscape.org/namespaces/inkscape"
   version="1.1"
   id="svg2"
   width="24"
   height="24"
   viewBox="0 0 23.999999 24"
   sodipodi:docname="gab.svg"
   inkscape:version="0.92.4 5da689c313, 2019-01-14">
  <metadata
     id="metadata8">
    <rdf:RDF>
      <cc:Work
         rdf:about="">
        <dc:format>image/svg+xml</dc:format>
        <dc:type
           rdf:resource="http://purl.org/dc/dcmitype/StillImage" />
        <dc:title></dc:title>
      </cc:Work>
    </rdf:RDF>
  </metadata>
  <defs
     id="defs6" />
  <sodipodi:namedview
     pagecolor="#ffffff"
     bordercolor="#666666"
     borderopacity="1"
     objecttolerance="10"
     gridtolerance="10"
     guidetolerance="10"
     inkscape:pageopacity="0"
     inkscape:pageshadow="2"
     inkscape:window-width="1366"
     inkscape:window-height="712"
     id="namedview4"
     showgrid="false"
     inkscape:zoom="16.053333"
     inkscape:cx="12.200328"
     inkscape:cy="12.662856"
     inkscape:window-x="0"
     inkscape:window-y="0"
     inkscape:window-maximized="1"
     inkscape:current-layer="svg2"
     fit-margin-top="0"
     fit-margin-left="0"
     fit-margin-right="0"
     fit-margin-bottom="0" />
  <path
     style="fill:#000000;stroke-width:0.02673017"
     d="M 11.385825,21.136263 C 9.2458527,21.073978 7.2835794,20.722193 5.6254741,20.103574 5.3902499,20.015813 5.131635,19.91391 5.0507774,19.877117 4.9699156,19.840324 4.7834729,19.756129 4.6364587,19.690027 3.8796112,19.349704 2.8956442,18.726477 2.3162071,18.220421 2.0891226,18.022091 1.6481308,17.587053 1.4902906,17.405653 0.26111558,15.992999 -0.24199799,14.303475 0.07879322,12.665679 0.25979004,11.741611 0.65561455,10.897741 1.3232034,10.01268 1.4683459,9.820253 1.490361,9.7774218 1.46262,9.7414039 1.4444917,9.7178724 1.3799531,9.6384959 1.3191763,9.5649808 0.968944,9.1413897 0.66327888,8.482333 0.52808869,7.8592884 0.44774994,7.489033 0.44088499,6.6190073 0.51541673,6.2514115 0.83047328,4.6972533 1.9352997,3.4690473 3.4207234,3.0216521 3.8382427,2.895905 4.0943898,2.8602939 4.5963767,2.8582221 c 0.5433572,-0.00221 0.8262244,0.040536 1.3097793,0.1980716 0.3610503,0.1176282 0.6029097,0.2276502 0.8904475,0.4050812 0.5362227,0.3308884 0.9756272,0.75529 1.3147879,1.2698908 0.1066801,0.1618667 0.1072548,0.1622616 0.2587097,0.1764231 0.3348801,0.031311 0.5965471,0.27104 1.1613805,1.0639981 0.1929881,0.2709294 0.4335608,0.5880024 0.5346054,0.7046095 0.389798,0.4498338 0.872012,0.7592005 1.358634,0.8716509 0.227459,0.052559 0.305077,0.057687 0.677031,0.044705 0.32805,-0.011493 0.46112,-0.027554 0.607227,-0.073467 0.377929,-0.118748 0.689197,-0.3099871 1.004374,-0.6170624 0.263337,-0.2565645 0.367923,-0.3863592 0.813316,-1.0093171 0.541417,-0.7572615 0.766754,-0.959366 1.100511,-0.9870438 0.135988,-0.011346 0.141676,-0.015206 0.253419,-0.1754257 0.142279,-0.2039904 0.571221,-0.650313 0.78347,-0.8152135 0.553408,-0.4299596 1.142902,-0.6981512 1.841269,-0.8376842 0.392215,-0.07836 1.137659,-0.083871 1.487607,-0.011051 0.897508,0.1868937 1.620797,0.5704105 2.231785,1.183384 0.454513,0.4559916 0.761789,0.9541734 0.975059,1.5808312 0.155979,0.4583403 0.214648,0.8243919 0.214511,1.3385389 -3.51e-4,0.4689273 -0.04024,0.7686868 -0.156074,1.1662121 -0.152811,0.5244125 -0.336647,0.8947342 -0.65334,1.3161181 l -0.105206,0.1399957 0.224074,0.3010545 c 0.700956,0.94178 1.065955,1.759734 1.243646,2.786961 0.06983,0.403651 0.06274,1.207249 -0.0143,1.629071 -0.2706,1.480434 -1.081963,2.757003 -2.468347,3.883588 -1.670405,1.357381 -4.153521,2.284638 -6.996301,2.61259 -0.836617,0.09651 -2.248455,0.156348 -3.102552,0.131494 z M 19.845918,10.09501 c 0.914925,-0.1781348 1.720668,-0.8015479 2.118784,-1.6393294 0.769537,-1.6193831 -0.04074,-3.5487594 -1.732647,-4.1256827 -0.756556,-0.2579746 -1.679543,-0.18021 -2.374804,0.2000844 -1.256393,0.6872252 -1.851448,2.1027846 -1.456644,3.4651792 0.434119,1.498052 1.911425,2.3983975 3.445311,2.0997485 z M 18.936072,8.7370555 c -0.715048,-0.1556617 -1.24457,-0.8011591 -1.250469,-1.5243272 -0.0039,-0.4744912 0.13805,-0.8191035 0.473361,-1.1493967 0.327324,-0.3224291 0.671244,-0.4681934 1.102749,-0.467383 0.440464,7.794e-4 0.806392,0.1531215 1.120409,0.4662926 0.321678,0.3208201 0.466176,0.6611256 0.466176,1.0978808 0,0.3061103 -0.04943,0.5198479 -0.176122,0.7615302 -0.328377,0.6264246 -1.049145,0.9649516 -1.736104,0.8154033 z M 19.086609,6.972745 c 0.268819,-0.1752974 0.246893,-0.6098674 -0.03757,-0.7448547 -0.389517,-0.1848382 -0.784241,0.2276532 -0.574674,0.6005329 0.130094,0.2314666 0.386079,0.2918086 0.612243,0.1443277 z M 5.1584875,9.9536916 C 5.9222937,9.8056286 6.5708814,9.4043195 7.0224192,8.8003991 7.9028242,7.6228768 7.787944,5.9690715 6.7530252,4.9221452 5.9672858,4.1272937 4.8707473,3.8410961 3.796087,4.1503818 2.4574749,4.5356313 1.5634684,5.7811212 1.6378233,7.157175 1.6948533,8.212534 2.293093,9.1652366 3.206393,9.65513 3.4492777,9.7854155 3.9049277,9.9410787 4.141949,9.9747478 4.4505732,10.018584 4.868338,10.009935 5.1584875,9.9536916 Z M 4.1820446,8.5660858 C 3.7851206,8.4448033 3.4831824,8.2076892 3.2564216,7.8391813 3.078181,7.5495195 3.0048941,7.1966246 3.0490713,6.8407651 3.0788165,6.6012194 3.1230166,6.4697847 3.2516852,6.2383594 3.4638421,5.8567625 3.8842853,5.5617284 4.3424264,5.4729569 5.0124285,5.343143 5.7165807,5.6913434 6.0307914,6.307868 6.1754241,6.591661 6.2096207,6.7648394 6.1934851,7.1318282 6.1826107,7.3790449 6.167873,7.4568786 6.102079,7.6145502 5.9166769,8.0588143 5.5820423,8.3805745 5.1395302,8.5400714 4.915966,8.6206562 4.4059796,8.6345069 4.1820453,8.5660931 Z M 4.4113666,6.8507936 C 4.6837273,6.7118441 4.7159869,6.3443854 4.4744391,6.1323039 4.2338856,5.9210963 3.8274301,6.0666455 3.7762006,6.3823467 3.7155211,6.7562638 4.0758075,7.0219829 4.4113666,6.8507936 Z M 11.489192,6.9614817 C 10.994842,6.853639 10.518698,6.5684713 10.070534,6.1118255 9.9866481,6.0263472 9.7400576,5.7468318 9.5225641,5.4906814 9.0767971,4.9656763 8.9448377,4.8435319 8.7283728,4.7555532 L 8.5772507,4.6941236 8.7051639,4.6396785 C 9.5960511,4.2605702 11.4919,4.0644717 13.020701,4.1933117 c 0.551518,0.046474 1.070424,0.1181734 1.457488,0.2013927 0.426716,0.091739 1.064905,0.3147199 0.909581,0.3178068 -0.08291,0.00162 -0.297176,0.1253935 -0.440993,0.2547005 -0.07631,0.06862 -0.31173,0.3312833 -0.523142,0.5837057 -0.585407,0.6989631 -0.912993,0.9899525 -1.374494,1.2209417 -0.315631,0.1579781 -0.569348,0.2173167 -0.981707,0.2296027 -0.270754,0.00811 -0.398448,-7.81e-4 -0.578248,-0.03999 z"
     id="path12"
     inkscape:connector-curvature="0" />
</svg>
