<svg viewBox="0 0 512 512" xmlns="http://www.w3.org/2000/svg">
  <path d="M 27.366448,494.64041 C 13.693639,490.94552 3.1620061,479.09166 0.86875706,464.81598 c -1.154053,-7.18415 -1.154053,-41.10148 0,-48.28562 2.35843104,-14.68139 12.68572394,-26.13102 26.95577694,-29.8852 4.465296,-1.17475 30.465988,-1.32584 228.175456,-1.32584 197.70945,0 223.71025,0.15099 228.17543,1.32584 14.27018,3.75418 24.59747,15.20381 26.95583,29.8852 1.15403,7.18414 1.15403,41.10147 0,48.28562 -1.72538,10.74054 -8.07444,20.25356 -17.19835,25.76874 -9.69527,5.86054 8.55148,5.44823 -238.32686,5.38536 C 61.663134,495.92058 31.452765,495.74469 27.366448,494.64041 Z M 30.547676,310.90326 C 15.700411,308.38195 3.3004451,295.55689 0.80015606,280.13584 c -1.093016,-6.74135 -1.05684,-40.77454 0.05092,-47.90447 2.13782304,-13.7598 11.88226694,-25.4466 24.49928094,-29.38273 5.586922,-1.74293 7.014222,-1.75381 230.663593,-1.75381 215.34711,0 225.25717,0.0679 230.04192,1.57651 13.23455,4.17283 22.92175,15.58437 25.09308,29.56003 1.10779,7.12993 1.14387,41.16312 0.0508,47.90447 -2.56522,15.82163 -14.85201,28.2318 -30.51638,30.8228 -6.17242,1.02098 -444.114769,0.96709 -450.135807,-0.0554 z M 25.575872,125.07294 C 12.767752,120.9339 3.0642221,109.34772 0.87240406,95.576598 -0.25214994,88.511103 -0.30348194,54.478926 0.80013806,47.672119 3.3653981,31.850515 15.652196,19.440339 31.316521,16.849324 c 6.846289,-1.132433 442.520579,-1.132433 449.367009,0 15.66428,2.591015 27.95108,15.001191 30.51632,30.822795 1.10358,6.806807 1.05228,40.838984 -0.0724,47.904479 -1.70544,10.715152 -7.75972,19.945932 -16.94481,25.835222 -8.92403,5.72183 9.94857,5.30612 -238.55228,5.2548 -213.974879,-0.0441 -225.506548,-0.12413 -230.05421,-1.59368 z" />
</svg>
