<svg viewBox="0 0 512 512" xmlns="http://www.w3.org/2000/svg">
  <path d="m 79.809133,379.20193 v -90.74006 l 0.760846,-0.69158 c 1.210346,-1.10015 175.383691,-135.03305 175.604041,-135.03305 0.20595,0 171.88529,132.00332 174.72499,134.34511 l 1.60623,1.32461 v 90.76836 90.76835 l -67.8847,-0.0854 -67.88471,-0.0853 -0.0853,-66.53522 -0.0854,-66.53523 h -37.53441 -37.5344 v 66.61977 66.61977 H 150.6527 79.809133 Z M 17.628691,261.58059 C 7.8999002,248.93275 -0.00746573,238.5477 0.05675844,238.50269 0.51211981,238.18358 255.25133,42.295521 255.64995,41.957938 c 0.42931,-0.363584 8.8968,6.024592 55.11934,41.584014 l 54.6121,42.013598 0.0875,-17.86059 0.0874,-17.860593 37.10961,0.08604 37.10959,0.08604 0.10135,46.498583 0.10133,46.49857 35.86599,27.56096 c 19.7263,15.15854 36.02022,27.65799 36.20877,27.77656 0.18906,0.11891 -7.59494,10.53495 -17.359,23.22865 -10.77141,14.00328 -17.83801,22.90951 -18.04973,22.74857 -0.19133,-0.14547 -49.8336,-38.33264 -110.31611,-84.86038 -60.48251,-46.52775 -110.05222,-84.5959 -110.15491,-84.5959 -0.10269,0 -49.66923,38.08233 -110.14788,84.62739 -60.478648,46.54507 -110.129204,84.73086 -110.334581,84.85732 -0.226255,0.13932 -7.344034,-8.83221 -18.062098,-22.76616 z" />
</svg>
