<?xml version="1.0" encoding="UTF-8" standalone="no"?>
<!-- Created with Inkscape (http://www.inkscape.org/) -->

<svg
   xmlns:dc="http://purl.org/dc/elements/1.1/"
   xmlns:cc="http://creativecommons.org/ns#"
   xmlns:rdf="http://www.w3.org/1999/02/22-rdf-syntax-ns#"
   xmlns:svg="http://www.w3.org/2000/svg"
   xmlns="http://www.w3.org/2000/svg"
   xmlns:sodipodi="http://sodipodi.sourceforge.net/DTD/sodipodi-0.dtd"
   xmlns:inkscape="http://www.inkscape.org/namespaces/inkscape"
   version="1.1"
   id="svg2"
   width="512"
   height="512"
   viewBox="0 0 512 512"
   sodipodi:docname="minds.svg"
   inkscape:version="0.92.4 5da689c313, 2019-01-14">
  <metadata
     id="metadata8">
    <rdf:RDF>
      <cc:Work
         rdf:about="">
        <dc:format>image/svg+xml</dc:format>
        <dc:type
           rdf:resource="http://purl.org/dc/dcmitype/StillImage" />
        <dc:title></dc:title>
      </cc:Work>
    </rdf:RDF>
  </metadata>
  <defs
     id="defs6" />
  <sodipodi:namedview
     pagecolor="#ffffff"
     bordercolor="#666666"
     borderopacity="1"
     objecttolerance="10"
     gridtolerance="10"
     guidetolerance="10"
     inkscape:pageopacity="0"
     inkscape:pageshadow="2"
     inkscape:window-width="1366"
     inkscape:window-height="712"
     id="namedview4"
     showgrid="false"
     inkscape:zoom="0.5645933"
     inkscape:cx="217.97034"
     inkscape:cy="209"
     inkscape:window-x="0"
     inkscape:window-y="0"
     inkscape:window-maximized="1"
     inkscape:current-layer="svg2" />
  <path
     style="fill:#000000;stroke-width:0.61019421"
     d="m 230.1895,510.25936 c -1.28074,-0.4705 -2.88883,-1.3621 -3.57354,-1.98132 -1.90271,-1.72072 -3.55585,-5.39938 -3.55585,-7.91262 0,-2.90824 2.4364,-7.07344 5.10073,-8.72008 2.00546,-1.23944 2.76127,-1.27349 28.2696,-1.27349 h 26.20904 l 2.50653,2.14549 c 4.38853,3.75641 5.04985,9.8593 1.54123,14.22278 -3.33117,4.14278 -2.72684,4.05701 -29.76135,4.22396 -19.71044,0.12167 -24.85592,-0.014 -26.73639,-0.70472 z m -21.35591,-32.68213 c -9.1649,-1.77329 -11.26382,-13.5445 -3.34906,-18.78225 l 2.5367,-1.67872 h 47.98937 47.98937 l 2.53671,1.67872 c 8.05935,5.33343 5.88912,16.97438 -3.49639,18.75431 -3.77017,0.715 -90.52282,0.74072 -94.2067,0.028 z m 6.90419,-32.95276 c -10.71838,-0.36524 -11.81057,-0.77359 -14.0256,-5.24395 -2.55006,-5.14653 -0.76191,-10.8638 4.28094,-13.68753 l 2.72743,-1.52722 46.98495,0.0529 c 52.09984,0.0586 50.25013,-0.0815 53.58731,4.05996 1.38804,1.7226 1.90531,3.08216 2.1095,5.54449 0.31277,3.77156 -0.54663,5.83969 -3.62568,8.7252 l -2.0352,1.90728 -40.27282,0.2456 c -22.15004,0.13509 -44.52892,0.10056 -49.73083,-0.0767 z m 3.35608,-34.86701 c -9.92731,-2.26286 -19.08865,-8.87066 -24.38364,-17.58716 -4.78469,-7.87645 -5.73263,-13.64723 -5.78991,-35.24719 -0.061,-23.00285 -3.83739,-39.98662 -13.13383,-59.06754 -6.61646,-13.58027 -12.81147,-22.04186 -28.18431,-38.49621 -7.92113,-8.47839 -11.68744,-12.96107 -15.84776,-18.86205 -14.20408,-20.14708 -23.02401,-42.28216 -26.86669,-67.42646 -1.33124,-8.71085 -1.49572,-30.99084 -0.29282,-39.66263 1.34174,-9.67264 3.71022,-19.99016 6.6536,-28.98423 4.84011,-14.789886 16.19009,-35.527019 26.21707,-47.900246 5.59798,-6.907874 21.06234,-21.813125 27.80482,-26.799547 18.81196,-13.91244 39.75502,-23.2339822 61.72723,-27.4741853 5.81746,-1.1226597 8.8151,-1.25393686 28.63214,-1.25393686 24.71399,0 28.68349,0.41888606 42.88071,4.52498066 48.56805,14.0467525 88.38824,53.1893205 103.30406,101.5461045 4.73026,15.3354 6.43143,27.44281 6.4018,45.56218 -0.0312,19.1035 -1.82774,30.75968 -7.24144,46.98496 -7.24948,21.72718 -17.45191,38.96991 -33.21645,56.13787 -3.38989,3.69167 -9.06338,9.86988 -12.60773,13.72937 -13.41739,14.61034 -22.79372,32.19773 -27.98536,52.49285 -2.93285,11.4651 -3.35881,15.32684 -4.06652,36.86668 -0.34243,10.42247 -0.88842,20.45002 -1.21333,22.28345 -1.77104,9.99385 -10.43407,20.81975 -20.57059,25.70635 -7.19436,3.46827 -8.76649,3.58927 -45.91449,3.53365 -18.62619,-0.028 -34.96414,-0.30107 -36.30656,-0.60706 z m 61.28526,-90.5046 2.03075,-2.09519 0.4918,-12.39692 c 0.60698,-15.30076 1.40607,-22.05952 3.63363,-30.73377 4.6372,-18.05745 12.4686,-31.72572 27.87169,-48.64482 9.51287,-10.44918 14.50708,-17.15405 18.29085,-24.556 3.61452,-7.07085 7.07981,-17.41747 8.17178,-24.39925 1.13105,-7.23156 0.95326,-24.51346 -0.31387,-30.50971 -5.68916,-26.92206 -22.38326,-48.939299 -46.04414,-60.725932 -10.61092,-5.28582 -18.73162,-7.586411 -30.35617,-8.59987 -17.63688,-1.53764 -30.64196,0.883597 -46.28197,8.616614 -22.32988,11.040744 -38.78333,31.329838 -44.89937,55.366378 -5.15534,20.26091 -3.15683,40.42216 5.85215,59.03738 3.89971,8.05792 7.86459,13.61853 16.53507,23.1899 12.64293,13.9566 16.71978,19.60322 22.24565,30.81136 8.22234,16.67742 10.49452,26.60252 11.545,50.4296 l 0.58387,13.24347 1.96848,2.03098 1.9685,2.03096 h 22.33778 22.3378 z"
     id="path12"
     inkscape:connector-curvature="0" />
</svg>
