<svg viewBox="0 0 512 512" xmlns="http://www.w3.org/2000/svg">
  <path d="m 218.50997,497.37751 -36.44857,-14.62249 -0.12748,-45.89705 -0.12748,-45.89704 -7.49119,-23.98998 -7.4912,-23.98994 11.63418,-12.06154 c 40.39333,-41.87706 62.40071,-65.00108 61.99167,-65.13707 -0.25865,-0.0861 -32.12262,-5.77058 -70.80878,-12.63237 -38.68619,-6.8618 -70.470255,-12.60789 -70.631284,-12.76907 -0.161005,-0.1612 1.674084,-33.29116 4.077974,-73.62213 2.4039,-40.33099 4.36129,-73.613669 4.34976,-73.961481 -0.0119,-0.347842 20.03203,-21.369526 44.54119,-46.714887 L 196.5409,0 l 0.24966,54.810448 0.24964,54.810442 15.97746,-14.801205 c 33.76479,-31.279084 55.75682,-51.662542 78.0861,-72.374567 21.86453,-20.2809209 24.42215,-22.5739652 24.71303,-22.1565139 0.0655,0.093931 20.00627,20.7564679 44.31291,45.9167699 l 44.19391,45.746002 4.3454,72.716264 c 2.38998,39.99393 4.3389,73.56058 4.33097,74.59251 -0.0134,1.64015 -4.28555,8.28946 -33.95499,52.83898 l -33.94057,50.96273 -7.37615,23.38672 -7.37614,23.38674 -0.24967,46.4599 -0.24964,46.45988 -36.44857,14.62245 C 273.35752,505.41991 256.5063,512 255.95709,512 c -0.54923,0 -17.40046,-6.58009 -37.44718,-14.62249 z M 344.61404,341.97558 c 0.10998,-0.43029 8.88133,-166.06293 8.79856,-166.14579 -0.23789,-0.23815 -111.43573,89.43318 -111.43573,89.86317 0,0.47213 101.52293,76.32088 102.23076,76.37759 0.20596,0.0165 0.38885,-0.0263 0.40641,-0.095 z" />
</svg>
