<?xml version="1.0" encoding="UTF-8" standalone="no"?>
<!-- Created with Inkscape (http://www.inkscape.org/) -->

<svg
   xmlns:dc="http://purl.org/dc/elements/1.1/"
   xmlns:cc="http://creativecommons.org/ns#"
   xmlns:rdf="http://www.w3.org/1999/02/22-rdf-syntax-ns#"
   xmlns:svg="http://www.w3.org/2000/svg"
   xmlns="http://www.w3.org/2000/svg"
   xmlns:sodipodi="http://sodipodi.sourceforge.net/DTD/sodipodi-0.dtd"
   xmlns:inkscape="http://www.inkscape.org/namespaces/inkscape"
   version="1.1"
   id="svg2"
   width="512"
   height="512"
   viewBox="0 0 511.99999 512"
   sodipodi:docname="minds.svg"
   inkscape:version="0.92.4 5da689c313, 2019-01-14">
  <metadata
     id="metadata8">
    <rdf:RDF>
      <cc:Work
         rdf:about="">
        <dc:format>image/svg+xml</dc:format>
        <dc:type
           rdf:resource="http://purl.org/dc/dcmitype/StillImage" />
        <dc:title></dc:title>
      </cc:Work>
    </rdf:RDF>
  </metadata>
  <defs
     id="defs6" />
  <sodipodi:namedview
     pagecolor="#ffffff"
     bordercolor="#666666"
     borderopacity="1"
     objecttolerance="10"
     gridtolerance="10"
     guidetolerance="10"
     inkscape:pageopacity="0"
     inkscape:pageshadow="2"
     inkscape:window-width="1366"
     inkscape:window-height="712"
     id="namedview4"
     showgrid="false"
     inkscape:zoom="0.68420407"
     inkscape:cx="112.51382"
     inkscape:cy="172.46317"
     inkscape:window-x="0"
     inkscape:window-y="0"
     inkscape:window-maximized="1"
     inkscape:current-layer="svg2" />
  <path
     style="fill:#000000;stroke-width:0.49664843"
     d="m 218.70873,495.83594 -36.25533,-14.52911 -0.1268,-45.60392 -0.1268,-45.60392 -7.45148,-23.83676 -7.45148,-23.83673 11.5725,-11.98451 c 40.17917,-41.60961 62.06987,-64.58594 61.663,-64.72107 -0.25728,-0.0855 -31.95231,-5.73372 -70.43337,-12.55169 -38.48108,-6.81798 -70.09663,-12.52737 -70.256801,-12.68752 -0.160152,-0.16017 1.665201,-33.07854 4.056351,-73.15194 2.39115,-40.07341 4.33816,-73.143527 4.3267,-73.489118 -0.0118,-0.34562 19.92582,-21.233048 44.30504,-46.416539 l 44.32588,-45.7881539 0.24833,54.4603979 0.24832,54.460393 15.89275,-14.706678 C 246.83131,64.769754 268.70675,44.516476 290.91764,23.93673 312.66625,3.7853344 315.21031,1.5069348 315.49965,1.92172 c 0.0652,0.093331 19.9002,20.623905 44.07797,45.62352 l 43.9596,45.453842 4.32236,72.251858 c 2.37731,39.73851 4.3159,73.09078 4.30801,74.11612 -0.0133,1.62967 -4.26283,8.23652 -33.77497,52.50152 l -33.76062,50.63725 -7.33704,23.23736 -7.33704,23.23738 -0.24834,46.16318 -0.24832,46.16316 -36.25533,14.52907 c -19.94044,7.99099 -36.70232,14.52906 -37.24862,14.52906 -0.54632,0 -17.3082,-6.53807 -37.24864,-14.5291 z M 344.14422,341.42649 c 0.1094,-0.42754 8.83424,-165.00236 8.75191,-165.08469 -0.23663,-0.23663 -110.84492,88.86201 -110.84492,89.28925 0,0.46912 100.98468,75.83346 101.68875,75.8898 0.20487,0.0164 0.38679,-0.0261 0.40426,-0.0944 z"
     id="path12"
     inkscape:connector-curvature="0" />
</svg>
