<svg xmlns="http://www.w3.org/2000/svg" viewBox="0 0 512 512">
<g transform="matrix(1.3443961,0,0,1.3443961,4.1166298e-4,1.9691265e-4)" id="g6">
	<g id="g4">
		<path id="path2" d="m 334.237,336.517 c -0.935,-1.39 -2.437,-2.297 -4.103,-2.477 h -0.76 C 230.537,334.145 150.329,254.107 150.224,155.27 150.163,97.978 177.536,44.12 223.854,10.4 226.461,8.655 227.16,5.127 225.415,2.52 224.353,0.933 222.564,-0.014 220.654,0 l 0.04,0.04 C 115.539,0.029 30.285,85.265 30.274,190.42 c -0.011,105.155 85.225,190.409 190.38,190.42 40.26,0.004 79.485,-12.753 112.04,-36.44 2.603,-1.751 3.294,-5.28 1.543,-7.883 z" />
	</g>
</g>
<g transform="matrix(1.3443961,0,0,1.3443961,4.1166298e-4,1.9691265e-4)" id="g12">
	<g id="g10">
		<path id="path8" d="m 273.123,223.354 c -0.679,-0.577 -1.483,-0.985 -2.349,-1.194 l -0.04,-0.08 -15.36,-3.68 -8.24,-13.36 c -1.624,-2.684 -5.116,-3.544 -7.8,-1.92 -0.786,0.475 -1.445,1.134 -1.92,1.92 l -8.32,13.36 -15.12,3.68 c -3.081,0.59 -5.1,3.566 -4.51,6.647 0.186,0.973 0.624,1.881 1.27,2.633 l 10.24,12 -1.2,15.76 c -0.279,3.125 2.027,5.884 5.152,6.163 0.975,0.087 1.956,-0.079 2.848,-0.483 l 14.64,-6 14.32,5.88 c 2.86,1.288 6.223,0.014 7.512,-2.846 0.383,-0.851 0.551,-1.783 0.488,-2.714 l -1.2,-15.76 10.24,-12 c 2.031,-2.391 1.74,-5.975 -0.651,-8.006 z" />
	</g>
</g>
<g transform="matrix(1.3443961,0,0,1.3443961,4.1166298e-4,1.9691265e-4)" id="g18">
	<g id="g16">
		<path id="path14" d="m 297.803,78.394 c -0.679,-0.577 -1.483,-0.985 -2.349,-1.194 l 0.08,0.2 -26.24,-6.4 -14.16,-22.92 c -1.624,-2.684 -5.116,-3.544 -7.8,-1.92 -0.786,0.475 -1.445,1.134 -1.92,1.92 l -14.2,23 -26,6.36 c -3.064,0.674 -5.001,3.704 -4.327,6.768 0.175,0.794 0.518,1.542 1.007,2.192 l 17.48,20.6 -2.04,26.96 c -0.279,3.125 2.027,5.884 5.152,6.163 0.975,0.087 1.956,-0.079 2.848,-0.483 l 25,-10.24 24.68,10.12 c 2.86,1.288 6.223,0.014 7.512,-2.846 0.383,-0.851 0.551,-1.783 0.488,-2.714 l -2.04,-26.96 17.48,-20.6 c 2.031,-2.391 1.74,-5.975 -0.651,-8.006 z" />
	</g>
</g>
<g transform="matrix(1.3443961,0,0,1.3443961,4.1166298e-4,1.9691265e-4)" id="g24">
	<g id="g22">
		<path id="path20" d="m 348.563,170.354 c -0.679,-0.577 -1.483,-0.985 -2.349,-1.194 l -0.16,-0.08 -12,-2.88 -6.36,-10.32 c -1.624,-2.684 -5.116,-3.544 -7.8,-1.92 -0.786,0.475 -1.445,1.134 -1.92,1.92 l -6.28,10.52 -11.6,2.84 c -3.075,0.619 -5.067,3.613 -4.448,6.689 0.182,0.907 0.583,1.755 1.168,2.471 l 8,9.32 -0.92,12 c -0.279,3.125 2.027,5.884 5.152,6.163 0.975,0.087 1.956,-0.079 2.848,-0.483 l 11.28,-4.64 10.96,4.48 c 2.86,1.288 6.223,0.014 7.512,-2.846 0.383,-0.851 0.551,-1.783 0.488,-2.714 l -0.92,-12 8,-9.32 c 2.031,-2.391 1.74,-5.975 -0.651,-8.006 z" />
	</g>
</g>
<g id="g26">
</g>
<g id="g28">
</g>
<g id="g30">
</g>
<g id="g32">
</g>
<g id="g34">
</g>
<g id="g36">
</g>
<g id="g38">
</g>
<g id="g40">
</g>
<g id="g42">
</g>
<g id="g44">
</g>
<g id="g46">
</g>
<g id="g48">
</g>
<g id="g50">
</g>
<g id="g52">
</g>
<g id="g54">
</g>
</svg>
