<svg viewBox="0 0 512 512" xmlns="http://www.w3.org/2000/svg">
  <g><g><path d="m256 407.439c-83.504 0-151.439-67.935-151.439-151.439s67.935-151.439 151.439-151.439c83.503 0 151.439 67.935 151.439 151.439s-67.936 151.439-151.439 151.439z"/></g><g><g><g><g><path d="m333.762 88.164c-1.958 0-3.948-.386-5.864-1.201-7.622-3.242-11.174-12.05-7.932-19.673l16.56-38.935c3.242-7.622 12.048-11.175 19.673-7.931 7.622 3.242 11.174 12.05 7.932 19.673l-16.56 38.935c-2.428 5.707-7.975 9.132-13.809 9.132z"/></g><g><path d="m161.664 492.777c-1.958 0-3.948-.386-5.864-1.201-7.623-3.242-11.174-12.05-7.931-19.673l16.56-38.935c3.242-7.622 12.05-11.174 19.673-7.931 7.623 3.242 11.174 12.05 7.931 19.673l-16.561 38.935c-2.426 5.707-7.974 9.132-13.808 9.132z"/></g></g><g><g><path d="m73.154 193.235c-1.958 0-3.948-.386-5.864-1.201l-38.935-16.561c-7.623-3.242-11.174-12.05-7.931-19.673 3.242-7.622 12.049-11.173 19.673-7.931l38.935 16.561c7.623 3.242 11.174 12.05 7.932 19.673-2.428 5.706-7.976 9.132-13.81 9.132z"/></g><g><path d="m477.768 365.331c-1.959 0-3.948-.386-5.864-1.201l-38.935-16.56c-7.622-3.242-11.174-12.05-7.932-19.673 3.243-7.622 12.053-11.171 19.673-7.931l38.935 16.56c7.622 3.242 11.174 12.05 7.932 19.673-2.427 5.707-7.976 9.132-13.809 9.132z"/></g></g><g><g><path d="m181.709 86.725c-5.938 0-11.559-3.549-13.915-9.394l-15.822-39.241c-3.098-7.682.619-16.421 8.302-19.519 7.682-3.1 16.421.619 19.519 8.302l15.821 39.241c3.098 7.682-.619 16.421-8.302 19.519-1.838.741-3.736 1.092-5.603 1.092z"/></g><g><path d="m346.123 494.521c-5.938 0-11.559-3.549-13.916-9.394l-15.822-39.241c-3.097-7.683.62-16.422 8.302-19.519 7.682-3.1 16.421.619 19.52 8.302l15.822 39.241c3.097 7.683-.62 16.422-8.302 19.519-1.838.741-3.737 1.092-5.604 1.092z"/></g></g><g><g><path d="m32.486 361.12c-5.938 0-11.559-3.549-13.915-9.394-3.098-7.682.619-16.421 8.302-19.519l39.241-15.821c7.682-3.098 16.422.619 19.519 8.302 3.098 7.683-.619 16.421-8.302 19.519l-39.241 15.821c-1.838.741-3.737 1.092-5.604 1.092z"/></g><g><path d="m440.282 196.706c-5.938 0-11.559-3.549-13.916-9.394-3.097-7.683.62-16.421 8.302-19.519l39.242-15.821c7.683-3.099 16.421.619 19.52 8.302 3.097 7.683-.62 16.421-8.302 19.519l-39.242 15.821c-1.838.741-3.737 1.092-5.604 1.092z"/></g></g></g><g><g><g><path d="m256 72.308c-8.284 0-14.999-6.715-14.999-14.999v-42.31c0-8.284 6.715-14.999 14.999-14.999 8.283 0 14.999 6.715 14.999 14.999v42.311c0 8.283-6.716 14.998-14.999 14.998z"/></g><g><path d="m256 512c-8.284 0-14.999-6.715-14.999-14.999v-42.311c0-8.284 6.715-14.999 14.999-14.999 8.283 0 14.999 6.715 14.999 14.999v42.311c0 8.284-6.716 14.999-14.999 14.999z"/></g></g><g><g><path d="m57.309 270.999h-42.31c-8.284 0-14.999-6.715-14.999-14.999 0-8.283 6.715-14.999 14.999-14.999h42.311c8.284 0 14.999 6.715 14.999 14.999-.001 8.284-6.716 14.999-15 14.999z"/></g><g><path d="m497.001 270.999h-42.311c-8.284 0-14.999-6.715-14.999-14.999 0-8.283 6.715-14.999 14.999-14.999h42.311c8.283 0 14.999 6.715 14.999 14.999s-6.715 14.999-14.999 14.999z"/></g></g><g><g><path d="m115.504 130.503c-3.838 0-7.677-1.464-10.605-4.393l-29.918-29.918c-5.857-5.857-5.857-15.354 0-21.211 5.857-5.858 15.354-5.858 21.211 0l29.918 29.918c5.857 5.857 5.857 15.354 0 21.211-2.928 2.929-6.767 4.393-10.606 4.393z"/></g><g><path d="m426.414 441.412c-3.839 0-7.677-1.464-10.606-4.393l-29.918-29.918c-5.858-5.857-5.858-15.354 0-21.211 5.857-5.858 15.354-5.858 21.211 0l29.918 29.918c5.858 5.857 5.858 15.354 0 21.211-2.928 2.929-6.767 4.393-10.605 4.393z"/></g></g><g><g><path d="m85.586 441.412c-3.839 0-7.677-1.464-10.605-4.393-5.857-5.857-5.857-15.354 0-21.211l29.918-29.918c5.857-5.858 15.354-5.858 21.211 0 5.857 5.857 5.857 15.354 0 21.211l-29.918 29.918c-2.929 2.929-6.767 4.393-10.606 4.393z"/></g><g><path d="m396.496 130.503c-3.839 0-7.677-1.464-10.605-4.393-5.858-5.857-5.858-15.354 0-21.211l29.918-29.918c5.857-5.858 15.354-5.858 21.211 0 5.858 5.857 5.858 15.354 0 21.211l-29.918 29.918c-2.93 2.929-6.768 4.393-10.606 4.393z"/></g></g></g></g></g></svg>
