<svg xmlns="http://www.w3.org/2000/svg" viewBox="0 0 512 512">
  <path d="m 40.941195,504.02962 c 0.0035,-1.97757 22.145877,-7.91028 49.20523,-12.65645 C 283.84099,456.17242 392.64634,357.68943 425.15767,188.40942 c 3.38345,-17.79812 7.16822,-56.5585 8.41058,-86.22206 l 2.25889,-54.185416 25.74896,-4.350655 c 14.16195,-2.373084 29.95083,-5.537196 35.08648,-6.723738 L 506,34.554466 503.76829,89.530917 C 500.95326,158.74587 489.99556,201.4614 458.33165,267.11671 399.07608,389.33055 300.13187,467.24681 169.28675,494.53728 125.60997,503.6341 40.930579,509.1713 40.941195,504.02962 Z M 25.800798,473.17953 C -0.88945113,385.37541 -0.59855293,306.27261 26.68232,232.707 c 8.357526,-22.54429 24.404803,-57.74505 28.306187,-62.0957 1.572007,-1.97757 32.729547,19.38017 32.729547,22.14878 0,0.79103 -7.78879,16.21608 -17.308422,34.0142 -9.519635,17.79814 -23.013467,49.04375 -29.986288,70.00599 -12.034052,35.59626 -12.675299,40.34243 -12.627349,94.92338 0.02769,31.2456 2.113539,67.63288 4.635017,80.68485 2.521476,12.65645 3.834824,24.12635 2.91855,24.91739 -0.916273,1.18653 -5.213214,-9.88786 -9.548764,-24.12636 z M 191.0311,414.24794 C 127.18973,391.70365 93.858342,312.99636 122.49196,252.87822 c 8.99728,-18.98468 5.97143,-17.79814 -30.269232,12.26092 -13.604175,11.0744 -25.49464,19.38019 -26.423256,18.58917 -3.152038,-3.16412 18.87535,-68.02842 32.581115,-95.71439 C 135.67422,112.07522 192.6266,57.889795 277.05467,17.151849 293.91691,8.8460539 307.90087,4.4953999 309.7628,6.4729701 c 3.56091,3.5596259 24.45902,61.3046769 22.70338,62.4912179 -0.59693,0.395514 -23.40213,9.492337 -50.67829,19.775702 -100.05403,38.36486 -152.50511,81.4759 -197.516873,162.55627 l -8.793832,15.82055 10.916209,-13.84298 c 25.381526,-32.43216 78.843716,-84.64 105.409726,-103.22916 59.03978,-41.52898 140.5942,-72.379074 204.87941,-77.520756 35.28344,-2.768598 33.14726,-7.514767 23.1033,51.812336 l -6.62631,39.15589 -52.58515,-0.79102 c -54.04737,-1.18655 -103.85198,5.93271 -124.62391,17.40261 l -9.83192,5.53721 13.64512,0.39551 c 7.50482,0 18.90823,2.76859 25.34093,5.53719 l 11.69581,5.5372 -13.0436,0.39552 c -57.59994,1.18653 -63.7227,86.61757 -7.00083,97.29644 17.36399,3.16411 39.84954,-7.11925 47.5064,-22.14878 6.86639,-13.44749 7.46673,-43.90206 0.99786,-50.23028 -3.326,-3.55965 -3.40271,-4.74617 -0.2655,-4.74617 5.62663,0 18.48445,18.19364 28.31363,39.94691 5.2525,11.86542 7.67455,26.10393 7.73337,45.48411 0.20118,65.65534 -49.24713,116.28113 -112.97392,115.88561 -13.93752,-0.3955 -30.60405,-2.37308 -37.03675,-4.74616 z m 15.95293,-75.9387 c 5.91577,-9.49234 5.91577,-10.67888 0,-19.7757 -10.12321,-15.82056 -33.49666,-10.28336 -33.49666,7.51477 0,20.96224 22.51519,29.26804 33.49666,12.26093 z" />
</svg>
