<svg viewBox="0 0 512 512" xmlns="http://www.w3.org/2000/svg">
  <path d="M 213.70896,435.9053 C 126.36521,434.24674 75.665932,430.76905 55.005427,425.01915 43.947038,421.94155 32.183222,414.56413 24.841609,406.10257 17.696037,397.86698 13.17994,389.46394 10.53703,379.48621 4.7712126,357.71868 1.1947608,318.39567 0.12826452,265.04206 -0.26113438,245.56162 0.96914122,210.35017 2.8849941,186.14234 4.8748452,160.99948 8.1306385,139.4984 11.520081,129.11671 18.656123,107.25939 36.845477,90.587684 58.980248,85.616448 c 19.568851,-4.394966 60.227342,-7.21833 131.414582,-9.12555 21.61369,-0.579063 108.66606,-0.579547 129.84435,-6.76e-4 74.99912,2.049799 116.41766,5.136973 135.46016,10.096664 21.09599,5.494522 38.04869,21.535464 44.88211,42.468224 4.58529,14.04619 8.21916,41.21965 10.07255,75.32112 1.75322,32.25859 1.85849,61.51377 0.33844,94.0662 -1.85331,39.69037 -5.64844,70.45582 -10.53318,85.38804 -3.74816,11.45784 -11.13272,22.12638 -20.61837,29.78752 -10.12206,8.17514 -20.27702,12.20479 -36.90475,14.64438 -25.89038,3.79857 -70.37931,6.24102 -137.16192,7.53017 -14.7774,0.28527 -78.84974,0.36375 -92.06526,0.1128 z m 15.90155,-116.99047 c 13.2494,-7.67268 43.00489,-24.90581 66.12332,-38.29585 23.11842,-13.39005 41.99628,-24.48142 41.9508,-24.6475 -0.0455,-0.16607 -1.4239,-1.08072 -3.06317,-2.03254 -34.4968,-20.03021 -129.13084,-74.78341 -129.25374,-74.78341 -0.0921,0 -0.16757,34.58467 -0.16757,76.85481 0,42.27015 0.0721,76.85482 0.16026,76.85482 0.0881,0 11.00069,-6.27764 24.2501,-13.95033 z" />
</svg>
