<?xml version="1.0" encoding="UTF-8" standalone="no"?>
<!-- Created with Inkscape (http://www.inkscape.org/) -->

<svg
   xmlns:dc="http://purl.org/dc/elements/1.1/"
   xmlns:cc="http://creativecommons.org/ns#"
   xmlns:rdf="http://www.w3.org/1999/02/22-rdf-syntax-ns#"
   xmlns:svg="http://www.w3.org/2000/svg"
   xmlns="http://www.w3.org/2000/svg"
   xmlns:sodipodi="http://sodipodi.sourceforge.net/DTD/sodipodi-0.dtd"
   xmlns:inkscape="http://www.inkscape.org/namespaces/inkscape"
   version="1.1"
   id="svg2"
   width="800"
   height="341.33334"
   viewBox="0 0 800 341.33334"
   sodipodi:docname="logo.svg"
   inkscape:version="0.92.4 5da689c313, 2019-01-14">
  <metadata
     id="metadata8">
    <rdf:RDF>
      <cc:Work
         rdf:about="">
        <dc:format>image/svg+xml</dc:format>
        <dc:type
           rdf:resource="http://purl.org/dc/dcmitype/StillImage" />
        <dc:title></dc:title>
      </cc:Work>
    </rdf:RDF>
  </metadata>
  <defs
     id="defs6" />
  <sodipodi:namedview
     pagecolor="#ffffff"
     bordercolor="#666666"
     borderopacity="1"
     objecttolerance="10"
     gridtolerance="10"
     guidetolerance="10"
     inkscape:pageopacity="0"
     inkscape:pageshadow="2"
     inkscape:window-width="1366"
     inkscape:window-height="712"
     id="namedview4"
     showgrid="false"
     inkscape:zoom="1.2075"
     inkscape:cx="400"
     inkscape:cy="170.66667"
     inkscape:window-x="0"
     inkscape:window-y="0"
     inkscape:window-maximized="1"
     inkscape:current-layer="svg2" />
  <path
     style="fill:#000000;stroke-width:1.33333337"
     d="m 242.44132,335.84148 c 0,-7.94108 -4.20488,-22.38698 -7.39186,-25.39479 -3.77532,-3.56308 -5.94148,-7.6264 -5.94148,-11.14512 0,-3.06595 -7.05877,-16.29312 -9.99569,-18.73055 -1.06351,-0.88262 -2.25388,-5.50832 -2.77285,-10.77506 -0.88075,-8.93819 -2.26818,-10.99179 -5.34644,-7.91352 -0.72324,0.72324 -6.03923,2.52324 -11.81328,4 -16.25562,4.15749 -43.18304,3.82108 -58.92258,-0.73612 -13.98688,-4.04975 -30.80319,-12.67735 -37.22318,-19.09734 -2.52595,-2.52596 -4.786943,-4.34264 -5.024424,-4.03709 -2.03393,2.61696 -6.45094,9.63754 -9.223759,14.66063 -5.74652,10.41009 -6.911416,11.89493 -9.331853,11.89493 -2.948088,0 -2.958148,-1.66488 -0.04269,-7.06621 1.273703,-2.35974 2.711091,-9.03507 3.21567,-14.93379 0.501836,-5.86667 1.212261,-12.31408 1.578722,-14.3276 0.366462,-2.01351 0.168768,-3.96842 -0.439318,-4.34423 -1.891883,-1.16925 -11.578559,-15.93504 -15.400267,-23.47525 -4.602765,-9.08123 -9.489344,-23.3726 -10.659287,-31.17434 l -0.901552,-6.01192 H 45.205154 c -15.659709,0 -41.5005735,-3.49864 -43.9527803,-5.95085 -1.69719193,-1.69719 -1.45251581,-2.11292 1.9580259,-3.32689 2.1436727,-0.76303 4.7975865,-1.99204 5.8975865,-2.73114 1.0999999,-0.73909 3.3499999,-2.03576 4.9999999,-2.88148 3.730131,-1.91192 3.81316,-3.33852 0.259938,-4.46626 -1.507035,-0.47832 -2.52158,-1.52511 -2.254546,-2.32622 0.773064,-2.31918 18.242042,-7.65049 25.06823,-7.65049 3.42147,0 8.916081,-0.36943 12.210248,-0.82093 l 5.989392,-0.82095 3.484364,-14.17906 C 70.7607,73.674686 104.66324,41.800056 154.77548,31.906916 c 2.8465,-0.56195 5.58616,-3.62839 12.23858,-13.69842 7.08799,-10.7293737 9.51024,-13.3609667 13.99867,-15.2084947 l 5.42759,-2.23410405 0.88625,3.53112405 c 0.48745,1.942118 2.01487,4.447465 3.39428,5.567435 1.3794,1.1199697 2.60849,3.3863197 2.73131,5.0363197 0.2911,3.91084 1.49742,3.79114 4.25834,-0.42256 1.80739,-2.75842 2.61335,-3.11484 4.15335,-1.83675 1.05095,0.87221 1.9108,2.88549 1.9108,4.47398 0,1.58848 1.2,5.24188 2.66667,8.11866 1.46666,2.87678 2.66666,6.49669 2.66666,8.04425 0,2.10846 1.75456,3.59734 7,5.94003 15.01926,6.70779 35.02998,22.92705 39.7843,32.24628 2.27942,4.46805 2.36065,5.25876 0.60925,5.93084 -1.13716,0.43636 -3.80639,-0.72699 -6.10416,-2.66044 -3.54091,-2.97948 -13.21528,-8.01556 -30.62272,-15.94092 -4.46305,-2.03197 -4.72128,-2.00587 -5.91827,0.59822 -0.80409,1.7493 -0.6849,6.64239 0.33334,13.68484 0.8717,6.02908 1.58418,13.33083 1.58328,16.2261 -9e-4,2.89527 0.98633,12.251424 2.19385,20.791434 l 2.19549,15.5273 10.80615,-0.60426 c 5.94339,-0.33235 20.58955,-1.46964 32.54703,-2.5273 11.95746,-1.05767 26.95746,-1.9406 33.33333,-1.96207 6.37585,-0.0215 21.08539,-0.88617 32.68785,-1.92155 11.60246,-1.03539 21.95246,-1.55363 23,-1.15165 1.04754,0.40198 1.90462,1.85525 1.90462,3.22949 0,2.87337 -2.25042,3.53149 -14.66667,4.28918 -9.29052,0.56695 -12.74709,1.77824 -19.86384,6.96094 -2.49179,1.81461 -5.96569,3.29929 -7.71979,3.29929 -1.7541,0 -5.69829,1.28 -8.76486,2.84446 -7.34931,3.74933 -12.11794,5.09137 -20.98484,5.90578 -6.89654,0.63344 -22.90454,2.90404 -42.66667,6.05191 -17.09615,2.7232 -16,2.19203 -16,7.75329 0,4.95535 2.77629,25.21102 5.22361,38.11123 0.69562,3.66667 1.63954,9.50268 2.0976,12.96892 0.45808,3.46624 1.30364,6.59321 1.87904,6.94883 1.90274,1.17596 13.48563,-13.69076 18.87406,-24.22499 2.91445,-5.69768 6.84266,-15.45943 8.72937,-21.69276 1.88669,-6.23333 4.00268,-11.92832 4.70219,-12.65552 1.85565,-1.92911 3.77988,1.75761 3.82172,7.32219 0.0193,2.56666 0.40818,6.92398 0.86418,9.68294 0.6555,3.96595 1.19855,4.70966 2.59359,3.55188 2.36343,-1.96146 4.54797,-0.42248 4.54797,3.204 0,5.97618 -5.66546,23.12575 -11.07509,33.52468 -4.06617,7.81644 -8.62977,13.79752 -16.92053,22.17618 l -11.35267,11.47301 0.85213,5.86032 c 0.46867,3.22318 1.87516,13.06032 3.12554,21.86032 1.25038,8.8 2.82029,19.64915 3.48869,24.10922 0.6684,4.46008 1.21527,15.41008 1.21527,24.33333 0,13.53255 -0.3318,16.22412 -2,16.22412 -1.4016,0 -2,-1.414 -2,-4.72597 z m -53.5594,-94.69083 c 16.34368,-4.34864 21.83684,-6.90142 20.98537,-9.7523 -5.98343,-20.03348 -17.14357,-70.46378 -16.00221,-72.31054 0.9248,-1.49636 -0.88878,-1.48732 -12.99395,0.0648 -5.36973,0.6885 -14.86315,1.58497 -21.09648,1.99216 -6.23333,0.40718 -15.23333,1.11029 -20,1.56246 l -8.66667,0.82214 -10.5154,26.60105 -10.5154,26.60105 4.44362,4.58466 c 2.444,2.52156 5.22593,4.58465 6.18207,4.58465 0.95615,0 1.73845,0.48444 1.73845,1.07653 0,0.5921 4.95,3.72458 11,6.96107 8.04432,4.30339 14.22437,6.48685 23,8.12613 16.27906,3.0409 17.73096,2.99999 32.4406,-0.91386 z m -91.2021,-57.91654 c 1.960518,-6.96666 3.90144,-13.80212 4.31316,-15.18989 0.69779,-2.35203 0.10186,-2.47696 -8.782474,-1.84129 -5.242081,0.37506 -9.869434,1.02032 -10.283008,1.43389 -0.413573,0.41357 -0.03145,3.04216 0.84915,5.84129 1.775944,5.64511 9.570449,23.32448 10.040188,22.773 0.164122,-0.19268 1.902466,-6.05033 3.862984,-13.017 z m 12.26313,-50.08102 c 3.66373,-0.56654 4.3791,-1.40763 5.90977,-6.94843 2.69075,-9.74018 13.97867,-37.937504 22.16752,-55.374674 4.06484,-8.6556 7.08318,-16.04488 6.70744,-16.42063 -0.9406,-0.9406 -16.21065,6.8859 -20.53497,10.52497 -25.175381,21.18595 -33.827276,33.07669 -39.117464,53.761134 -4.28967,16.77245 -4.654226,16.1436 9.03274,15.58139 6.416664,-0.26358 13.542394,-0.76927 15.834964,-1.12376 z m 63.62919,-4.03672 15.7975,-0.82834 -0.74754,-4.19362 c -0.41113,-2.3065 -1.37938,-11.09363 -2.15165,-19.52696 -0.77227,-8.433344 -2.03723,-18.633344 -2.81103,-22.666674 -0.77378,-4.03333 -1.86221,-11.53333 -2.41873,-16.66667 l -1.01184,-9.33333 -8.08511,16.66667 c -7.40072,15.25588 -27.03576,57.386704 -27.03576,58.010524 0,0.14558 2.85,0.0626 6.33334,-0.18429 3.48333,-0.24693 13.4422,-0.82173 22.13082,-1.27731 z m 208.20251,139.07661 -25.33333,-24.2922 -0.3641,23.66667 -0.3641,23.66667 h -8.6359 -8.6359 v -44.30206 -44.30205 l 10.33333,10.01689 c 5.68333,5.50928 17.23333,16.5952 25.66667,24.63539 l 15.33333,14.61849 0.36409,-23.66667 0.36411,-23.66666 h 8.63589 8.63591 v 44 c 0,24.2 -0.15,43.98149 -0.33333,43.95887 -0.18334,-0.0227 -11.73334,-10.97263 -25.66667,-24.33334 z m 264.18181,20.85932 c -5.83438,-5.8344 -3.51404,-14.61277 4.53804,-17.1684 6.72754,-2.13524 14.7656,5.90283 12.63036,12.63036 -2.55562,8.05208 -11.334,10.37243 -17.1684,4.53804 z M 265.67118,264.23412 c 6.7416,-14.85001 15.52144,-34.32137 19.51076,-43.2697 3.98934,-8.94833 7.6123,-15.84833 8.05104,-15.33333 0.62378,0.73217 35.21007,76.85143 38.13816,83.93636 0.51247,1.23999 -1.69508,1.66667 -8.62298,1.66667 h -9.31179 l -2.86792,-6.66667 -2.86793,-6.66667 h -14.60714 -14.60714 l -3.37826,6.66667 -3.37825,6.66667 h -9.158 -9.158 z m 34.10347,-1.54803 c 0,-1.7902 -5.86489,-15.45198 -6.63341,-15.45198 -0.5115,0 -2.48331,3.6 -4.38182,8 l -3.45182,8.00001 h 7.23353 c 3.97844,0 7.23352,-0.24662 7.23352,-0.54803 z m 147.33333,27.37564 c -11.92524,-3.15068 -22.9893,-12.52525 -28.5152,-24.16095 -4.7385,-9.97769 -4.91481,-25.44556 -0.40272,-35.33333 3.98388,-8.73026 13.64322,-18.42874 22.12874,-22.21842 10.11045,-4.51537 24.20877,-4.30354 34.52584,0.51876 4.25514,1.98891 9.16913,4.743 10.91997,6.1202 l 3.18332,2.50402 -6.42892,6.33225 c -4.37616,4.31036 -6.74468,5.82136 -7.4178,4.73221 -0.54389,-0.88001 -3.46485,-2.72437 -6.49105,-4.09857 -13.27835,-6.02973 -28.20002,-0.47415 -34.31546,12.77621 -7.88437,17.08315 4.79006,36.53973 23.8664,36.63739 5.33324,0.0273 15.15871,-3.74405 16.83947,-6.46358 0.40709,-0.6587 3.5978,1.58273 7.09047,4.98094 l 6.35028,6.17859 -3.55755,3.02671 c -8.62143,7.33497 -26.71324,11.39032 -37.77579,8.46757 z m 54.5632,-25.82761 c 6.7416,-14.85001 15.52144,-34.32137 19.51076,-43.2697 3.98934,-8.94833 7.6123,-15.84833 8.05104,-15.33333 0.62378,0.73217 35.21007,76.85143 38.13816,83.93636 0.51247,1.23999 -1.69508,1.66667 -8.62298,1.66667 h -9.31179 l -2.86792,-6.66667 -2.86793,-6.66667 h -14.60714 -14.60714 l -3.37826,6.66667 -3.37825,6.66667 h -9.158 -9.158 z m 34.10347,-1.54803 c 0,-1.7902 -5.86489,-15.45198 -6.63341,-15.45198 -0.5115,0 -2.48331,3.6 -4.38182,8 l -3.45182,8.00001 h 7.23353 c 3.97844,0 7.23352,-0.24662 7.23352,-0.54803 z m 38.66667,-14.78531 v -43.33333 h 16.8453 c 9.26492,0 19.13116,0.68485 21.92499,1.5219 11.52447,3.45282 21.20365,16.75702 21.20365,29.14476 0,6.86756 -4.67052,17.84814 -9.46414,22.25058 -5.81007,5.33593 -14.51415,8.35537 -24.17647,8.38681 l -9,0.0293 v 12.66667 12.66667 h -8.66667 -8.66666 z m 37.77061,-2.05777 c 6.40397,-5.03736 5.89555,-17.22315 -0.91771,-21.99534 -1.72041,-1.20502 -5.96901,-1.94689 -11.14958,-1.94689 h -8.36999 v 13.33333 13.33334 h 8.48685 c 6.52792,0 9.28632,-0.62886 11.95043,-2.72444 z m 74.89605,42.87105 c -6.45464,-2.97901 -10.5168,-7.20004 -13.26969,-13.78865 -3.5242,-8.43459 -3.10647,-9.02463 6.389,-9.02463 7.69712,0 8.58691,0.29467 9.95467,3.29655 2.92949,6.42955 14.02826,5.41129 15.74906,-1.44488 1.43976,-5.73644 -0.58721,-8.16795 -9.76613,-11.71525 -12.06393,-4.66226 -18.46017,-9.39513 -21.67668,-16.03955 -6.21107,-12.83035 -0.19052,-27.60655 13.59515,-33.36656 12.77996,-5.33982 27.25488,0.45068 33.17124,13.26969 4.24517,9.19805 3.75224,10 -6.14662,10 -4.88889,0 -8.66666,-0.5812 -8.66666,-1.33333 0,-2.5316 -5.34338,-6.66667 -8.61472,-6.66667 -4.02674,0 -8.71862,4.77128 -8.71862,8.86615 0,4.28794 4.68738,8.12729 13.19756,10.80989 4.77514,1.50524 9.59934,4.40048 13.85736,8.31653 5.5926,5.14344 6.63207,6.89555 7.22748,12.18266 2.26995,20.15637 -18.03146,35.0614 -36.2824,26.63805 z m 69.99138,1.35423 c -9.43179,-3.09468 -17.40458,-9.86617 -22.17544,-18.83417 -2.17511,-4.08866 -2.53487,-8.50632 -2.90459,-35.66667 l -0.422,-31 h 8.75533 8.75532 v 28.06621 c 0,31.14315 0.59871,33.8989 8.39807,38.65443 7.848,4.78521 18.81109,2.16144 23.56776,-5.6404 2.47559,-4.06045 2.69127,-6.68047 2.69585,-32.74691 l 0.005,-28.33333 h 8 8 v 30.70949 c 0,33.9467 -0.54677,36.88034 -8.40091,45.07402 -2.34617,2.44758 -6.6481,5.6773 -9.55988,7.17714 -5.7472,2.96035 -19.21509,4.3446 -24.7145,2.54019 z"
     id="path33"
     inkscape:connector-curvature="0" />
</svg>
