<svg viewBox="0 0 512 512" xmlns="http://www.w3.org/2000/svg">
  <path d="m 350.90135,510.4953 c -0.36877,-1.00096 -0.67046,-3.80866 -0.67046,-6.23937 0,-5.83524 -2.83565,-19.92713 -5.50556,-27.36017 -1.17431,-3.2693 -3.86196,-8.08621 -5.97255,-10.70425 -4.23391,-5.25186 -7.74571,-12.44986 -7.78211,-15.95069 -0.0338,-3.24772 -6.80743,-17.52215 -11.91124,-25.10102 -3.89007,-5.77654 -4.57513,-7.81909 -6.38654,-19.04218 -1.11597,-6.91436 -2.48185,-13.04323 -3.03528,-13.61968 -0.62741,-0.65355 -3.15785,0.0302 -6.72161,1.81646 -22.55935,11.30684 -73.68184,12.98804 -102.92553,3.38476 -20.0499,-6.58415 -40.69589,-17.92762 -51.94769,-28.54147 -3.11872,-2.94191 -5.88838,-5.34892 -6.1548,-5.34892 -0.82444,0 -8.47627,12.32243 -14.40594,23.19917 -6.77119,12.42034 -10.27745,16.97382 -13.07012,16.97382 -3.33968,0 -3.53429,-2.97696 -0.64091,-9.80391 3.39086,-8.00074 3.67779,-9.48144 6.02274,-31.0802 l 1.92183,-17.7015 -9.58814,-15.06487 C 96.722307,306.10673 86.565622,281.54318 83.092962,260.09256 l -1.368528,-8.4534 -19.213171,-0.742 C 33.515204,249.77737 3.8993233,245.25864 0.9021941,241.49699 0.1883859,240.6011 -0.17884456,239.64227 0.0861277,239.36627 0.3511,239.09028 5.6021041,236.18034 11.755026,232.89975 c 6.152922,-3.28058 11.335576,-6.7676 11.51701,-7.74893 0.193437,-1.04625 -0.88144,-2.39909 -2.598747,-3.27078 -4.371906,-2.21914 -4.236873,-3.9045 0.515159,-6.42973 8.580345,-4.55959 22.685094,-7.95776 37.643766,-9.06928 22.887815,-1.70068 20.700901,-0.43614 23.522999,-13.60195 4.018714,-18.74835 9.47639,-35.23988 16.712277,-50.49974 22.502,-47.454719 60.20978,-78.33953 113.06605,-92.60747 16.5651,-4.471556 16.6967,-4.573657 27.87526,-21.626805 11.98379,-18.2815393 14.37969,-20.9894743 21.86192,-24.7090643 3.69084,-1.8348 6.94961,-3.3360020358315 7.24172,-3.3360020358315 0.29209,0 0.84291,1.7314240358315 1.22405,3.8476030358315 0.38113,2.11618 2.36639,5.933947 4.4117,8.4839133 2.04529,2.549977 3.99681,5.965719 4.33667,7.590543 1.35161,6.461583 1.52807,6.500022 5.8788,1.280667 3.5117,-4.212805 4.48884,-4.823072 6.06866,-3.790109 1.03566,0.677151 2.18862,2.434573 2.56212,3.905385 0.92185,3.630035 6.25325,20.104485 9.58775,29.626848 0.54506,1.556526 4.92134,4.617339 12.42831,8.692485 6.37287,3.459498 16.15792,9.659734 21.74456,13.778307 20.01391,14.754595 39.33742,38.216459 34.2507,41.585879 -2.04502,1.3546 -2.98029,0.93383 -13.7967,-6.20695 -9.93954,-6.56191 -42.22005,-22.868997 -45.27003,-22.868997 -4.0363,0 -5.0855,7.771172 -3.01322,22.318317 0.56829,3.9894 1.54677,14.28373 2.17438,22.87629 0.62761,8.59255 2.32236,24.74782 3.76612,35.90058 1.44376,11.15277 2.62502,20.44858 2.62502,20.65736 0,0.58514 24.4863,-1.02733 54.10158,-3.56272 14.73063,-1.26111 38.11217,-2.77642 51.95896,-3.36736 21.80151,-0.93042 48.68303,-2.70927 76.91017,-5.08943 8.86204,-0.74726 10.93796,0.24187 10.93796,5.21169 0,2.71397 -0.57393,3.32779 -4.01745,4.29661 -2.20959,0.62165 -9.32046,1.63572 -15.80195,2.25349 -15.16619,1.44555 -17.57833,2.22193 -27.80725,8.94995 -4.67527,3.07516 -10.21419,5.88537 -12.30867,6.2449 -4.95876,0.85121 -7.41369,1.75086 -17.76776,6.51123 -9.05711,4.16409 -14.94396,5.38679 -46.56989,9.67245 -28.05037,3.80115 -61.01165,9.64441 -62.71644,11.11815 -2.00845,1.73626 -1.98413,7.28366 0.10521,24.00027 2.09381,16.75201 9.73281,65.13092 10.69699,67.74557 1.23874,3.35912 3.44453,2.18095 9.04822,-4.8329 13.85478,-17.34123 22.93701,-35.0875 31.65025,-61.84311 5.92985,-18.20871 6.50513,-19.52854 8.51192,-19.52854 2.44557,0 2.93754,1.82954 4.38437,16.30479 0.75722,7.57573 1.67027,14.26873 2.029,14.87335 0.42153,0.71045 1.57483,0.66142 3.26056,-0.13863 7.33568,-3.48149 7.54093,6.52922 0.57861,28.21982 -8.95277,27.89165 -15.26365,38.67878 -36.32894,62.09666 l -15.09711,16.78317 5.76873,42.24309 c 4.32199,31.6489 5.94035,47.14067 6.45304,61.77163 0.79047,22.55755 -0.11467,33.82542 -2.75966,34.35476 -0.957,0.19152 -2.04171,-0.47074 -2.41047,-1.47171 z M 269.34632,363.19618 c 22.3371,-5.95437 33.74654,-10.86512 33.74654,-14.52488 0,-0.9676 -1.20014,-6.12213 -2.66696,-11.45454 -6.12655,-22.27197 -19.22634,-84.04356 -20.15982,-95.0629 l -0.42539,-5.02162 -4.71153,0.33384 c -2.59134,0.18362 -10.97873,1.03579 -18.63866,1.89373 -7.65993,0.85794 -24.29215,2.38196 -36.96049,3.38671 -12.66835,1.00474 -24.70017,2.17926 -26.7374,2.61002 l -3.70406,0.78321 -14.7762,38.9598 c -8.1269,21.42787 -14.77619,39.50656 -14.77619,40.17485 0,1.61927 9.32174,11.01267 13.48653,13.59019 1.81996,1.12635 5.43565,3.51592 8.0349,5.3102 17.46331,12.05503 34.04999,18.16479 60.43445,22.26125 5.96182,0.92563 17.07871,-0.36742 27.85428,-3.23986 z M 139.51265,279.81605 c 7.97809,-28.41493 8.29458,-29.89861 6.5284,-30.60455 -1.62756,-0.65056 -16.19446,0.31615 -22.78518,1.5121 -3.52714,0.64003 -3.59409,0.75559 -3.09722,5.34731 0.52343,4.83714 13.35842,37.41512 14.74072,37.41512 0.42633,0 2.5023,-6.15149 4.61328,-13.66998 z m 14.43789,-80.04098 c 4.29321,-0.51465 8.48437,-1.52231 9.31367,-2.23922 0.8293,-0.71691 2.56568,-4.65507 3.85862,-8.75145 6.84857,-21.69811 16.49789,-46.71665 32.24132,-83.59453 5.30237,-12.420404 9.47185,-23.110071 9.26552,-23.754812 -0.52973,-1.655364 -20.46975,8.771097 -28.23945,14.766164 -9.40893,7.259878 -31.56195,29.855878 -38.39744,39.165238 -10.12932,13.7953 -17.07189,30.77588 -21.62559,52.89333 -2.69496,13.08948 -2.19778,13.48408 16.13562,12.80707 5.30302,-0.19584 13.1545,-0.77715 17.44773,-1.29179 z m 93.26267,-6.11573 c 13.7527,-0.85322 25.19228,-1.74646 25.42129,-1.985 0.93809,-0.97715 -8.21883,-79.60367 -12.05569,-103.516939 -0.59399,-3.702086 -1.09948,-2.887585 -9.69584,15.622829 -10.08419,21.71414 -38.57436,85.07267 -40.0177,88.99433 -0.8928,2.4258 -0.71643,2.50956 5.20947,2.47346 3.37346,-0.0205 17.38577,-0.73546 31.13847,-1.58868 z" />
</svg>
