<?xml version="1.0" encoding="UTF-8" standalone="no"?>
<!-- Created with Inkscape (http://www.inkscape.org/) -->

<svg
   xmlns:dc="http://purl.org/dc/elements/1.1/"
   xmlns:cc="http://creativecommons.org/ns#"
   xmlns:rdf="http://www.w3.org/1999/02/22-rdf-syntax-ns#"
   xmlns:svg="http://www.w3.org/2000/svg"
   xmlns="http://www.w3.org/2000/svg"
   xmlns:sodipodi="http://sodipodi.sourceforge.net/DTD/sodipodi-0.dtd"
   xmlns:inkscape="http://www.inkscape.org/namespaces/inkscape"
   version="1.1"
   id="svg2"
   width="512"
   height="512"
   viewBox="0 0 512 512"
   sodipodi:docname="logov3.svg"
   inkscape:version="0.92.4 5da689c313, 2019-01-14">
  <metadata
     id="metadata8">
    <rdf:RDF>
      <cc:Work
         rdf:about="">
        <dc:format>image/svg+xml</dc:format>
        <dc:type
           rdf:resource="http://purl.org/dc/dcmitype/StillImage" />
        <dc:title></dc:title>
      </cc:Work>
    </rdf:RDF>
  </metadata>
  <defs
     id="defs6" />
  <sodipodi:namedview
     pagecolor="#ffffff"
     bordercolor="#666666"
     borderopacity="1"
     objecttolerance="10"
     gridtolerance="10"
     guidetolerance="10"
     inkscape:pageopacity="0"
     inkscape:pageshadow="2"
     inkscape:window-width="1366"
     inkscape:window-height="712"
     id="namedview4"
     showgrid="false"
     inkscape:zoom="0.69625996"
     inkscape:cx="194.46572"
     inkscape:cy="169.47693"
     inkscape:window-x="0"
     inkscape:window-y="0"
     inkscape:window-maximized="1"
     inkscape:current-layer="svg2" />
  <g
     id="g12"
     transform="translate(2.64824,-13.801535)">
    <path
       style="fill:#f4c613;stroke-width:1.05563235"
       d="m 346.90805,510.38203 c -0.36336,-0.94689 -0.66688,-3.22662 -0.67452,-5.06608 -0.0268,-6.45965 -3.97527,-22.41623 -7.22745,-29.20746 -1.80724,-3.77388 -4.91932,-8.87057 -6.91573,-11.32598 -2.37931,-2.92633 -4.04456,-6.462 -4.83359,-10.26275 -1.29757,-6.2504 -6.60279,-17.11914 -12.22067,-25.03632 -1.92306,-2.71017 -4.01865,-6.86672 -4.65684,-9.23678 -0.6382,-2.37007 -1.37362,-4.30921 -1.63428,-4.30921 -0.26067,0 -4.95973,1.1655 -10.44236,2.59001 -16.2999,4.23507 -26.22852,5.09706 -51.72655,4.49081 -25.03562,-0.59526 -33.10889,-1.8513 -49.17281,-7.65031 -18.58388,-6.7087 -38.37223,-17.75768 -47.69289,-26.6297 -2.34381,-2.23099 -4.51523,-3.45502 -5.47548,-3.08653 -0.87523,0.33585 -5.73329,7.64381 -10.79569,16.23991 -12.3141,20.90966 -15.70248,24.34426 -19.50113,19.76716 -1.37557,-1.65746 -1.28925,-2.14102 1.63113,-9.13748 0.57151,-1.36918 0.0704,-2.09677 -1.9814,-2.87687 -3.27483,-1.24508 -3.41216,-3.2221 -0.64703,-9.31449 2.74881,-6.05644 5.00111,-17.52321 5.89549,-30.0147 l 0.73449,-10.25851 -8.51133,-12.99389 C 106.37818,339.91622 100.63999,330.12328 98.307875,325.30076 93.110952,314.55419 86.120593,293.85058 83.632481,281.8361 L 81.781725,272.89927 60.156153,272.2194 C 36.309433,271.4697 23.451738,269.99336 5.0142536,265.88794 0.47085336,264.87629 0,264.4898 0,261.77214 c 0,-1.64963 0.49435767,-3.30484 1.0985726,-3.67827 0.6042149,-0.37343 0.8170974,-1.56581 0.4730722,-2.64973 -0.5132188,-1.61701 0.8362705,-2.69858 7.5177643,-6.0252 l 8.1432649,-4.05443 0.199781,-5.67795 c 0.249459,-7.08988 1.838385,-8.53325 13.422102,-12.19254 9.391583,-2.96681 16.542716,-4.157 34.541646,-5.74894 7.113744,-0.62917 12.585547,-1.61823 13.299029,-2.40386 0.66674,-0.73416 2.769346,-7.51029 4.672454,-15.05806 6.62487,-26.27438 13.941293,-43.50227 26.293774,-61.91365 23.08642,-34.41028 57.38721,-57.557245 102.46942,-69.148731 6.12444,-1.574711 12.17023,-3.520744 13.43506,-4.324517 1.26484,-0.803773 6.96526,-8.14957 12.66759,-16.323992 5.70234,-8.174422 12.03922,-16.268577 14.08197,-17.987011 4.96822,-4.179455 13.0437,-7.118605 19.56167,-7.119656 5.09926,-8.23e-4 5.38596,0.153875 6.62245,3.573356 1.50119,4.15144 9.23137,13.315902 11.23191,13.315902 0.75046,0 1.95585,-0.712552 2.67863,-1.583449 1.6017,-1.929932 5.67024,-2.071481 7.18205,-0.24987 0.60872,0.733468 1.69708,3.702434 2.41857,6.597702 0.7215,2.895268 2.60191,8.155039 4.17868,11.688379 1.57678,3.53334 3.21413,8.046169 3.63856,10.028508 1.09666,5.122123 1.93811,5.870948 12.61032,11.22232 27.89813,13.988976 56.69208,39.615499 58.34316,51.925229 0.68451,5.10345 -1.20598,5.99639 -6.73131,3.1794 -3.36135,-1.7137 -4.54298,-1.85759 -6.97673,-0.8495 -2.67091,1.10634 -3.58987,0.77486 -10.39255,-3.74862 -7.75254,-5.15509 -36.06438,-19.594 -38.41995,-19.594 -3.00826,0 -2.89154,2.22076 3.19031,60.69886 2.31079,22.21868 3.57242,28.91029 5.64322,29.93147 0.95424,0.47057 15.03595,-0.212 31.29269,-1.51681 16.25674,-1.3048 40.24598,-2.89177 53.30943,-3.52658 13.06345,-0.63482 38.82684,-2.18043 57.25198,-3.4347 32.4338,-2.2079 33.56796,-2.21921 35.62759,-0.35528 1.66094,1.50314 2.12734,3.25063 2.12734,7.97075 v 6.04553 l -9.97177,1.79546 c -7.53001,1.35581 -11.47198,2.7123 -16.09839,5.53972 -3.36964,2.05933 -7.70622,4.70072 -9.63684,5.86973 -1.93062,1.16902 -5.65341,2.52589 -8.27288,3.01526 -2.61947,0.48937 -8.87794,2.72482 -13.90772,4.96767 -11.45432,5.10763 -19.41605,7.0782 -36.81137,9.111 -23.75651,2.77616 -67.39785,9.34573 -74.44816,11.20709 -5.99181,1.5819 -6.32304,3.0419 -4.53763,20.00068 1.54332,14.65917 7.58691,52.7393 8.51786,53.67025 1.89438,1.89437 15.40678,-18.51269 21.64657,-32.69164 2.40227,-5.4588 6.43646,-15.96442 8.96487,-23.34583 5.33064,-15.56221 6.3546,-17.72042 8.4074,-17.72042 2.27579,0 3.52755,3.16487 4.32315,10.93038 0.39531,3.85845 1.06364,7.01537 1.48519,7.01537 0.42153,0 1.58612,-2.14632 2.58797,-4.76961 4.64651,-12.16672 9.9796,-8.53966 10.11733,6.88087 0.0676,7.56749 1.50111,14.82975 3.12544,15.83363 0.7099,0.43875 2.11739,0.58154 3.12776,0.31733 1.01038,-0.26423 2.6781,0.36064 3.70604,1.3886 2.83846,2.83845 1.62633,12.299 -3.56318,27.81037 -5.23615,15.65074 -11.86492,29.99553 -18.11209,39.1949 -2.50131,3.68334 -11.37339,13.70026 -19.71575,22.25981 -14.45888,14.83535 -15.13933,15.72521 -14.5567,19.03658 0.33617,1.91056 2.9923,20.09996 5.90255,40.42088 4.0929,28.57906 5.43894,41.32605 5.94308,56.28117 l 0.65176,19.33402 -4.61322,-0.33264 c -4.22695,-0.30481 -4.66957,-0.61039 -5.28619,-3.64971 -1.43721,-7.08405 -2.25502,-7.54456 -3.50682,-1.97468 -1.21347,5.39934 -3.96218,7.5934 -5.26373,4.20159 z M 265.30023,370.99902 c 16.65249,-4.20377 29.89278,-8.88177 32.25496,-11.39619 l 2.14886,-2.28736 -4.17433,-15.8173 C 291.9466,327.92105 283.193,289.74938 278.46706,267.09329 l -1.43129,-6.86161 -7.35557,0.2519 c -4.04556,0.13854 -10.20577,0.73282 -13.68936,1.32062 -3.48359,0.5878 -18.67105,2.02842 -33.74993,3.20138 -15.07887,1.17297 -27.74938,2.47882 -28.15668,2.90191 -0.40729,0.42308 -7.22014,17.15704 -15.13967,37.18658 l -14.39914,36.41733 3.66089,3.16888 c 7.86383,6.80696 26.79256,17.59242 38.73953,22.07349 8.56738,3.21347 28.60205,6.81754 38.29738,6.88939 6.69204,0.0496 12.33109,-0.69381 20.05701,-2.64414 z m -127.6422,-76.7232 c 4.70043,-15.71459 5.90797,-20.15526 5.90797,-21.72622 0,-1.3005 -1.56353,-1.43895 -9.71556,-0.8603 -5.34356,0.3793 -10.20534,1.17942 -10.80397,1.77804 -0.74747,0.74748 -0.32121,3.28674 1.36078,8.10613 3.42344,9.80922 8.71503,21.41132 9.76546,21.41132 0.4842,0 2.05259,-3.91904 3.48532,-8.70897 z m 21.61726,-79.02305 c 1.71755,-0.59875 3.44351,-1.88675 3.83547,-2.86222 0.39195,-0.97547 2.60664,-7.23649 4.9215,-13.91337 5.62528,-16.22518 17.97773,-46.53713 27.80175,-68.22329 4.40021,-9.71332 7.85972,-18.53015 7.6878,-19.59297 -0.27305,-1.68801 -1.40316,-1.31518 -8.93604,2.94809 -14.0072,7.92743 -38.23824,30.20511 -49.86129,45.84177 -3.24986,4.37207 -8.14873,12.68518 -10.8864,18.47357 -5.29901,11.20396 -12.1571,34.96319 -10.9786,38.03433 0.64457,1.67972 2.09577,1.77445 16.99887,1.1096 8.96177,-0.3998 17.6994,-1.21678 19.41694,-1.81551 z m 103.57716,-6.06236 c 6.02748,-0.60182 6.83678,-0.94173 6.6574,-2.79617 -2.09371,-21.64409 -6.14808,-56.09301 -7.73185,-65.69547 -1.12677,-6.83163 -2.05852,-12.77741 -2.07056,-13.21286 -0.012,-0.43545 -0.53126,-0.79173 -1.15383,-0.79173 -0.62257,0 -4.95222,7.95683 -9.62147,17.68185 -13.40049,27.91033 -30.41625,64.83093 -30.41625,65.99683 0,1.06849 29.73475,0.27547 44.33656,-1.18245 z"
       id="path16"
       inkscape:connector-curvature="0" />
    <path
       style="fill:#060502;stroke-width:1.05563235"
       d="m 347.85056,510.97625 c -0.34799,-0.56305 -1.06961,-4.8545 -1.60361,-9.53655 -1.95636,-17.15323 -5.54086,-26.70268 -13.9562,-37.18066 -1.57988,-1.96713 -3.6408,-6.63746 -4.57982,-10.37851 -1.79879,-7.16648 -8.33659,-20.39567 -12.55974,-25.4146 -3.13149,-3.72156 -4.39771,-7.68212 -5.7987,-18.1375 -1.12199,-8.37327 -2.49685,-12.33673 -4.27938,-12.33673 -0.54229,0 -2.82375,0.9579 -5.06992,2.12866 -16.17946,8.43322 -57.60824,11.64225 -86.76546,6.72079 -22.61102,-3.81652 -50.58257,-16.78029 -67.15549,-31.12404 l -5.04735,-4.36845 -2.38549,2.77329 c -1.31202,1.52532 -5.09011,7.40124 -8.39576,13.05761 -11.20791,19.17812 -12.83239,21.36846 -15.84812,21.36846 -2.42157,0 -2.68568,-0.34495 -2.22266,-2.90299 0.289,-1.59664 1.53502,-5.63543 2.76894,-8.97507 1.2339,-3.33965 2.92873,-11.89027 3.76627,-19.00138 0.83754,-7.11112 1.83672,-15.56057 2.2204,-18.77656 0.62192,-5.21291 0.41708,-6.18636 -1.88814,-8.97288 -1.42216,-1.71909 -4.9677,-6.68837 -7.87899,-11.04285 C 96.218055,316.51025 88.47035,297.749 82.617444,269.73237 l -0.882121,-4.22253 -22.372497,-1.23337 c -21.295007,-1.17397 -41.195564,-3.44928 -50.3899512,-5.76128 -4.927087,-1.23897 -9.13193007,-4.07378 -7.1478732,-4.81896 5.1354659,-1.92878 20.9097824,-10.78147 21.8377754,-12.25555 0.932555,-1.48134 0.563684,-2.28163 -1.99126,-4.32024 -4.238655,-3.38204 -2.741238,-5.02774 7.70148,-8.46413 11.953778,-3.93365 17.028013,-4.84552 33.403096,-6.00279 9.375692,-0.66261 15.314539,-1.54503 16.179577,-2.40405 0.751681,-0.74643 3.200369,-8.44449 5.441528,-17.10679 4.975424,-19.23049 8.296461,-28.53669 14.8659,-41.65718 22.677562,-45.29161 64.100782,-76.639062 116.337972,-88.03997 9.84545,-2.148794 11.34917,-3.47018 22.77385,-20.012408 10.59174,-15.336175 14.40703,-19.453662 20.78282,-22.429003 6.19463,-2.890802 7.91724,-3.077535 7.91724,-0.858241 0,1.890333 3.18459,7.907831 6.90398,13.045552 1.42819,1.972804 2.59671,4.466735 2.59671,5.54207 0,3.060903 3.23247,2.320222 6.44002,-1.47565 2.41432,-2.857154 3.22146,-3.23678 4.82722,-2.270408 1.06049,0.638219 2.49587,3.413495 3.18974,6.16728 0.69387,2.753785 2.71277,8.49279 4.48644,12.753345 1.77367,4.260556 3.22486,8.646752 3.22486,9.747103 0,2.933922 3.64331,5.813991 13.71484,10.841691 25.52863,12.743887 54.88036,39.115129 54.89731,49.322839 0.006,3.57709 -3.39177,3.01531 -10.35256,-1.71167 -6.31031,-4.28524 -34.68229,-18.83594 -43.52018,-22.31951 -4.64072,-1.8292 -5.31424,-1.86939 -6.77913,-0.4045 -1.91198,1.91198 -2.16932,12.74039 -0.56618,23.82354 0.56016,3.87265 1.51506,13.61086 2.12197,21.64047 1.40604,18.60215 5.59724,48.60839 6.98306,49.99422 1.04298,1.04297 16.65415,0.12149 62.6733,-3.69944 10.16046,-0.84361 30.82446,-2.04622 45.92,-2.67248 15.09554,-0.62625 35.52203,-1.82493 45.39219,-2.66375 19.08333,-1.6218 32.0141,-1.96086 34.74953,-0.91117 2.44628,0.93872 2.07346,5.40272 -0.56934,6.8171 -1.23152,0.65909 -7.52572,1.65287 -13.98712,2.20842 -15.13996,1.30171 -20.34735,2.84596 -31.15893,9.24012 -4.87003,2.88023 -10.80796,5.56309 -13.19541,5.96191 -2.38744,0.39881 -8.37859,2.52725 -13.31368,4.72986 -11.4032,5.08943 -14.40645,5.85086 -31.14115,7.89531 -35.26217,4.30792 -75.37368,10.83897 -78.3807,12.76213 -2.02935,1.29788 -2.37517,2.43891 -2.37517,7.8367 0,11.47038 10.51693,78.46714 12.6528,80.603 1.64734,1.64734 3.84559,-0.0278 10.57111,-8.0553 12.44956,-14.85976 21.41632,-32.12249 29.74951,-57.27356 2.30841,-6.96717 4.91913,-13.7913 5.80161,-15.16471 2.84037,-4.42055 4.7358,-0.75346 5.73564,11.09675 1.3247,15.70035 1.59509,16.50593 5.3549,15.95411 7.53002,-1.10517 7.45234,6.9801 -0.2826,29.41225 -8.55464,24.80942 -15.88721,36.36602 -36.51763,57.55422 -7.15458,7.34801 -13.00833,14.03921 -13.00833,14.86934 0,0.83013 2.43197,18.09787 5.40437,38.37278 4.9021,33.43728 5.45321,39.09241 5.92974,60.84562 0.28896,13.19019 0.21063,25.65984 -0.17404,27.71035 -0.68614,3.65745 -1.96891,4.73379 -3.22312,2.70444 z M 269.49864,370.61287 c 14.78879,-3.90636 25.76568,-7.90243 28.49689,-10.37414 2.50197,-2.26426 2.45714,-2.55394 -4.85763,-31.39095 -6.57527,-25.92169 -12.77871,-54.22522 -14.62032,-66.70607 -0.66903,-4.5341 -1.78176,-8.86648 -2.47272,-9.62751 -1.03526,-1.14021 -3.6859,-1.10121 -15.06413,0.22164 -7.59429,0.88293 -26.78736,2.62737 -42.65126,3.87653 -15.86391,1.24916 -29.41809,2.73554 -30.1204,3.30306 -1.46562,1.18432 -29.86422,72.39404 -29.86422,74.88477 0,1.72234 11.78713,13.57678 13.4997,13.57678 0.54386,0 2.75658,1.40482 4.91716,3.12183 6.43324,5.1125 26.03552,14.58355 36.07921,17.43206 23.59181,6.69091 36.26996,7.0673 56.65772,1.682 z M 137.66243,296.38708 c 6.62961,-22.12703 8.86513,-30.71182 8.34826,-32.05879 -1.05625,-2.75253 -24.95244,-1.15747 -26.77225,1.78704 -1.18888,1.92366 -0.49367,4.79657 3.81788,15.7773 5.42645,13.82017 9.86892,23.20342 10.98556,23.20342 0.55616,0 2.1854,-3.91903 3.62055,-8.70897 z m 6.9592,-78.92819 c 10.60858,-0.79665 14.88811,-1.53913 16.74356,-2.90493 1.78728,-1.31562 4.05499,-6.31371 8.01477,-17.66473 6.6251,-18.99143 14.2623,-37.74514 27.59052,-67.7506 5.4634,-12.29961 9.93346,-22.86913 9.93346,-23.48782 0,-1.9115 -3.41527,-1.25544 -10.21814,1.96287 -10.46798,4.95221 -18.02939,10.22823 -30.53109,21.30325 -27.24423,24.13516 -37.55862,40.24798 -45.32621,70.80719 -3.06527,12.05939 -3.17855,14.30727 -0.85062,16.8796 2.05387,2.26951 4.62274,2.35865 24.64375,0.85517 z m 97.87563,-6.43838 c 14.06065,-0.71072 26.09294,-1.61863 26.73844,-2.01756 0.84781,-0.52399 0.53361,-6.70121 -1.13182,-22.25176 -3.39519,-31.70181 -9.97077,-77.48563 -11.11693,-77.40399 -0.54787,0.039 -2.61108,3.36427 -4.58492,7.38943 -7.32983,14.9473 -26.99923,56.49524 -35.64872,75.30125 -9.50808,20.67281 -9.6719,21.81157 -2.98776,20.76889 1.74179,-0.27171 14.67106,-1.07552 28.73171,-1.78626 z"
       id="path14"
       inkscape:connector-curvature="0" />
  </g>
</svg>
