<svg xmlns="http://www.w3.org/2000/svg" viewBox="0 0 512 512">
  <defs id="defs6" />
  <sodipodi:namedview fit-margin-bottom="0" fit-margin-right="0" fit-margin-left="0" fit-margin-top="0" inkscape:document-rotation="0" pagecolor="#ffffff" bordercolor="#666666" borderopacity="1" objecttolerance="10" gridtolerance="10" guidetolerance="10" inkscape:pageopacity="0" inkscape:pageshadow="2" inkscape:window-width="1336" inkscape:window-height="738" id="namedview4" showgrid="false" inkscape:zoom="0.51567944" inkscape:cx="250.11358" inkscape:cy="290.04354" inkscape:window-x="30" inkscape:window-y="0" inkscape:window-maximized="1" inkscape:current-layer="g10" />
  <g transform="translate(-0.00828101,-0.06399999)" inkscape:groupmode="layer" inkscape:label="Image" id="g10">
    <g id="g841" transform="matrix(0.44599947,0,0,0.44604307,0.00827856,0.04043537)">
      <path style="fill:#fdc000" d="m 539.5,1147.4918 c -0.55,-0.1926 -6.7361,-0.6523 -13.7469,-1.0215 -7.01079,-0.3692 -12.51675,-1.0437 -12.23548,-1.4988 0.70078,-1.1339 -1.46977,-1.6513 -12.51762,-2.9839 -21.14466,-2.5505 -64.57979,-10.9572 -80,-15.4836 -4.675,-1.3723 -10.525,-2.6877 -13,-2.923 -5.46976,-0.52 -7.87872,-1.3453 -10.5,-3.5971 -1.1,-0.945 -10.325,-4.5402 -20.5,-7.9893 -19.49254,-6.6077 -24.86431,-8.8426 -42.23565,-17.5719 -5.90461,-2.9672 -13.50372,-6.5197 -16.88692,-7.8944 -5.92267,-2.4066 -20.28019,-10.3165 -33.87743,-18.6638 -3.575,-2.1947 -8.525,-4.9966 -11,-6.2265 -2.475,-1.2299 -7.30316,-4.0755 -10.72925,-6.3235 -3.42609,-2.248 -7.38199,-4.3766 -8.7909,-4.7302 -1.4089,-0.3536 -2.33138,-1.0155 -2.04995,-1.4709 0.28144,-0.4553 -5.88766,-5.5742 -13.7091,-11.3751 -7.82144,-5.801 -19.31706,-14.7527 -25.54582,-19.8927 -6.22875,-5.1401 -12.97875,-10.3378 -15,-11.5505 -2.02124,-1.2127 -4.57498,-3.4949 -5.67498,-5.0715 -2.80226,-4.01662 -14.17288,-14.40872 -19.22946,-17.57467 -2.40579,-1.50628 -5.07425,-4.30401 -6.1887,-6.4885 -1.07758,-2.11223 -6.4115,-8.07492 -11.85317,-13.25043 -5.44166,-5.1755 -10.45251,-10.45507 -11.13522,-11.73237 -0.6827,-1.27731 -5.62509,-7.57731 -10.98308,-14 C 126.75237,931.75493 117.98828,920.65 112.6346,913.5 107.28093,906.35 102.01508,899.375 100.93273,898 98.021259,894.30132 90,881.92175 90,881.12701 90,880.74911 86.881465,875.27844 83.069922,868.96996 71.035504,849.05181 64.126073,836.57983 61.164235,829.42873 59.585879,825.61793 56.436627,818.9 54.165897,814.5 48.097173,802.74061 42.316544,789.80221 40.680891,784.31739 37.728376,774.41675 29.829395,753.46404 28.68602,752.5 c -0.652311,-0.55 -1.271431,-2.24255 -1.375821,-3.76123 -0.104391,-1.51868 -0.917771,-3.4892 -1.807511,-4.37894 -0.88974,-0.88974 -1.402214,-2.17928 -1.138831,-2.86564 C 24.955898,739.95135 23.665661,733.95887 20.489548,723.5 16.622856,710.76708 7.0596823,659.22429 5.4609249,642.5 5.0928845,638.65 4.2013722,634.56096 3.4797865,633.41324 1.4014933,630.10761 0,604.99573 0,571.06261 0,545.65592 0.2457472,540 1.3496576,540 c 1.0082693,0 1.516509,-2.71915 2.0092945,-10.75 0.6139276,-10.00508 2.1803211,-24.26299 4.6416449,-42.25 1.7180026,-12.55493 4.906577,-29.60481 8.97669,-48 2.129625,-9.625 3.882551,-18.175 3.895392,-19 0.05362,-3.44539 2.362442,-10.97272 3.205742,-10.45153 1.153827,0.7131 1.951244,-1.25567 6.50017,-16.04847 2.029561,-6.6 5.356782,-16.5 7.393824,-22 5.164478,-13.94406 5.976665,-16.32105 7.497233,-21.94182 0.851187,-3.14641 2.280312,-5.62905 3.933623,-6.83341 C 50.831472,341.6844 52,340.26833 52,339.57794 c 0,-0.69039 2.303302,-5.94035 5.118448,-11.66659 5.684911,-11.56358 10.520781,-22.7096 12.005403,-27.67081 0.536458,-1.7927 2.108507,-4.00191 3.493442,-4.90935 1.384934,-0.90744 4.111693,-4.84069 6.059464,-8.74054 1.947771,-3.89986 4.630121,-8.53991 5.960778,-10.31124 C 87.88773,271.95287 94,260.33623 94,258.48564 94,257.66854 94.490368,257 95.089707,257 c 1.517378,0 4.217864,-3.26422 9.927583,-12 2.69611,-4.125 6.27813,-9.40414 7.96005,-11.73142 1.68192,-2.32728 3.4743,-5.32628 3.98306,-6.66443 0.50877,-1.33816 1.78807,-2.70693 2.84289,-3.04172 1.05482,-0.33478 4.74287,-4.44762 8.19566,-9.13963 6.61362,-8.98729 15.06754,-18.32138 36.47843,-40.27635 14.4198,-14.78623 43.2228,-41.63946 48.58719,-45.29816 C 220.34118,123.88538 224,120.70961 224,119.35656 c 0,-0.77333 1.16395,-1.8486 2.58656,-2.38947 1.42261,-0.54087 5.29752,-3.06944 8.61091,-5.61904 3.31339,-2.5496 8.14649,-5.65938 10.74021,-6.91064 C 251.67607,101.66912 257,97.325059 257,95.411106 257,94.634998 257.69083,94 258.53518,94 c 0.84435,0 2.53185,-0.644602 3.75,-1.43245 1.21815,-0.787847 4.9834,-2.925347 8.36722,-4.75 15.67868,-8.454399 25.36848,-14.465448 25.90085,-16.06755 0.31984,-0.9625 1.18298,-1.75 1.9181,-1.75 0.73512,0 5.09229,-1.742796 9.68261,-3.87288 4.59032,-2.130084 14.53347,-6.742584 22.09589,-10.25 7.56242,-3.507416 13.74992,-6.909296 13.75,-7.559732 1.4e-4,-1.109686 2.58687,-2.364516 6.00015,-2.910688 0.825,-0.132011 6.45,-2.022434 12.5,-4.20094 17.46651,-6.289401 25.26795,-8.979302 36.5,-12.585034 5.84365,-1.875937 10.38913,-3.869621 10.25,-4.495726 -0.22607,-1.017315 1.85429,-1.619862 4.13625,-1.198004 0.48744,0.09011 5.66244,-1.013457 11.5,-2.452372 23.67123,-5.83478 27.15747,-6.612035 40.38351,-9.003478 C 486.717,7.593202 524.58386,3 535.10681,3 538.95299,3 540,2.6529754 540,1.3781891 c 0,-1.47907831 3.54233,-1.5676517 40.25,-1.0064226 41.90195,0.6406452 55.07767,1.2890415 54.22512,2.6684981 -0.69277,1.1209217 1.49716,1.6413087 12.52488,2.9762528 21.85975,2.6461984 59.73796,9.8873536 76.788,14.6795186 6.7584,1.899547 14.1834,3.610615 16.5,3.802372 5.17848,0.428651 8.87068,1.782938 10.62554,3.897416 C 751.64578,29.278121 752.647,30 753.13847,30 c 0.49147,0 6.39887,1.965677 13.12756,4.368171 6.72868,2.402494 14.70897,5.147426 17.73397,6.099848 6.25413,1.969117 13.80075,5.353035 29.23565,13.109329 5.90461,2.967163 13.50372,6.51961 16.88692,7.894325 5.92267,2.406597 20.28019,10.31648 33.87743,18.663846 3.575,2.194697 8.525,4.996627 11,6.22651 2.475,1.229883 7.30316,4.075433 10.72925,6.323445 3.42609,2.248012 7.38199,4.376614 8.7909,4.730227 1.4089,0.353613 2.33138,1.015508 2.04995,1.470878 -0.28144,0.45537 5.88766,5.574181 13.7091,11.375121 7.82144,5.80095 19.31706,14.75269 25.54582,19.89274 6.22875,5.14006 12.97875,10.33776 15,11.55044 2.02124,1.21269 4.57498,3.49489 5.67498,5.07156 2.80226,4.01658 14.17288,14.40868 19.22946,17.57463 2.40579,1.50628 5.07425,4.30401 6.1887,6.4885 1.07758,2.11223 6.4115,8.07492 11.85317,13.25043 5.44166,5.1755 10.45247,10.45507 11.13517,11.73237 0.6828,1.27731 5.6251,7.57731 10.9831,14 5.358,6.4227 14.1221,17.52763 19.4758,24.67763 5.3537,7.15 10.6108,14.125 11.6826,15.5 2.8257,3.62526 10.952,16.18591 10.952,16.92831 0,0.34747 3.1185,5.79325 6.9301,12.10173 11.5584,19.13037 19.3346,33.05935 20.7505,37.16905 0.7389,2.14466 4.0137,9.16472 7.2773,15.60014 7.8889,15.55577 12.6364,26.1 14.3722,31.92041 2.9437,9.87064 10.8426,30.81811 11.9839,31.78036 0.6523,0.55 1.2714,2.24255 1.3758,3.76123 0.1044,1.51868 0.9178,3.4892 1.8075,4.37894 0.8898,0.88974 1.4022,2.17928 1.1388,2.86564 -0.592,1.54284 0.6982,7.53532 3.8744,17.99419 3.8666,12.73292 13.4298,64.27571 15.0286,81 0.368,3.85 1.2595,7.93904 1.9811,9.08676 4.6292,7.36295 4.6124,110.14652 -0.019,119.0744 -1.0095,1.94567 -1.0729,3.05118 -0.2506,4.36782 0.854,1.36754 0.7252,2.13852 -0.5747,3.43834 -0.9215,0.92155 -1.676,3.10589 -1.6766,4.85411 0,7.53231 -10.7643,64.80926 -14.501,77.17857 -3.1738,10.50553 -4.4512,16.45802 -3.8618,17.99419 0.2634,0.68636 -0.249,1.9759 -1.1388,2.86564 -0.8897,0.88974 -1.7031,2.86026 -1.8075,4.37894 -0.1044,1.51868 -0.7235,3.21123 -1.3758,3.76123 -1.1413,0.96225 -9.0402,21.90972 -11.9839,31.78036 -1.7358,5.82041 -6.4833,16.36464 -14.3722,31.92041 -3.2636,6.43542 -6.5384,13.45548 -7.2773,15.60014 -1.4159,4.1097 -9.1921,18.03868 -20.7505,37.16905 -3.8116,6.30848 -6.9301,11.75426 -6.9301,12.10173 0,0.7424 -8.1263,13.30305 -10.952,16.92831 -1.0718,1.375 -6.3278,8.35 -11.6801,15.5 -5.3523,7.15 -14.0797,18.18624 -19.3941,24.52498 -5.3144,6.33873 -10.2579,12.63873 -10.9856,14 -0.7276,1.36126 -5.77521,6.70952 -11.21687,11.88502 -5.44167,5.17551 -10.77559,11.1382 -11.85317,13.25043 -1.11445,2.18449 -3.78291,4.98222 -6.1887,6.4885 -5.05658,3.16595 -16.4272,13.55805 -19.22946,17.57467 -1.1,1.5766 -3.65374,3.8588 -5.67498,5.0715 -2.02125,1.2127 -8.77125,6.4104 -15,11.5505 -6.22876,5.14 -17.72438,14.0917 -25.54582,19.8927 -7.82144,5.8009 -13.99054,10.9198 -13.7091,11.3751 0.28143,0.4554 -0.64105,1.1173 -2.04995,1.4709 -1.40891,0.3536 -5.36481,2.4822 -8.7909,4.7302 -3.42609,2.248 -8.25425,5.0936 -10.72925,6.3235 -2.475,1.2299 -7.425,4.0318 -11,6.2265 -13.59724,8.3473 -27.95476,16.2572 -33.87743,18.6638 -3.3832,1.3747 -10.98231,4.9272 -16.88692,7.8944 -17.38793,8.7377 -22.75133,10.9676 -42.23565,17.5604 -10.175,3.4428 -18.98667,6.8624 -19.5815,7.599 -1.51956,1.8818 -6.13674,3.5018 -11.41768,4.0061 -2.47455,0.2363 -9.89955,1.9461 -16.5,3.7996 -16.31742,4.582 -57.86216,12.5769 -73.8251,14.2068 -3.77685,0.3856 -7.47414,1.3467 -8.27956,2.1521 -0.8916,0.8916 -2.38012,1.2232 -3.84296,0.856 -1.31322,-0.3296 -2.53742,-0.2123 -2.72044,0.2606 -0.61274,1.5832 -33.06857,3.1375 -63.85235,3.0578 -16.76423,-0.043 -30.93041,-0.2366 -31.48041,-0.4293 z m 92.5,-37.337 c 47.94684,-5.9261 84.16638,-14.4738 127.39452,-30.0647 47.24124,-17.0383 97.3166,-44.2262 138.10548,-74.9831 14.01383,-10.56719 29.03263,-22.69097 35.42414,-28.59584 12.57141,-11.61425 45.28557,-45.01601 46.62368,-47.60364 0.79868,-1.54446 2.08564,-3.16798 2.85992,-3.60782 3.33152,-1.89249 25.75056,-31.07038 38.64816,-50.2997 36.7262,-54.75587 63.8603,-117.26799 78.5625,-180.99378 13.8008,-59.81887 17.1938,-127.00558 9.4438,-187.00622 -10.8289,-83.83726 -40.8381,-163.6343 -88.0003,-234 -12.2291,-18.2458 -36.50133,-50 -38.21888,-50 -0.44986,0 -1.9093,-1.72884 -3.24319,-3.84187 C 977.3785,215.63932 945.7612,183.35478 932.92015,171.49334 920.89394,160.38457 894.8755,140.33503 875.5,127.24596 842.80966,105.16208 799.34317,82.533294 766.33814,70.415956 717.97904,52.661583 682.70209,44.10893 632,37.846598 c -19.75094,-2.439485 -88.32057,-3.926031 -90.28919,-1.957412 -0.61094,0.610948 -3.15831,1.115632 -5.66081,1.12152 -16.93961,0.03986 -66.1906,7.57604 -92.43349,14.143789 C 419.58765,57.168143 379.06215,70.70673 364,77.752445 c -3.575,1.672299 -11.225,5.14845 -17,7.724779 -42.94724,19.159516 -96.81491,54.671396 -132.5,87.349686 -11.70789,10.72139 -38.10236,37.28433 -45,45.28723 -38.67332,44.87021 -65.82945,87.67033 -89.573987,141.17535 C 75.566706,369.11258 72,377.46254 72,377.84495 c 0,0.3824 -2.702706,8.07227 -6.006013,17.08859 -6.486854,17.70575 -13.352374,40.84152 -17.471989,58.87798 -4.374694,19.15325 -9.907152,57.16967 -11.12833,76.4686 -0.375173,5.92907 -1.067229,11.01813 -1.537901,11.30902 -1.461372,0.90318 -0.981514,58.46414 0.632833,75.91086 3.813799,41.21685 9.190197,70.05863 19.852666,106.5 16.039568,54.81881 38.324247,102.60628 69.949334,150 12.58236,18.85606 37.0788,51 38.86638,51 0.44986,0 1.9093,1.72884 3.24319,3.84187 2.22133,3.51881 33.83863,35.80335 46.67968,47.66479 12.02621,11.10877 38.04465,31.15834 57.42015,44.24734 47.11269,31.8269 97.99729,55.459 154.37728,71.6968 35.83052,10.3194 61.54451,14.9081 111.62272,19.9194 2.2,0.2201 20.425,0.2706 40.5,0.1121 29.34622,-0.2316 39.7339,-0.6878 53,-2.3275 z m -82.5,-81.7353 c -2.2,-0.2116 -10.3,-0.8737 -18,-1.4713 -39.06551,-3.0322 -88.85545,-15.1043 -128.40656,-31.13349 C 296.39914,952.57386 208.11588,868.27829 160.52214,764.20017 139.55849,718.3568 125.66919,666.69971 120.80928,616.5 c -1.62332,-16.76773 -1.62332,-68.23227 0,-85 7.48005,-77.26398 34.67284,-152.1926 78.02692,-215 46.70865,-67.66719 111.70394,-122.47703 184.96363,-155.97786 85.34473,-39.02718 180.9686,-50.92146 272.9863,-33.95571 125.15784,23.07596 234.75965,97.6615 303.15132,206.29863 26.01094,41.31724 45.61225,88.44197 57.09115,137.25644 14.1519,60.18174 15.6921,125.44651 4.405,186.66463 -12.6714,68.72633 -41.49797,134.51113 -83.33105,190.16907 -24.51154,32.61202 -58.29581,66.35821 -91.60255,91.49928 -21.50377,16.23179 -50.28708,33.78234 -74,45.12131 C 761.70208,988.7391 740.50699,998 739.48781,998 c -0.15381,0 -0.57904,-3.7125 -0.94497,-8.25 -2.69869,-33.46372 -7.17841,-73.40325 -14.59201,-130.0969 -2.722,-20.81579 -4.74572,-38.17596 -4.49715,-38.57816 0.24858,-0.4022 4.62671,-3.10973 9.72919,-6.01674 23.09821,-13.15963 39.678,-28.75038 57.48753,-54.0582 9.46323,-13.44751 13.47253,-20.46397 12.75775,-22.32665 -0.35317,-0.92034 -0.93148,-1.67718 -1.28514,-1.68186 -0.35365,-0.005 -10.30089,-0.91633 -22.10497,-2.02588 l -21.46197,-2.01738 -14.53803,14.38097 c -13.24565,13.10255 -26.57349,24.46869 -27.54849,23.49368 -0.21348,-0.21348 -1.79499,-10.94846 -3.51447,-23.85551 C 707.2556,734.06032 704.55131,717.875 702.96555,711 692.84372,667.11736 680.46183,573.8661 683.78769,566.56661 686.18917,561.29596 714.2587,555.29269 787,544.49245 c 68.73945,-10.20606 75.99725,-12.05217 125.00619,-31.79689 28.26094,-11.38577 49.98441,-18.51388 67.49381,-22.14673 19.27612,-3.9994 25.4035,-7.38936 19.28003,-10.66656 -3.80549,-2.03663 -45.35585,-0.25099 -142.28003,6.11454 -137.9038,9.05687 -164.34378,10.21938 -171.8162,7.55438 -9.4114,-3.35653 -12.8749,-11.23135 -16.20985,-36.85574 -4.28848,-32.95095 -11.52698,-114.97575 -10.2583,-116.24444 0.84163,-0.84162 20.83877,11.29247 32.28435,19.58987 12.04985,8.73547 31.5,24.83136 31.5,26.0677 0,0.48878 1.76829,4.8268 3.92953,9.64005 3.37811,7.52331 4.21148,10.8801 5.9387,23.92104 2.26416,17.09497 3.58872,20.51673 10.572,27.31087 3.79419,3.69142 4.90947,4.28961 6.33252,3.39649 2.01566,-1.26506 2.85203,-10.19932 1.45599,-15.55328 -0.49069,-1.88186 -0.48743,-5.27592 0.008,-7.82375 0.4808,-2.475 1.64994,-9.76977 2.5981,-16.21061 l 1.72392,-11.71061 7.58156,3.29584 c 8.97699,3.90245 22.51046,12.27167 23.34013,14.43374 0.32212,0.83945 0.85202,4.07445 1.17754,7.1889 0.57455,5.49694 0.49609,5.73758 -2.68139,8.22433 -4.37834,3.42657 -3.56882,6.29856 1.54161,5.46925 2.97242,-0.48236 3.48228,-0.28147 3.48228,1.37203 0,4.64327 7.53289,0.83768 13.00552,-6.57035 3.42022,-4.62977 4.66631,-5.57631 8.05422,-6.11806 5.83126,-0.93246 11.6262,-5.48475 12.85393,-10.09757 2.83927,-10.66768 2.74072,-11.23608 -3.28312,-18.9348 -3.05499,-3.90442 -6.24664,-7.36453 -7.09254,-7.68913 -0.93141,-0.35723 -1.5385,-1.82622 -1.5385,-3.72158 0,-4.42846 -5.15837,-9.30699 -11.98416,-11.33403 C 796.05748,373.71881 793.00239,373 792.22677,373 c -0.77563,0 -8.91492,-7.3125 -18.08731,-16.25 -9.17238,-8.9375 -18.46861,-17.15 -20.65826,-18.25 -2.18966,-1.1 -8.26331,-6.05 -13.497,-11 -25.34722,-23.9733 -58.0615,-45.73893 -88.90546,-59.15105 l -7.42125,-3.22704 -6.11298,-15.31095 c -3.36214,-8.42103 -6.46163,-15.87346 -6.88776,-16.56096 -1.19967,-1.93549 -4.72337,-1.48918 -9.8689,1.25 -2.58293,1.375 -5.30722,2.5 -6.05399,2.5 -1.82708,0 -3.86523,-2.93127 -14.1311,-20.32345 -4.81231,-8.1529 -9.61661,-15.6904 -10.67621,-16.75 C 588.74856,198.74856 586.62158,198 584.45238,198 c -4.81453,0 -9.41196,4.76169 -26.63993,27.59175 l -13.65235,18.09175 -17.33005,0.62481 c -39.7597,1.4335 -62.01419,6.37193 -97.91515,21.72809 -19.33761,8.27141 -24.81224,11.13373 -36.4149,19.03897 -76.78317,52.31468 -126.95633,134.93786 -138.37979,227.87835 l -1.66499,13.54628 -13.24911,1.19351 c -14.23683,1.2825 -25.96008,3.23383 -38.70611,6.44264 -18.92172,4.76353 -23.50288,9.59177 -16.00044,16.86342 l 3.49956,3.39191 -2.74956,2.91514 c -1.51226,1.60333 -6.66908,5.56476 -11.45961,8.80319 -21.14366,14.29325 -18.47208,16.49678 27.13735,22.38297 C 214.87718,590.2931 225.06125,591 237.04813,591 h 16.69354 l 0.67906,6.25 c 1.08462,9.98277 6.1794,34.21788 9.93305,47.25 8.90086,30.90255 23.6248,62.82012 40.95854,88.78716 11.7592,17.61603 19.3342,27.14558 31.21598,39.27059 l 8.46883,8.64218 -1.93664,9.65003 c -4.50529,22.44939 -5.07947,33.49453 -1.84652,35.52035 2.83512,1.77654 6.57139,-1.93234 15.55271,-15.43867 4.54667,-6.8374 8.51728,-12.36585 8.82358,-12.28544 0.30629,0.0804 4.68629,3.05095 9.73332,6.60119 38.63041,27.17388 85.48091,45.43246 135.18251,52.68334 32.72375,4.77401 66.21634,4.77541 98.98782,0.004 19.43513,-2.8296 26.01295,-4.36462 41.28254,-9.63386 7.30205,-2.5198 13.45356,-4.40434 13.67002,-4.18788 0.94801,0.94801 17.12568,36.5891 33.75925,74.37518 9.92943,22.55642 22.20541,50.09403 27.27996,61.19467 l 9.22645,20.18299 -9.60606,3.44017 c -30.77096,11.0196 -73.88816,20.5716 -107.10607,23.7278 -11.57929,1.1001 -61.06008,2.1011 -68.5,1.3856 z M 809.47652,723.04675 c 4.21078,-8.38416 4.86686,-12.03491 2.16649,-12.05544 C 811.01436,710.98653 804.875,710.31544 798,709.5 c -21.00167,-2.491 -19.62681,-2.81699 -28.41933,6.73839 -8.61945,9.36729 -9.74564,12.70719 -4.33067,12.84331 1.7875,0.0449 9.55,0.65593 17.25,1.35778 7.7,0.70185 15.90798,1.34009 18.23996,1.41831 L 804.97993,732 Z M 821.68363,698 c 3.13868,-6.40822 4.04447,-10.43197 2.55551,-11.3522 -0.41847,-0.25863 -6.15597,-1.21819 -12.75,-2.13235 l -11.98914,-1.6621 -7.25,7.55338 c -4.93901,5.14569 -7.25,8.32802 -7.25,9.98356 0,2.33904 0.32812,2.45447 8.75,3.07811 4.8125,0.35637 9.425,0.80371 10.25,0.9941 0.825,0.19038 4.425,0.2767 8,0.19182 L 818.5,704.5 Z m 9.26668,-21.38407 c 3.31116,-7.72464 9.1004,-23.61946 9.70652,-26.65006 0.43274,-2.16374 0.15915,-3.09925 -1.04108,-3.55983 -1.16229,-0.44601 -5.91779,3.44487 -16.62192,13.59981 -17.18728,16.30548 -18.30064,18.42611 -10.24383,19.51153 2.6125,0.35196 5.2,0.79401 5.75,0.98233 0.55,0.18832 3.15349,0.37792 5.78554,0.42134 4.72428,0.0779 4.80959,0.0228 6.66477,-4.30512 z M 568,803.86716 c -53.22301,-5.4293 -110.95739,-27.53898 -158.20592,-60.58578 l -10.70593,-7.48799 5.8186,-11.6467 c 3.20023,-6.40568 8.11675,-18.46221 10.9256,-26.79228 9.14433,-27.11887 26.71781,-70.47486 36.3949,-89.79076 9.36695,-18.69687 12.1883,-20.73417 31.78669,-22.95331 34.6238,-3.92046 104.40137,-8.37283 120.69732,-7.70144 2.74837,0.11323 2.65966,-0.17396 14.23724,46.0911 10.70142,42.76381 21.68848,90.16505 26.42389,114 3.36044,16.9142 8.47301,59.48793 7.28627,60.67467 -1.27151,1.27151 -16.85985,4.37713 -29.15866,5.80919 -13.97594,1.62735 -41.44495,1.81706 -55.5,0.3833 z M 359.83364,698.25659 C 355.3575,693.42382 346.38569,680.71764 342.70612,674 331.47733,653.5001 318.97006,616.61599 316.47458,596.64285 L 315.76955,591 h 37.61523 C 388.91811,591 391,591.0995 391,592.79715 c 0,2.43058 -10.12382,40.18664 -14.86105,55.42323 -2.09983,6.75379 -5.76432,21.05462 -8.1433,31.77962 -2.37899,10.725 -4.6142,19.84047 -4.96714,20.25659 -0.35293,0.41613 -1.79062,-0.48387 -3.19487,-2 z M 315.44525,517.89021 c 7.0989,-46.62595 24.88012,-88.90739 53.30445,-126.75109 9.70945,-12.92701 17.01384,-20.45499 28.7503,-29.63038 20.49132,-16.0198 43.74993,-28.26351 70,-36.84912 10.03195,-3.28115 29.14894,-7.88829 31.00631,-7.47243 0.9742,0.21812 -1.29739,5.00477 -7.50425,15.81281 -4.89575,8.525 -10.78147,20.45 -13.07937,26.5 -8.67516,22.84034 -43.0288,108.65145 -49.68188,124.09915 -6.5909,15.30334 -12.06837,25.12485 -15.99297,28.67656 -0.97922,0.88618 -4.69807,2.07176 -8.26412,2.63463 -8.40314,1.32636 -36.90756,3.79527 -58.48372,5.06555 -9.35,0.55048 -20.08771,1.29419 -23.86159,1.6527 l -6.86158,0.65182 z m 178.90253,-8.42629 c -0.3242,-0.84485 0.4278,-4.32597 1.6711,-7.73584 5.3297,-14.61721 29.8301,-66.91279 56.79517,-121.22808 21.22147,-42.74606 25.11551,-49.97044 26.2976,-48.78835 0.47179,0.47179 1.75519,6.24217 2.85202,12.82307 4.65545,27.93266 17.42698,155.40797 15.73914,157.0958 -0.99602,0.99603 -25.43458,3.5015 -61.92296,6.34843 C 514.48376,509.64053 496.58214,511 495.99846,511 c -0.58368,0 -1.32648,-0.69124 -1.65068,-1.53608 z M 787.17677,389.73526 c -2.38829,-1.26986 -7.0437,-7.76063 -5.52497,-7.70316 2.42057,0.0916 11.89269,5.70871 12.17152,7.2179 0.39036,2.11281 -3.10548,2.36804 -6.64655,0.48526 z" id="path847" />
      <path style="fill:#edb302" d="m 501,1144.2768 c -21.67376,-2.4962 -90.71376,-17.5587 -93.5,-20.3989 -1.20942,-1.2329 1.6153,-0.6663 13.5,2.7079 16.39873,4.6558 59.67471,12.9715 80.5,15.4686 11.23193,1.3467 15.91746,2.9604 8,2.7552 -2.75,-0.071 -6.575,-0.3111 -8.5,-0.5328 z m 140,-0.1976 c 0,-1.2034 2.03514,-1.7547 9.5,-2.5734 15.98439,-1.7532 56.84326,-9.6092 73,-14.036 15.93335,-4.3655 18.23651,-4.8523 17,-3.5927 -1.0144,1.0334 -38.61831,10.7108 -52.67175,13.5552 -6.91129,1.3989 -31.71717,5.4747 -42.57825,6.996 -2.42017,0.339 -4.25,0.1887 -4.25,-0.3491 z m -262,-29.4311 c -38.53025,-13.7969 -78.58885,-33.3757 -112.5,-54.9848 -12.15192,-7.7435 -13.41059,-8.6633 -11.85504,-8.6633 0.57473,0 3.92723,1.8904 7.45,4.2009 3.52277,2.3105 8.43004,5.2072 10.90504,6.4371 2.475,1.2299 7.425,4.0318 11,6.2265 13.59724,8.3473 27.95476,16.2572 33.87743,18.6638 3.3832,1.3747 10.98231,4.9272 16.88692,7.8944 17.38188,8.7346 22.74834,10.9664 42.23565,17.5646 10.175,3.4451 19.15893,6.8824 19.96429,7.6383 2.28587,2.1456 0.70362,1.7072 -17.96429,-4.9775 z m 372.22292,5.1831 c 0.2154,-0.6461 9.28377,-4.2292 20.15195,-7.9624 20.57703,-7.068 24.11093,-8.5413 41.86078,-17.4517 5.90461,-2.9641 13.50372,-6.5141 16.88692,-7.8888 5.92267,-2.4066 20.28019,-10.3165 33.87743,-18.6638 3.575,-2.1947 8.525,-4.9966 11,-6.2265 2.475,-1.2299 7.38227,-4.1266 10.90504,-6.4371 3.52277,-2.3105 6.87527,-4.2009 7.45,-4.2009 1.55555,0 0.29688,0.9198 -11.85504,8.6633 -24.50427,15.6148 -60.75567,34.4771 -86.94169,45.2375 -18.45682,7.5842 -43.79681,16.3147 -43.33539,14.9304 z M 538.5,1112.3702 c -50.07821,-5.0113 -75.7922,-9.6 -111.62272,-19.9194 C 353.58525,1071.3422 291.94992,1039.0507 230.5,989.56615 c -12.8361,-10.33668 -16.78291,-14.01064 -40.25743,-37.47428 -10.67942,-10.67448 -20.5085,-21.13698 -21.8424,-23.25 C 167.06628,926.72884 165.60684,925 165.15698,925 163.3694,925 138.87296,892.85606 126.2906,874 94.665513,826.60628 72.380834,778.81881 56.341266,724 45.678797,687.55863 40.302399,658.71685 36.4886,617.5 c -1.614347,-17.44672 -2.094205,-75.00768 -0.632833,-75.91086 0.470672,-0.29089 1.162728,-5.37995 1.537901,-11.30902 1.221178,-19.29893 6.753636,-57.31535 11.12833,-76.4686 4.119615,-18.03646 10.985135,-41.17223 17.471989,-58.87798 C 69.297294,385.91722 72,378.22735 72,377.84495 c 0,-0.38241 3.566706,-8.73237 7.926013,-18.55546 C 103.67055,305.78447 130.82668,262.98435 169.5,218.11414 c 6.89764,-8.0029 33.29211,-34.56584 45,-45.28723 35.68509,-32.67829 89.55276,-68.19017 132.5,-87.349686 5.775,-2.576329 13.425,-6.05248 17,-7.724779 15.06215,-7.045715 55.58765,-20.584302 79.61651,-26.59795 26.24289,-6.567749 75.49388,-14.103931 92.43349,-14.143789 2.5025,-0.0059 5.04987,-0.510572 5.66081,-1.12152 1.96862,-1.968619 70.53825,-0.482073 90.28919,1.957412 50.70209,6.262332 85.97904,14.814985 134.33814,32.569358 33.00503,12.117338 76.47152,34.746124 109.16186,56.830004 19.3755,13.08907 45.39394,33.13861 57.42015,44.24738 12.84105,11.86144 44.45835,44.14598 46.67968,47.66479 1.33389,2.11303 2.79333,3.84187 3.24319,3.84187 1.71755,0 25.98978,31.7542 38.21888,50 38.6813,57.71227 67.1599,125.10561 80.9226,191.5 11.7922,56.88839 14.325,119.97775 7.0858,176.5 -10.6616,83.24461 -41.0011,163.90682 -88.0144,234 -12.8976,19.22932 -35.31664,48.40721 -38.64816,50.2997 -0.77428,0.43984 -2.06124,2.06336 -2.85992,3.60782 -1.33811,2.58763 -34.05227,35.98939 -46.62368,47.60364 -11.71433,10.82242 -38.49023,31.45214 -57.42414,44.24284 -25.54929,17.2598 -60.43337,36.3706 -89,48.7576 -35.9471,15.5873 -83.16356,29.4679 -122.57159,36.0334 -33.80662,5.6323 -46.02307,6.6302 -84.92841,6.9373 -20.075,0.1585 -38.3,0.108 -40.5,-0.1121 z m 67.73565,-2.3305 c 2.34539,-0.5281 12.36435,-1.677 22.26435,-2.5531 84.276,-7.4578 169.62991,-37.9435 242.96031,-86.7777 62.39755,-41.55346 120.65095,-101.87415 159.54699,-165.2089 42.8255,-69.73325 69.5881,-149.16848 76.4786,-227 0.8765,-9.9 2.0257,-19.91896 2.5538,-22.26435 C 1110.5679,603.89026 1111,589.38421 1111,574 c 0,-15.38421 -0.4321,-29.89026 -0.9603,-32.23565 C 1109.5116,539.41896 1108.3624,529.4 1107.4859,519.5 1098.1483,414.02754 1053.952,310.28052 982.45475,226 969.29247,210.48438 934.30834,175.7306 919.32746,163.28837 857.86382,112.24033 791.75059,77.378101 717,56.598914 688.66803,48.723185 657.82395,43.118614 628.24125,40.47087 618.48356,39.597526 608.25,38.430368 605.5,37.877187 c -5.26708,-1.059511 -58.03664,-0.616157 -67,0.562913 -2.75,0.361744 -11.75,1.326333 -20,2.14353 -30.82709,3.053553 -69.67485,10.598434 -96.52205,18.746187 C 347.38784,81.966883 279.28331,119.46753 221.08614,169.9476 179.70757,205.83926 137.5898,256.85468 110.69697,303.6572 96.248245,328.80282 80.317925,361.99193 72.85351,382.5 65.85055,401.74024 61.813225,413.36824 60.527649,418 c -0.686952,2.475 -2.640114,9.225 -4.34036,15 -5.950959,20.21283 -12.918357,58.39058 -15.603659,85.5 -0.817197,8.25 -1.781786,17.25 -2.14353,20 -1.17907,8.96336 -1.622424,61.73292 -0.562913,67 0.553181,2.75 1.73134,13.1 2.618131,23 9.466314,105.68059 53.748398,209.62857 125.031682,293.5 13.23413,15.57118 48.21208,50.30878 63.14554,62.71163 57.06549,47.39517 117.72421,80.62787 185.67471,101.72417 34.34518,10.663 71.12035,18.0291 105.15275,21.0621 9.9,0.8824 19.575,1.9744 21.5,2.4268 4.97999,1.1704 60.11733,1.2676 65.23565,0.115 z M 534.5,1029.5519 C 413.87057,1018.8381 304.15719,962.2953 225.96998,870.54527 171.13053,806.19304 135.88909,729.78629 122.63255,646.5 118.37223,619.73388 117.5,607.41316 117.5,574 c 0,-33.43333 0.87454,-45.77273 5.13833,-72.5 C 135.71729,419.51558 169.2672,345.70286 222.86164,281 235.10757,266.21588 266.21588,235.10757 281,222.86164 c 67.89178,-56.23588 146.44934,-90.63795 233.5,-102.25475 30.78873,-4.10872 78.03956,-4.59647 109.3897,-1.12918 90.19208,9.97512 172.70032,45.06218 243.1103,103.38393 14.78412,12.24593 45.89243,43.35424 58.13836,58.13836 58.65701,70.81473 92.98634,151.84722 103.58224,244.5 2.4308,21.25624 2.4147,75.84897 -0.029,97.34085 -12.2813,108.02015 -58.69771,203.43642 -135.3175,278.16663 -74.14954,72.32088 -166.32647,115.94602 -269.4846,127.54072 -19.60711,2.2037 -69.56262,2.7647 -89.3897,1.0037 z m 83.5,-2.518 c 33.21791,-3.1562 76.33511,-12.7082 107.10607,-23.7278 l 9.60606,-3.44012 -9.22645,-20.18299 c -5.07455,-11.10064 -17.35053,-38.63825 -27.27996,-61.19467 -16.63357,-37.78608 -32.81124,-73.42717 -33.75925,-74.37518 -0.21646,-0.21646 -6.36797,1.66808 -13.67002,4.18788 -15.26959,5.26924 -21.84741,6.80426 -41.28254,9.63386 -68.02632,9.90408 -137.69524,-0.85429 -196.44518,-30.33534 -15.18345,-7.61913 -25.31171,-13.62013 -37.72515,-22.35215 -5.04703,-3.55024 -9.42703,-6.52078 -9.73332,-6.60119 -0.3063,-0.0804 -4.27691,5.44804 -8.82358,12.28544 -8.98132,13.50633 -12.71759,17.21521 -15.55271,15.43867 -3.23295,-2.02582 -2.65877,-13.07096 1.84652,-35.52035 l 1.93664,-9.65003 -8.46883,-8.64218 C 305.12915,740.51586 278.29654,692.90733 264.35378,644.5 c -3.75365,-13.03212 -8.84843,-37.26723 -9.93305,-47.25 L 253.74167,591 h -16.69354 c -23.50922,0 -65.15581,-5.41872 -73.0596,-9.50593 -5.78532,-2.99171 -3.70852,-6.25145 9.80142,-15.38426 4.79053,-3.23843 9.94735,-7.19986 11.45961,-8.80319 l 2.74956,-2.91514 -3.49956,-3.39191 c -7.50244,-7.27165 -2.92128,-12.09989 16.00044,-16.86342 12.74603,-3.20881 24.46928,-5.16014 38.70611,-6.44264 L 252.45522,526.5 254.12021,512.95372 C 265.54367,420.01323 315.71683,337.39005 392.5,285.07537 c 11.60266,-7.90524 17.07729,-10.76756 36.4149,-19.03897 35.90096,-15.35616 58.15545,-20.29459 97.91515,-21.72809 l 17.33005,-0.62481 13.65235,-18.09175 C 575.04042,202.76169 579.63785,198 584.45238,198 c 2.1692,0 4.29618,0.74856 5.47417,1.92655 1.0596,1.0596 5.8639,8.5971 10.67621,16.75 C 610.86863,234.06873 612.90678,237 614.73386,237 c 0.74677,0 3.47106,-1.125 6.05399,-2.5 5.14553,-2.73918 8.66923,-3.18549 9.8689,-1.25 0.42613,0.6875 3.52562,8.13993 6.88776,16.56096 l 6.11298,15.31095 7.42125,3.22704 c 30.84396,13.41212 63.55824,35.17775 88.90546,59.15105 5.23369,4.95 11.30734,9.9 13.497,11 2.18965,1.1 11.48588,9.3125 20.65826,18.25 9.17239,8.9375 17.31168,16.25 18.08731,16.25 0.77562,0 3.83071,0.71881 6.78907,1.59735 6.82579,2.02704 11.98416,6.90557 11.98416,11.33403 0,1.89536 0.60709,3.36435 1.53801,3.72158 0.8459,0.3246 4.03755,3.78471 7.09254,7.68913 6.02384,7.69872 6.12239,8.26712 3.28312,18.9348 -1.22773,4.61282 -7.02267,9.16511 -12.85393,10.09757 -3.38791,0.54175 -4.634,1.48829 -8.05422,6.11806 C 796.53289,439.90055 789,443.70614 789,439.06287 c 0,-1.6535 -0.50986,-1.85439 -3.48228,-1.37203 -5.11043,0.82931 -5.91995,-2.04268 -1.54161,-5.46925 3.17748,-2.48675 3.25594,-2.72739 2.68139,-8.22433 -0.32552,-3.11445 -0.85542,-6.34945 -1.17754,-7.1889 -0.82967,-2.16207 -14.36314,-10.53129 -23.34013,-14.43374 l -7.58156,-3.29584 -1.72392,11.71061 c -0.94816,6.44084 -2.1173,13.73561 -2.5981,16.21061 -0.49494,2.54783 -0.4982,5.94189 -0.008,7.82375 1.39604,5.35396 0.55967,14.28822 -1.45599,15.55328 -1.42305,0.89312 -2.53833,0.29493 -6.33252,-3.39649 -6.98328,-6.79414 -8.30784,-10.2159 -10.572,-27.31087 -1.72722,-13.04094 -2.56059,-16.39773 -5.9387,-23.92104 C 723.76829,390.93538 722,386.59736 722,386.10858 c 0,-1.23634 -19.45015,-17.33223 -31.5,-26.0677 -11.44558,-8.2974 -31.44272,-20.43149 -32.28435,-19.58987 -1.26868,1.26869 5.96982,83.29349 10.2583,116.24444 3.33495,25.62439 6.79845,33.49921 16.20985,36.85574 7.47242,2.665 33.9124,1.50249 171.8162,-7.55438 96.92418,-6.36553 138.47454,-8.15117 142.28003,-6.11454 6.12347,3.2772 -0.004,6.66716 -19.28003,10.66656 -17.5094,3.63285 -39.23287,10.76096 -67.49381,22.14673 -49.00894,19.74472 -56.26674,21.59083 -125.00619,31.79689 -72.7413,10.80024 -100.81083,16.80351 -103.21231,22.07416 -3.32586,7.29949 9.05603,100.55075 19.17786,144.43339 1.58576,6.875 4.29005,23.06032 6.00953,35.96737 1.71948,12.90705 3.30099,23.64203 3.51447,23.85551 0.975,0.97501 14.30284,-10.39113 27.54849,-23.49368 l 14.53803,-14.38097 21.46197,2.01738 c 11.80408,1.10955 21.75132,2.0212 22.10497,2.02588 0.35366,0.005 0.93197,0.76152 1.28514,1.68186 0.71478,1.86268 -3.29452,8.87914 -12.75775,22.32665 -8.99149,12.77714 -16.45295,21.57704 -26.29309,31.00956 -10.15958,9.73871 -17.99807,15.53034 -31.19444,23.04864 -5.10248,2.90701 -9.48061,5.61454 -9.72919,6.01674 -0.24857,0.4022 1.77515,17.76237 4.49715,38.57816 7.4136,56.69365 11.89332,96.63318 14.59201,130.0969 0.36593,4.5375 0.79116,8.25 0.94497,8.25 1.01918,0 22.21427,-9.2609 33.01219,-14.42421 62.55755,-29.91358 122.6818,-79.51554 165.60255,-136.62059 41.83308,-55.65794 70.65965,-121.44274 83.33105,-190.16907 7.4289,-40.29277 9.3821,-85.40771 5.5106,-127.28613 C 1020.7251,462.22878 996.35462,390.71213 959.93745,332.86506 891.54578,224.22793 781.94397,149.64239 656.78613,126.56643 616.49336,119.13745 571.37842,117.18429 529.5,121.05583 462.22878,127.27486 390.71213,151.64538 332.86506,188.06255 229.73354,252.9882 157.26353,354.848 130.48299,472.51952 c -4.17726,18.35452 -7.99281,41.61789 -9.67371,58.98048 -1.62332,16.76773 -1.62332,68.23227 0,85 6.81446,70.38887 30.43336,140.14813 67.25327,198.63494 51.36311,81.58801 126.68009,144.87314 215.03089,180.67977 39.55111,16.02919 89.34105,28.10129 128.40656,31.13349 7.7,0.5976 15.8,1.2597 18,1.4713 7.43992,0.7155 56.92071,-0.2855 68.5,-1.3856 z M 782.5,730.43948 c -7.7,-0.70185 -15.4625,-1.31285 -17.25,-1.35778 -5.41497,-0.13612 -4.28878,-3.47602 4.33067,-12.84331 8.79252,-9.55538 7.41766,-9.22939 28.41933,-6.73839 6.875,0.81544 13.01436,1.48653 13.64301,1.49131 2.70037,0.0205 2.04429,3.67128 -2.16649,12.05544 L 804.97993,732 800.73996,731.85779 C 798.40798,731.77957 790.2,731.14133 782.5,730.43948 Z m 24.97696,-8.62919 c 2.18732,-4.22934 3.7493,-7.91737 3.47105,-8.19561 -0.27825,-0.27825 -7.65945,-1.29183 -16.40267,-2.2524 l -15.89677,-1.74648 -6.80404,7.4421 c -3.74222,4.09315 -6.81315,8.0046 -6.82428,8.6921 -0.0118,0.73137 1.3282,1.2839 3.22975,1.3317 1.7875,0.0449 9.55,0.66362 17.25,1.37486 7.7,0.71124 14.9,1.23698 16,1.1683 1.4311,-0.0893 3.13124,-2.31219 5.97696,-7.81457 z M 804,704.4625 c -0.825,-0.19039 -5.4375,-0.63773 -10.25,-0.9941 -8.42188,-0.62364 -8.75,-0.73907 -8.75,-3.07811 0,-1.65554 2.31099,-4.83787 7.25,-9.98356 l 7.25,-7.55338 11.98914,1.6621 c 6.59403,0.91416 12.33153,1.87372 12.75,2.13235 1.48896,0.92023 0.58317,4.94398 -2.55551,11.3522 l -3.18363,6.5 -6.5,0.15432 c -3.575,0.0849 -7.175,-10e-4 -8,-0.19182 z m 16.00929,-8.14326 c 1.66606,-3.67441 2.68304,-7.02191 2.25995,-7.43889 C 821.84616,688.46337 816.775,687.46899 811,686.6706 l -10.5,-1.45161 -6.25,6.22384 c -8.52941,8.49371 -8.34773,9.22229 2.5,10.02557 4.8125,0.35637 9.425,0.79457 10.25,0.97377 0.825,0.17921 3.40802,0.37803 5.74004,0.44183 L 816.98009,703 Z M 818.5,680.49971 c -0.55,-0.18832 -3.1375,-0.63037 -5.75,-0.98233 -8.05681,-1.08542 -6.94345,-3.20605 10.24383,-19.51153 10.70413,-10.15494 15.45963,-14.04582 16.62192,-13.59981 2.09577,0.80423 1.55868,3.54568 -3.16608,16.16037 -7.18746,19.18992 -6.69371,18.44489 -12.16413,18.35464 -2.63205,-0.0434 -5.23554,-0.23302 -5.78554,-0.42134 z m 9.2399,-2.74971 c 1.16842,-1.48308 8.79693,-20.99346 9.82592,-25.13038 0.45101,-1.81325 0.34044,-2.73945 -0.29845,-2.5 C 835.44673,650.80199 811,674.78459 811,675.8883 c 0,1.08814 2.06556,1.75949 7.5,2.43766 6.17736,0.77088 8.28218,0.63968 9.2399,-0.57596 z m -92.05326,305.5 c -1.15169,-20.00311 -7.54931,-75.74279 -16.15484,-140.75 -1.38335,-10.45 -2.51892,-19.9498 -2.52349,-21.11067 -0.006,-1.56765 1.57876,-2.95658 6.1604,-5.39857 19.0318,-10.14384 37.42309,-25.24339 50.53585,-41.49076 10.00289,-12.39409 23.7622,-33.43324 22.61507,-34.58037 -0.53977,-0.53977 -9.94501,-1.80154 -20.90052,-2.80393 L 755.5,735.29317 l -13,13.19158 C 730.8851,760.27082 714.41025,774 711.88202,774 c -1.48664,0 -1.67963,-1.01598 -5.37301,-28.28599 -1.92081,-14.1823 -4.59358,-30.1573 -5.93949,-35.5 -5.34739,-21.22698 -13.77532,-74.8071 -17.56459,-111.6661 -2.43881,-23.7227 -2.5434,-31.33412 -0.47125,-34.29254 3.79453,-5.41744 30.14242,-10.84366 113.0605,-23.28424 59.79559,-8.97141 67.57929,-11.01276 115.41201,-30.26782 27.87488,-11.22103 48.24808,-18.02164 63.99381,-21.36125 15.94268,-3.38139 22.18011,-5.29883 21.72624,-6.67884 -0.96236,-2.92604 -25.33132,-1.86339 -167.22624,7.29223 -106.7074,6.88517 -136.83554,8.16929 -144.20453,6.14624 -10.96041,-3.00902 -15.29691,-11.59411 -18.7408,-37.10169 -2.01284,-14.90836 -7.09716,-65.34163 -8.97233,-89 -2.67125,-33.70209 -2.65268,-33 -0.873,-33 6.29518,0 64.86021,41.60036 66.87055,47.5 0.37483,1.1 2.43338,5.90816 4.57455,10.6848 3.36973,7.51737 4.15121,10.71894 5.8136,23.81711 1.52464,12.01277 2.42903,15.9946 4.38705,19.31519 3.09131,5.24254 8.13763,10.11445 9.56365,9.23312 1.37561,-0.85017 1.38292,-6.92374 0.0143,-11.85245 -0.83632,-3.01168 -0.63476,-5.95764 0.96943,-14.16899 1.1139,-5.70171 2.30834,-13.21571 2.65431,-16.69777 l 0.62903,-6.33101 -4.59288,-3.79977 C 743.33972,391.18151 741.63369,388 744,388 c 0.55,0 1,0.66862 1,1.48581 0,2.07152 5.97308,5.77901 16.14429,10.02075 4.75437,1.98274 12.40437,5.98618 17,8.89655 6.54581,4.14539 8.61424,6.02862 9.54927,8.69424 1.49351,4.25777 1.64122,12.40859 0.27126,14.96839 -1.79546,3.35484 1.50707,2.29978 4.90104,-1.56574 4.88324,-5.56171 6.02691,-4.54461 3.54998,3.1571 -0.32598,1.01359 1.5846,-0.50373 4.24573,-3.37184 2.87028,-3.09352 6.05875,-5.4902 7.83843,-5.8919 4.49386,-1.01435 10.31493,-4.17096 11.33494,-6.14663 0.49599,-0.9607 1.21003,-3.54673 1.58675,-5.74673 0.37672,-2.2 0.89463,-4.71929 1.15091,-5.59842 0.47873,-1.64223 -7.47845,-12.38526 -11.71375,-15.8148 -1.43036,-1.15823 -2.37273,-3.07442 -2.47078,-5.024 -0.27173,-5.40288 -4.11837,-8.02487 -16.29805,-11.10924 -3.78697,-0.95901 -6.55324,-3.27993 -19.58126,-16.42876 -9.01624,-9.09984 -16.96399,-16.22506 -19.59003,-17.56261 C 750.48843,339.72432 744.225,334.66553 739,329.72041 715.73132,307.69812 690.97062,290.51679 661.5,275.94353 l -20,-9.89003 -5.92467,-15.04927 c -3.25858,-8.2771 -6.51404,-15.5384 -7.23438,-16.13623 -0.97759,-0.81133 -2.85531,-0.28254 -7.40501,2.08532 -5.72863,2.98142 -6.23884,3.07823 -8.48084,1.60921 -1.31204,-0.85967 -6.85165,-9.10043 -12.31025,-18.31279 -5.4586,-9.21236 -10.85612,-17.59057 -11.9945,-18.61826 -4.59518,-4.14839 -9.53095,0.28273 -29.37161,26.36852 l -13.31036,17.5 -15.48419,0.69395 C 482.1963,248.33565 457.62043,254.49086 414,275.24304 387.2401,287.97392 349.62929,319.5758 325.62347,349.5 c -30.9846,38.62352 -53.43895,85.12339 -63.98301,132.5 -2.20335,9.90008 -6.0104,34.00921 -6.86904,43.5 l -0.27142,3 -13,1.13504 c -22.36214,1.95245 -48.55549,7.5504 -54.95788,11.74541 -4.20174,2.75308 -4.24153,4.46399 -0.19016,8.17554 2.00642,1.83812 3.64804,4.02499 3.64804,4.85969 0,2.08843 -5.42079,7.30215 -12.54527,12.06604 -14.60407,9.76523 -15.90576,11.59623 -9.99862,14.06439 7.23107,3.02133 44.89391,7.71506 67.00921,8.35101 l 20.96532,0.60288 1.7388,11.47854 c 9.72447,64.19515 38.94853,126.29395 78.73079,167.29667 l 11.42472,11.77521 -2.16308,11.22479 c -4.47481,23.22111 -5.10439,31.42588 -2.48843,32.42972 2.19871,0.84372 5.61826,-3.25284 14.14148,-16.94128 3.67679,-5.90499 7.27859,-10.74249 8.004,-10.75 0.7254,-0.008 5.0004,2.59586 9.5,5.78526 43.6051,30.90815 94.81258,49.84087 150.85313,55.77429 11.8157,1.25102 21.40016,1.50503 41.82795,1.10855 37.24705,-0.72293 61.5691,-4.47552 84.95314,-13.10724 9.99439,-3.68921 12.69698,-4.3478 13.68817,-3.33566 1.72346,1.7599 12.4507,25.10296 34.35629,74.76115 27.24856,61.77026 34.23676,77 35.33165,77 0.61294,0 0.74596,-4.00113 0.35739,-10.75 z M 566.5,805.94967 C 525.89278,800.70128 491.38146,790.44571 455.55723,772.98133 437.33375,764.09735 410.83629,747.84913 399.5,738.6071 l -3,-2.44579 6.10092,-12.33065 c 3.35551,-6.78186 8.69516,-19.98066 11.86589,-29.33066 13.06558,-38.52837 36.56733,-92.9542 44.11747,-102.16816 6.36477,-7.76736 10.20337,-8.79647 43.91572,-11.77358 22.47306,-1.98458 40.30259,-3.29751 61,-4.49191 36.96278,-2.13305 41.29522,-2.24631 43.37376,-1.13391 1.34531,0.71999 2.72454,3.41345 4.01074,7.83246 6.96386,23.92595 26.2015,103.93583 35.2811,146.7351 3.68049,17.34903 8.72834,55.30831 8.80485,66.21146 0.0283,4.03467 -0.12915,4.25419 -3.7512,5.2295 -14.35732,3.86603 -28.17864,5.34055 -52.71925,5.62434 -13.75,0.15901 -28.15,-0.11803 -32,-0.61563 z m 57,-2.46581 c 12.29881,-1.43206 27.88715,-4.53768 29.15866,-5.80919 1.18674,-1.18674 -3.92583,-43.76047 -7.28627,-60.67467 -4.73541,-23.83495 -15.72247,-71.23619 -26.42389,-114 -11.57758,-46.26506 -11.48887,-45.97787 -14.23724,-46.0911 -16.29595,-0.67139 -86.07352,3.78098 -120.69732,7.70144 -19.59839,2.21914 -22.41974,4.25644 -31.78669,22.95331 -9.67709,19.3159 -27.25057,62.67189 -36.3949,89.79076 -2.80885,8.33007 -7.72537,20.3866 -10.9256,26.79228 l -5.8186,11.6467 10.70593,7.48799 c 47.24853,33.0468 104.98291,55.15648 158.20592,60.58578 14.05505,1.43376 41.52406,1.24405 55.5,-0.3833 z M 356.85551,698.25 C 341.71318,679.81165 330.17186,656.83642 321.4235,627.71572 318.50343,617.99565 314.23951,598.81415 313.81759,593.5 l -0.31759,-4 h 39.5 39.5 l 0.31833,2.76977 c 0.33333,2.90028 -7.94126,35.09068 -14.7218,57.27179 -2.17869,7.12714 -6.09842,22.52094 -8.7105,34.20844 -2.72135,12.17637 -5.22703,21.25 -5.8682,21.25 -0.61542,0 -3.61346,-3.0375 -6.66232,-6.75 z M 367.99565,680 c 2.37898,-10.725 6.04347,-25.02583 8.1433,-31.77962 C 380.87618,632.98379 391,595.22773 391,592.79715 391,591.09947 388.91811,591 353.38478,591 h -37.61523 l 0.70503,5.64285 c 2.49548,19.97314 15.00275,56.85725 26.23154,77.35715 6.14542,11.21942 18.99522,27.8214 20.32239,26.25659 0.35294,-0.41612 2.58815,-9.53159 4.96714,-20.25659 z M 313.00319,521.25 c 0.009,-7.89066 6.53865,-36.74406 11.82409,-52.25 14.00723,-41.09308 40.62248,-83.72179 64.94932,-104.02702 23.61347,-19.70979 47.42968,-32.80597 77.07913,-42.38466 C 476.60187,319.43969 498.85086,314 501.98302,314 c 2.04922,0 0.82954,2.75292 -8.40107,18.96189 -7.48568,13.14488 -11.36035,21.56493 -18.88459,41.03811 -27.14805,70.26083 -49.92268,124.83285 -55.47474,132.92723 -7.43224,10.83551 -4.23364,10.23172 -85.25617,16.09363 -20.83611,1.50748 -20.96705,1.49641 -20.96326,-1.77086 z M 345.5,519.97589 c 21.57616,-1.27028 50.08058,-3.73919 58.48372,-5.06555 3.56605,-0.56287 7.2849,-1.74845 8.26412,-2.63463 3.9246,-3.55171 9.40207,-13.37322 15.99297,-28.67656 6.65308,-15.4477 41.00672,-101.25881 49.68188,-124.09915 2.2979,-6.05 8.18362,-17.975 13.07937,-26.5 6.20686,-10.80804 8.47845,-15.59469 7.50425,-15.81281 -1.85737,-0.41586 -20.97436,4.19128 -31.00631,7.47243 -26.25007,8.58561 -49.50868,20.82932 -70,36.84912 -11.73646,9.17539 -19.04085,16.70337 -28.7503,29.63038 -28.42433,37.8437 -46.20555,80.12514 -53.30445,126.75109 l -0.66842,4.3902 6.86158,-0.65182 c 3.77388,-0.35851 14.51159,-1.10222 23.86159,-1.6527 z m 147.75,-7.63817 c -3.98957,-1.60983 0.71685,-14.01053 24.79753,-65.33772 19.75829,-42.11417 56.43897,-115.22531 58.94989,-117.49766 2.09298,-1.89413 2.23769,-1.9013 3.50105,-0.17355 2.65616,3.63252 5.61148,24.87179 12.47723,89.67121 5.20151,49.09232 7.77399,82.65031 6.43818,83.98612 -1.6615,1.6615 -20.54859,3.81106 -61.54567,7.00459 -39.41228,3.07009 -42.43251,3.22896 -44.61821,2.34701 z m 42.52985,-4.35877 c 36.48838,-2.84693 60.92694,-5.3524 61.92296,-6.34843 1.68784,-1.68783 -11.08369,-129.16314 -15.73914,-157.0958 -1.09683,-6.5809 -2.38023,-12.35128 -2.85202,-12.82307 -1.18209,-1.18209 -5.07613,6.04229 -26.2976,48.78835 -26.96507,54.31529 -51.46547,106.61087 -56.79517,121.22808 -2.19322,6.01511 -2.2004,9.27192 -0.0204,9.27192 0.58368,0 18.4853,-1.35947 39.78139,-3.02105 z M 789.03399,392.66952 c -3.78775,-0.9919 -5.11142,-2.08075 -8.71565,-7.16952 -6.376,-9.00219 -6.08589,-9.18431 6.2135,-3.90055 7.38639,3.17316 8.51085,3.99988 9.49453,6.98045 1.82306,5.52393 0.79062,6.12777 -6.99238,4.08962 z m 4.78933,-3.41952 c -0.27883,-1.50919 -9.75095,-7.12631 -12.17152,-7.2179 -1.51873,-0.0575 3.13668,6.4333 5.52497,7.70316 3.54107,1.88278 7.03691,1.62755 6.64655,-0.48526 z m -550.5047,654.9019 c -11.32981,-7.8049 -22.85386,-16.6982 -37.81862,-29.1852 -15.33234,-12.7936 -36.3793,-32.72291 -32.66797,-30.93314 3.07147,1.4812 16.12101,13.47905 18.66797,17.16344 1.1,1.5913 3.65839,3.8854 5.68532,5.0981 2.02692,1.2127 8.45985,6.1597 14.2954,10.9933 5.83554,4.8336 17.00215,13.5432 24.81468,19.3547 15.88622,11.8172 16.54494,12.3569 15.08266,12.3569 -0.56206,0 -4.18881,-2.1816 -8.05944,-4.8481 z m 653.23138,3.9528 c 0.5225,-0.4924 7.34207,-5.6501 15.1546,-11.4616 7.81253,-5.8115 18.97914,-14.5211 24.81468,-19.3547 5.83555,-4.8336 12.26848,-9.7806 14.2954,-10.9933 2.02693,-1.2127 4.58532,-3.5068 5.68532,-5.0981 2.54696,-3.68439 15.5965,-15.68224 18.66797,-17.16344 3.71133,-1.78977 -17.33563,18.13954 -32.66797,30.93314 -20.10699,16.7778 -43.36807,34.0333 -45.87806,34.0333 -0.64235,0 -0.66907,-0.3325 -0.0719,-0.8953 z M 155.93993,968.25 C 118.75393,929.33048 86.73682,883.78694 61.562181,834 47.940843,807.06159 39.915675,788.2302 30.905316,762.06241 27.836077,753.14876 27.379171,750.95917 28.920345,752.55 c 0.965099,0.9962 9.290538,23.48473 11.760546,31.76739 1.635653,5.48482 7.416282,18.42322 13.485006,30.18261 2.27073,4.4 5.419982,11.11793 6.998338,14.92873 2.961838,7.1511 9.871269,19.62308 21.905687,39.54123 C 86.881465,875.27844 90,880.74911 90,881.12701 c 0,0.79474 8.021259,13.17431 10.93273,16.87299 1.08235,1.375 6.3482,8.35 11.70187,15.5 5.35368,7.15 14.11777,18.25493 19.47577,24.67763 5.35799,6.42269 10.30038,12.72269 10.98308,14 0.68271,1.2773 5.6898,6.5533 11.12688,11.72444 C 162.4377,971.71752 168.4241,979 166.63124,979 c -0.23107,0 -5.04216,-4.8375 -10.69131,-10.75 z m 826.46143,8.15207 c 0.821,-1.70387 5.94124,-7.32887 11.37831,-12.5 5.43708,-5.17114 10.48093,-10.51583 11.20853,-11.87709 0.7277,-1.36127 5.6712,-7.66127 10.9856,-14 5.3144,-6.33874 14.0418,-17.37498 19.3941,-24.52498 5.3523,-7.15 10.6083,-14.125 11.6801,-15.5 2.8257,-3.62526 10.952,-16.18591 10.952,-16.92831 0,-0.34747 3.1185,-5.79325 6.9301,-12.10173 11.5584,-19.13037 19.3346,-33.05935 20.7505,-37.16905 0.7389,-2.14466 4.0137,-9.16472 7.2773,-15.60014 7.8889,-15.55577 12.6364,-26.1 14.3722,-31.92041 2.4614,-8.25366 10.7867,-30.73646 11.7496,-31.73036 1.5411,-1.59083 1.0842,0.59876 -1.985,9.51241 -9.0104,26.16779 -17.0355,44.99918 -30.6569,71.93759 -20.5801,40.70053 -44.0957,76.21335 -73.3231,110.73104 -14.26326,16.84495 -32.75989,35.91835 -30.71334,31.67103 z M 26.027978,748.57359 C 24.774342,745.27627 24.763798,745 25.891592,745 c 1.019761,0 2.473908,4.96783 1.685054,5.75669 -0.286379,0.28638 -0.98328,-0.69602 -1.548668,-2.1831 z M 1120.3503,749 c 0.3423,-1.375 0.6285,-2.8375 0.636,-3.25 0.01,-0.4125 0.494,-0.75 1.0811,-0.75 1.221,0 0.2776,3.94335 -1.3158,5.5 -0.695,0.67888 -0.8238,0.19719 -0.4013,-1.5 z M 23.624384,740.20126 C 22.54269,738.45104 12.118758,695.52892 9.6112351,682.5 7.327459,670.63365 4.0396089,649.01556 2.61519,636.5 c -0.4935418,-4.33647 -0.3899908,-4.76555 0.7803077,-3.23333 0.7421517,0.97167 1.6562488,5.02167 2.0313268,9 1.568634,16.63799 11.1683265,68.40918 15.0627235,81.23333 3.786578,12.46911 5.211715,20.06172 3.134836,16.70126 z M 1123.6331,737.96875 c 0.3688,-1.90781 1.7755,-7.06875 3.126,-11.46875 1.3504,-4.4 3.0519,-11.15 3.781,-15 0.7291,-3.85 2.0422,-10.3456 2.9179,-14.43468 2.5651,-11.97775 8.5406,-47.28159 8.5573,-50.55767 0.016,-3.10104 1.466,-6.35967 2.4101,-5.41555 0.6846,0.68455 -2.7987,24.57453 -6.0374,41.4079 -3.2022,16.64334 -13.1934,56.70062 -14.4588,57.96875 -0.6224,0.62371 -0.7279,-0.26671 -0.2961,-2.5 z m 20.149,-100.54778 c -0.301,-0.50653 -0.099,-2.04597 0.4494,-3.42097 0.5481,-1.375 1.1832,-2.01144 1.4111,-1.41432 0.5636,1.47622 -1.1737,5.99116 -1.8605,4.83529 z M 1.378007,528.25 c 1.4063946,-24.3702 9.089323,-70.14917 16.785905,-100.01934 3.809013,-14.78265 3.134459,-7.84015 -1.015231,10.44873 C 12.986481,457.02342 9.7978552,473.86589 8.000597,487 5.5392732,504.98701 3.9728797,519.24492 3.3589521,529.25 2.987227,535.30794 2.2629767,540 1.6996171,540 1.0516003,540 0.93846191,535.8665 1.378007,528.25 Z m 1142.780793,-14 c -0.5014,-0.9625 -1.2215,-4.9 -1.6002,-8.75 -0.9011,-9.15944 -4.7834,-32.51554 -9.1421,-55 -4.0668,-20.97835 -3.5726,-18.83067 -6.6734,-29 -3.0598,-10.03444 -4.1149,-15.27257 -2.8139,-13.96875 1.2648,1.26762 11.2552,41.31907 14.4596,57.96875 3.3922,17.62593 8.0319,50.5 7.1273,50.5 -0.2452,0 -0.8559,-0.7875 -1.3573,-1.75 z M 24.015453,408.45 c 0.02422,-3.05569 16.740254,-50.38617 19.464933,-55.11381 2.739018,-4.75252 1.578679,-0.93573 -5.521962,18.16381 -2.044737,5.5 -5.603911,16.075 -7.909275,23.5 -4.068007,13.10202 -6.066238,17.55638 -6.033696,13.45 z M 1120.5597,400.382 c -0.8992,-3.5827 0.1449,-4.28914 1.4123,-0.95559 1.2537,3.29732 1.2642,3.57359 0.1364,3.57359 -0.4904,0 -1.1873,-1.1781 -1.5487,-2.618 z m -1.8636,-5.06547 c -0.7865,-1.27389 -9.7741,-26.25903 -11.366,-31.59689 -1.7358,-5.82041 -6.4833,-16.36464 -14.3722,-31.92041 -3.2636,-6.43542 -6.5384,-13.45548 -7.2773,-15.60014 -1.4159,-4.1097 -9.1921,-18.03868 -20.7505,-37.16905 -3.8116,-6.30848 -6.9301,-11.75426 -6.9301,-12.10173 0,-0.7424 -8.1263,-13.30305 -10.952,-16.92831 -1.0718,-1.375 -6.3289,-8.35 -11.6826,-15.5 -5.3537,-7.15 -14.1178,-18.25493 -19.4758,-24.67763 -5.358,-6.42269 -10.3003,-12.72269 -10.9831,-14 -0.6827,-1.2773 -5.68975,-6.5533 -11.12683,-11.72444 -5.43707,-5.17113 -10.55731,-10.79613 -11.37831,-12.5 -2.02726,-4.20729 16.77118,15.15407 30.75564,31.67665 41.8719,49.47132 75.7788,107.14496 98.3136,167.22542 6.6437,17.713 8.8657,24.49701 8.2314,25.13131 -0.2759,0.27597 -0.7286,0.13431 -1.0059,-0.31478 z M 49.057712,340.33598 c 2.055092,-5.42871 19.139469,-39.47213 19.585091,-39.02651 0.487098,0.4871 -0.16208,2.00254 -10.148426,23.69053 -8.367769,18.17282 -7.91328,17.3063 -9.323758,17.77646 -0.895078,0.29836 -0.92281,-0.30105 -0.112907,-2.44048 z m 23.616849,-47.00242 c 0.371756,-1.00846 1.344506,-2.87764 2.161666,-4.15373 0.817159,-1.27609 2.200801,-3.64125 3.074759,-5.25591 3.359679,-6.20711 15.333001,-25.01327 15.694832,-24.65144 0.610743,0.61075 -3.557241,8.76694 -7.48535,14.64784 C 84.129211,276.9015 80.7,282.72774 78.5,286.86751 c -2.2,4.13977 -4.562806,7.70073 -5.25068,7.91323 -0.837929,0.25887 -1.027612,-0.21873 -0.574759,-1.44718 z M 95,256.44136 c 0,-0.30725 1.277382,-2.21975 2.838627,-4.25 1.561245,-2.03025 5.384583,-7.29136 8.496313,-11.69136 8.93642,-12.63615 13.3695,-17.24914 5.57619,-5.80248 -1.42388,2.09136 -4.46768,6.72748 -6.764,10.30248 C 99.637865,253.57703 95,258.80644 95,256.44136 Z m 25.01851,-34.47595 c 0.99846,-1.86563 14.31283,-18.20585 17.86445,-21.92435 0.88937,-0.93116 4.92127,-5.58235 8.95978,-10.33598 9.48656,-11.16641 41.02894,-41.982 53.19708,-51.97135 5.2031,-4.27144 11.48518,-9.48397 13.96018,-11.58339 5.90492,-5.00886 10,-7.62317 10,-6.38404 0,0.98685 -4.28889,4.54882 -10.93543,9.08199 -5.36439,3.6587 -34.16739,30.51193 -48.58719,45.29816 -21.39168,21.93528 -29.8635,31.28729 -36.44731,40.23406 -3.43567,4.66875 -6.88335,8.73295 -7.66151,9.03155 -1.12882,0.43317 -1.19958,0.14072 -0.35005,-1.44665 z m 853.954,-58.64735 c -3.97526,-2.7042 -15.29569,-13.42151 -17.47251,-16.54162 -1.1,-1.57667 -3.65374,-3.85887 -5.67498,-5.07156 -2.02125,-1.21268 -8.77125,-6.41038 -15,-11.55044 -6.22876,-5.14005 -17.73811,-14.10196 -25.57634,-19.91535 -14.14094,-10.487928 -18.57883,-15.05098 -7.51376,-7.72567 16.68795,11.04777 47.11723,35.8102 64.26508,52.29699 10.30098,9.90387 11.90864,11.86549 6.97251,8.50765 z M 227,116.65957 c 0,-1.14913 29.19868,-21.794218 29.87185,-21.121054 0.99705,0.997047 -4.39423,5.498834 -10.05504,8.396104 -3.26034,1.66868 -8.4904,4.98659 -11.62235,7.37313 C 228.89585,116.10729 227,117.34547 227,116.65957 Z M 885.90504,92.79909 C 882.38227,90.488589 877.475,87.591912 875,86.362029 872.525,85.132146 867.575,82.330216 864,80.135519 850.40276,71.788153 836.04524,63.87827 830.12257,61.471673 826.73937,60.096958 819.14026,56.544511 813.23565,53.577348 797.80075,45.821054 790.25413,42.437136 784,40.468019 780.975,39.515597 772.99471,36.770665 766.26603,34.368171 759.53734,31.965677 753.62994,30 753.13847,30 c -0.49147,0 -1.50765,-0.739911 -2.25818,-1.644246 -1.72187,-2.074724 -1.90158,-2.127467 21.36588,6.270787 C 809.42432,48.045783 848.13955,67.07853 881.5,88.336681 893.65192,96.080201 894.91059,97 893.35504,97 c -0.57473,0 -3.92723,-1.89041 -7.45,-4.20091 z M 259.55,93.08458 c 2.63529,-2.539369 36.52009,-22.347821 37.15043,-21.717483 0.23713,0.237128 -0.16096,0.950569 -0.88464,1.585423 -2.09871,1.841103 -28.20948,17.045164 -29.31476,17.069716 C 265.95046,90.034466 264.375,90.924459 263,92 c -2.52981,1.978843 -5.273,2.841224 -3.45,1.08458 z m 40,-24.019933 c 1.73916,-1.712341 43.5687,-21.279283 44.18105,-20.666927 0.87272,0.872715 1.07722,0.761071 -14.73105,8.042234 -7.975,3.673222 -17.76994,8.226915 -21.76654,10.119316 -7.44979,3.527494 -9.35134,4.147542 -7.68346,2.505377 z M 349,45.571451 c 0,-1.036648 7.71787,-4.066643 33.331,-13.085571 22.26911,-7.841425 29.56825,-9.88654 27.119,-7.598352 -0.5225,0.48814 -5.675,2.343597 -11.45,4.123236 -5.775,1.77964 -13.65,4.367446 -17.5,5.75068 -3.85,1.383234 -11.725,4.192953 -17.5,6.24382 -5.775,2.050866 -11.2875,4.061818 -12.25,4.468781 -0.9625,0.406963 -1.75,0.450796 -1.75,0.09741 z M 733,23.117175 C 714.44417,18.071323 709.25102,16.835329 695,14.072995 673.52486,9.91038 658.25141,7.3503036 646.5,5.9436163 633.69291,4.4105594 630.40549,2.654327 641.87138,3.4708726 653.37123,4.2898373 683.40508,9.4218005 701.5,13.659774 c 17.40553,4.076513 40.69051,10.197404 41.36726,10.874156 0.94666,0.946659 -3.5505,0.30095 -9.86726,-1.416755 z M 414.87702,21.921851 C 421.44835,19.291744 452.67781,12.246838 475,8.3589907 482.975,6.9699883 491.75,5.4408974 494.5,4.961011 502.27769,3.6037717 528.65669,1 534.62929,1 537.58318,1 540,1.45 540,2 c 0,0.55 -2.20194,1 -4.89319,1 -2.69126,0 -11.29338,0.6754288 -19.11584,1.5009529 -37.61406,3.9695091 -56.65644,7.3191691 -91.8301,16.1534221 -9.61363,2.414571 -13.46288,2.940089 -9.28385,1.267476 z" id="path845" />
      <path style="fill:#030200" d="m 541,1109.9247 c -1.925,-0.4524 -11.6,-1.5444 -21.5,-2.4268 C 425.38391,1099.11 329.96652,1062.0054 252.67254,1003.7375 231.51236,987.78597 216.87076,974.97172 195.90049,954.05092 172.95281,931.15737 161.31012,917.88696 144.09261,895 85.638355,817.29771 48.953663,722.92777 40.495318,628.5 c -0.886791,-9.9 -2.06495,-20.25 -2.618131,-23 -1.059511,-5.26708 -0.616157,-58.03664 0.562913,-67 0.361744,-2.75 1.326333,-11.75 2.14353,-20 2.685302,-27.10942 9.6527,-65.28717 15.603659,-85.5 1.700246,-5.775 3.653408,-12.525 4.34036,-15 1.285576,-4.63176 5.322901,-16.25976 12.325861,-35.5 7.464415,-20.50807 23.394735,-53.69718 37.84346,-78.8428 26.89283,-46.80252 69.0106,-97.81794 110.38917,-133.7096 58.19717,-50.48007 126.3017,-87.980717 200.89181,-110.617783 26.8472,-8.147753 65.69496,-15.692634 96.52205,-18.746187 8.25,-0.817197 17.25,-1.781786 20,-2.14353 8.96336,-1.17907 61.73292,-1.622424 67,-0.562913 2.75,0.553181 12.98356,1.720339 22.74125,2.593683 105.18886,9.414734 205.51019,51.74314 291.08621,122.8175 14.98088,12.44223 49.96501,47.19601 63.12729,62.71163 71.49725,84.28052 115.69355,188.02754 125.03115,293.5 0.8765,9.9 2.0257,19.91896 2.5538,22.26435 0.5282,2.34539 0.9603,16.85144 0.9603,32.23565 0,15.38421 -0.4321,29.89026 -0.9603,32.23565 -0.5281,2.34539 -1.6773,12.36435 -2.5538,22.26435 -8.395,94.82519 -45.7801,190.39598 -105.0311,268.5 -68.41031,90.17786 -162.34906,156.3397 -269.11625,189.5408 -34.19457,10.6333 -70.6818,17.9232 -104.83855,20.9458 -9.9,0.8761 -19.91896,2.025 -22.26435,2.5531 -5.11832,1.1526 -60.25566,1.0554 -65.23565,-0.115 z m 82.8897,-81.3765 c 103.15813,-11.5947 195.33506,-55.21984 269.4846,-127.54072 76.61979,-74.73021 123.0362,-170.14648 135.3175,-278.16663 2.4435,-21.49188 2.4596,-76.08461 0.029,-97.34085 C 1018.1247,432.84722 983.79537,351.81473 925.13836,281 912.89243,266.21588 881.78412,235.10757 867,222.86164 796.59002,164.53989 714.08178,129.45283 623.8897,119.47771 592.53956,116.01042 545.28873,116.49817 514.5,120.60689 427.44934,132.22369 348.89178,166.62576 281,222.86164 266.21588,235.10757 235.10757,266.21588 222.86164,281 169.2672,345.70286 135.71729,419.51558 122.63833,501.5 118.37454,528.22727 117.5,540.56667 117.5,574 c 0,33.41316 0.87223,45.73388 5.13255,72.5 13.25654,83.28629 48.49798,159.69304 103.33743,224.04527 78.18721,91.75003 187.90059,148.29283 308.53002,159.00663 19.82708,1.761 69.78259,1.2 89.3897,-1.0037 z M 726.54922,976.75 c -4.29204,-9.4875 -16.24027,-36.375 -26.55162,-59.75 -21.90559,-49.65819 -32.63283,-73.00125 -34.35629,-74.76115 -0.99119,-1.01214 -3.69378,-0.35355 -13.68817,3.33566 -23.38404,8.63172 -47.70609,12.38431 -84.95314,13.10724 -20.42779,0.39648 -30.01225,0.14247 -41.82795,-1.10855 -56.04055,-5.93342 -107.24803,-24.86614 -150.85313,-55.77429 -4.4996,-3.1894 -8.7746,-5.79277 -9.5,-5.78526 -0.72541,0.008 -4.32721,4.84501 -8.004,10.75 -8.52322,13.68844 -11.94277,17.785 -14.14148,16.94128 -2.61596,-1.00384 -1.98638,-9.20861 2.48843,-32.42972 l 2.16308,-11.22479 -11.42472,-11.77521 C 296.11797,727.27249 266.89391,665.17369 257.16944,600.97854 L 255.43064,589.5 234.46532,588.89712 c -22.1153,-0.63595 -59.77814,-5.32968 -67.00921,-8.35101 -5.90714,-2.46816 -4.60545,-4.29916 9.99862,-14.06439 C 184.57921,561.71783 190,556.50411 190,554.41568 c 0,-0.8347 -1.64162,-3.02157 -3.64804,-4.85969 -4.05137,-3.71155 -4.01158,-5.42246 0.19016,-8.17554 6.40239,-4.19501 32.59574,-9.79296 54.95788,-11.74541 l 13,-1.13504 0.27142,-3 c 0.85864,-9.49079 4.66569,-33.59992 6.86904,-43.5 10.54406,-47.37661 32.99841,-93.87648 63.98301,-132.5 C 349.62929,319.5758 387.2401,287.97392 414,275.24304 457.62043,254.49086 482.1963,248.33565 529.98419,246.19395 L 545.46838,245.5 558.77874,228 c 19.84066,-26.08579 24.77643,-30.51691 29.37161,-26.36852 1.13838,1.02769 6.5359,9.4059 11.9945,18.61826 5.4586,9.21236 10.99821,17.45312 12.31025,18.31279 2.242,1.46902 2.75221,1.37221 8.48084,-1.60921 4.5497,-2.36786 6.42742,-2.89665 7.40501,-2.08532 0.72034,0.59783 3.9758,7.85913 7.23438,16.13623 l 5.92467,15.04927 20,9.89003 c 29.47062,14.57326 54.23132,31.75459 77.5,53.77688 5.225,4.94512 11.48843,10.00391 13.91873,11.24176 2.62604,1.33755 10.57379,8.46277 19.59003,17.56261 13.02802,13.14883 15.79429,15.46975 19.58126,16.42876 12.17968,3.08437 16.02632,5.70636 16.29805,11.10924 0.0981,1.94958 1.04042,3.86577 2.47078,5.024 4.2353,3.42954 12.19248,14.17257 11.71375,15.8148 -0.25628,0.87913 -0.77419,3.39842 -1.15091,5.59842 -0.37672,2.2 -1.09076,4.78603 -1.58675,5.74673 -1.02001,1.97567 -6.84108,5.13228 -11.33494,6.14663 -1.77968,0.4017 -4.96815,2.79838 -7.83843,5.8919 -2.66113,2.86811 -4.57171,4.38543 -4.24573,3.37184 2.47693,-7.70171 1.33326,-8.71881 -3.54998,-3.1571 -3.39397,3.86552 -6.6965,4.92058 -4.90104,1.56574 1.36996,-2.5598 1.22225,-10.71062 -0.27126,-14.96839 -0.93503,-2.66562 -3.00346,-4.54885 -9.54927,-8.69424 -4.59563,-2.91037 -12.24563,-6.91381 -17,-8.89655 C 750.97308,395.26482 745,391.55733 745,389.48581 745,388.66862 744.55,388 744,388 c -2.36631,0 -0.66028,3.18151 3.59289,6.70023 l 4.59288,3.79977 -0.62903,6.33101 c -0.34597,3.48206 -1.54041,10.99606 -2.65431,16.69777 -1.60419,8.21135 -1.80575,11.15731 -0.96943,14.16899 1.36866,4.92871 1.36135,11.00228 -0.0143,11.85245 -1.42602,0.88133 -6.47234,-3.99058 -9.56365,-9.23312 -1.95802,-3.32059 -2.86241,-7.30242 -4.38705,-19.31519 -1.66239,-13.09817 -2.44387,-16.29974 -5.8136,-23.81711 -2.14117,-4.77664 -4.19972,-9.5848 -4.57455,-10.6848 -2.01034,-5.89964 -60.57537,-47.5 -66.87055,-47.5 -1.77968,0 -1.79825,-0.70209 0.873,33 1.87517,23.65837 6.95949,74.09164 8.97233,89 3.44389,25.50758 7.78039,34.09267 18.7408,37.10169 7.36899,2.02305 37.49713,0.73893 144.20453,-6.14624 107.86988,-6.96019 152.94896,-9.40814 161.92183,-8.79291 2.70701,0.1856 5.09399,0.86091 5.30441,1.50068 0.45387,1.38001 -5.78356,3.29745 -21.72624,6.67884 -15.74573,3.33961 -36.11893,10.14022 -63.99381,21.36125 -47.83272,19.25506 -55.61642,21.29641 -115.41201,30.26782 -82.91808,12.44058 -109.26597,17.8668 -113.0605,23.28424 -2.07215,2.95842 -1.96756,10.56984 0.47125,34.29254 3.78927,36.859 12.2172,90.43912 17.56459,111.6661 1.34591,5.3427 4.01868,21.3177 5.93949,35.5 3.69338,27.27001 3.88637,28.28599 5.37301,28.28599 2.52823,0 19.00308,-13.72918 30.61798,-25.51525 l 13,-13.19158 19.91911,1.82253 c 10.95551,1.00239 20.36075,2.26416 20.90052,2.80393 1.14713,1.14713 -12.61218,22.18628 -22.61507,34.58037 -13.11276,16.24737 -31.50405,31.34692 -50.53585,41.49076 -4.58164,2.44199 -6.16657,3.83092 -6.1604,5.39857 0.005,1.16087 1.14014,10.66067 2.52349,21.11067 12.03064,90.88099 18.3516,151.5 15.79745,151.5 -0.53698,0 -4.488,-7.7625 -8.78003,-17.25 z M 635.46925,804.1176 c 6.58309,-1.18722 13.67059,-2.61671 15.75,-3.17664 3.62205,-0.97531 3.77951,-1.19483 3.7512,-5.2295 -0.0765,-10.90315 -5.12436,-48.86243 -8.80485,-66.21146 -9.0796,-42.79927 -28.31724,-122.80915 -35.2811,-146.7351 -1.2862,-4.41901 -2.66543,-7.11247 -4.01074,-7.83246 -2.07854,-1.1124 -6.41098,-0.99914 -43.37376,1.13391 -20.69741,1.1944 -38.52694,2.50733 -61,4.49191 -33.71235,2.97711 -37.55095,4.00622 -43.91572,11.77358 -7.55014,9.21396 -31.05189,63.63979 -44.11747,102.16816 -3.17073,9.35 -8.51038,22.5488 -11.86589,29.33066 l -6.10092,12.33065 3,2.44579 c 5.64657,4.60343 20.67354,14.62194 32.33852,21.56016 35.45449,21.08801 78.98122,37.09854 117.66148,43.27967 19.37257,3.09575 24.22917,3.40482 49,3.11837 20.3256,-0.23505 27.23796,-0.69271 36.96925,-2.4477 z M 369.38603,683.75 c 2.61208,-11.6875 6.53181,-27.0813 8.7105,-34.20844 6.78054,-22.18111 15.05513,-54.37151 14.7218,-57.27179 L 392.5,589.5 H 353 313.5 l 0.31759,4 c 0.42192,5.31415 4.68584,24.49565 7.60591,34.21572 6.14,20.43824 16.91932,44.80698 25.14258,56.83963 6.42775,9.40539 15.58099,20.44465 16.95175,20.44465 0.64117,0 3.14685,-9.07363 5.8682,-21.25 z M 333.96645,523.02086 c 65.72234,-4.75496 74.85253,-5.76894 78.94275,-8.76724 6.94246,-5.0891 13.52128,-19.01811 39.08541,-82.75362 7.27992,-18.15 17.49616,-44.025 22.70275,-57.5 7.52424,-19.47318 11.39891,-27.89323 18.88459,-41.03811 C 502.81256,316.75292 504.03224,314 501.98302,314 c -3.13216,0 -25.38115,5.43969 -35.12729,8.58832 -29.64945,9.57869 -53.46566,22.67487 -77.07913,42.38466 -24.32684,20.30523 -50.94209,62.93394 -64.94932,104.02702 -5.28544,15.50594 -11.81492,44.35934 -11.82409,52.25 -0.004,3.26727 0.12715,3.27834 20.96326,1.77086 z m 203.90176,-13.03015 c 40.99708,-3.19353 59.88417,-5.34309 61.54567,-7.00459 1.33581,-1.33581 -1.23667,-34.8938 -6.43818,-83.98612 -6.86575,-64.79942 -9.82107,-86.03869 -12.47723,-89.67121 -1.26336,-1.72775 -1.40807,-1.72058 -3.50105,0.17355 -2.51092,2.27235 -39.1916,75.38349 -58.94989,117.49766 -24.08068,51.32719 -28.7871,63.72789 -24.79753,65.33772 2.1857,0.88195 5.20593,0.72308 44.61821,-2.34701 z M 796.51208,392.98045 c 0.34657,-0.56075 0.128,-2.541 -0.48571,-4.40055 -0.98368,-2.98057 -2.10814,-3.80729 -9.49453,-6.98045 -12.29939,-5.28376 -12.5895,-5.10164 -6.2135,3.90055 3.60423,5.08877 4.9279,6.17762 8.71565,7.16952 5.75473,1.50701 6.71422,1.5469 7.47809,0.31093 z M 785.5,728.45656 c -7.7,-0.71124 -15.4625,-1.32993 -17.25,-1.37486 -1.90155,-0.0478 -3.2416,-0.60033 -3.22975,-1.3317 0.0111,-0.6875 3.08206,-4.59895 6.82428,-8.6921 l 6.80404,-7.4421 15.89677,1.74648 c 8.74322,0.96057 16.12442,1.97415 16.40267,2.2524 0.27825,0.27824 -1.28373,3.96627 -3.47105,8.19561 -2.84572,5.50238 -4.54586,7.72523 -5.97696,7.81457 -1.1,0.0687 -8.3,-0.45706 -16,-1.1683 z M 807,702.44217 c -0.825,-0.1792 -5.4375,-0.6174 -10.25,-0.97377 -10.84773,-0.80328 -11.02941,-1.53186 -2.5,-10.02557 l 6.25,-6.22384 10.5,1.45161 c 5.775,0.79839 10.84616,1.79277 11.26924,2.20975 0.42309,0.41698 -0.59389,3.76448 -2.25995,7.43889 L 816.98009,703 812.74004,702.884 C 810.40802,702.8202 807.825,702.62138 807,702.44217 Z m 11.5,-24.11621 c -5.43444,-0.67817 -7.5,-1.34952 -7.5,-2.43766 0,-1.10371 24.44673,-25.08631 26.26737,-25.76868 0.63889,-0.23945 0.74946,0.68675 0.29845,2.5 -1.02899,4.13692 -8.6575,23.6473 -9.82592,25.13038 -0.95772,1.21564 -3.06254,1.34684 -9.2399,0.57596 z" id="path843" />
    </g>
  </g>
</svg>
